<svg xmlns="http://www.w3.org/2000/svg" viewBox="0 0 1000 1000"><path d="M370.2 230.7C355 315 317 457.4 286.7 569h170.6c-20.2-79.9-67.7-254-85.6-338.3h-1.5z"/><path d="M899.6 0H100.4C45 0 0 45 0 100.4v799.2C0 955 45 1000 100.4 1000h799.2c55.4 0 100.4-45 100.4-100.4V100.4C1000 45 955 0 899.6 0zM676.8 908.6H557.3c-5.7 0-9.3-1.4-10.8-6.4l-59-216.7H257.2l-56.8 215.9c-1.4 5.7-3.6 7.2-10.8 7.2H83.7c-7.2 0-8.6-2.2-7.2-10.8l204.4-715.4c3.6-13 5.7-24.5 7.2-59.7 0-5 2.2-7.2 5.7-7.2H445c5 0 7.2 1.4 8.6 7.2l228.8 776.5c1.5 5.8.1 9.4-5.6 9.4zm242.5-8.6c0 5.7-1.4 8.6-8.6 8.6H799.1c-7.2 0-9.3-3.6-9.3-9.3V332.1h-.7c0-5.7 2.2-8.6 8.6-8.6h113c5.7 0 8.6 2.2 8.6 8.6V900zm-66.2-657.8c-41.8 0-72-25.9-72-73.4 0-46.1 32.4-73.4 73.4-73.4 43.9 0 73.4 29.5 73.4 73.4 0 47.5-30.9 73.4-74.8 73.4z"/></svg>