<svg xmlns="http://www.w3.org/2000/svg" viewBox="0 0 1000 1000"><style>.st0{display:none}.st1,.st2{display:inline}.st2{fill:none;stroke:#000;stroke-miterlimit:10}.st3{fill:#fff}</style><g id="black_x5F_bg" class="st0"><path class="st1" d="M-2-2H998V998H-2z"/></g><g id="guide_x5F_path" class="st0"><path class="st2" d="M74 31h848v934H74z"/></g><g id="Layer_4"><path class="st3" d="M368.7 229.8c-15.1 83.9-53 225.8-83.1 336.9h169.9c-20.1-79.6-67.4-253-85.3-336.9h-1.5z"/><path class="st3" d="M896 0H100C44.8 0 0 44.8 0 100v796c0 55.2 44.8 100 100 100h796c55.2 0 100-44.8 100-100V100C996 44.8 951.2 0 896 0zM674.1 905h-119c-5.7 0-9.3-1.4-10.8-6.4l-58.8-215.8H256.2l-56.6 215c-1.4 5.7-3.6 7.2-10.8 7.2H83.4c-7.2 0-8.6-2.2-7.2-10.8l203.6-712.5c3.6-12.9 5.7-24.4 7.2-59.5 0-5 2.2-7.2 5.7-7.2h150.5c5 0 7.2 1.4 8.6 7.2l227.9 773.4c1.5 5.8.1 9.4-5.6 9.4zm241.5-8.6c0 5.7-1.4 8.6-8.6 8.6H795.9c-7.2 0-9.3-3.6-9.3-9.3V330.8h-.7c0-5.7 2.2-8.6 8.6-8.6H907c5.7 0 8.6 2.2 8.6 8.6v565.6zm-65.9-655.2c-41.6 0-71.7-25.8-71.7-73.1 0-45.9 32.3-73.1 73.1-73.1 43.7 0 73.1 29.4 73.1 73.1 0 47.3-30.8 73.1-74.5 73.1z"/></g></svg>