<svg xmlns="http://www.w3.org/2000/svg" viewBox="0 0 1000 1000"><style>.st0{display:none}.st1{display:inline}.st2{fill:none;stroke:#000;stroke-miterlimit:10}.st3{fill:#fff}</style><g id="black_x5F_bg" class="st0"><path class="st1" d="M-2-2H998V998H-2z"/></g><path class="st2" d="M74 31h848v934H74z" id="guide_x5F_path"/><g id="Layer_4"><path class="st3" d="M501.4 305.2c-43.5-.4-86.9-2.5-129.4-12.4-10.4-2.4-20.5-6.2-30.5-10-4-1.5-7.7-4.3-10.9-7.2-5.2-4.8-5.2-10.5.1-15.2 3.6-3.1 7.9-5.8 12.3-7.8 15.7-7.2 32.4-10.7 49.3-13.3 69.5-10.7 139.1-10.8 208.6-.7 17.4 2.5 34.5 7.8 51.5 12.5 5.3 1.5 10.4 4.6 15 7.9 8.4 6 8.4 13.3-.2 19.3-4.6 3.2-9.8 5.8-15 7.9-19.1 7.4-39.1 11.3-59.3 13.3-30.4 3-60.9 4.8-91.4 7.1 0-.5-.1-.9-.1-1.4zm-1.4 97.7c47.6-.1 86 38.1 86.2 85.7.2 47.5-38.2 86.3-85.6 86.4-47.5.1-86.3-38.3-86.5-85.5-.1-47.9 38.1-86.4 85.9-86.6zm43.2 86.2c.1-23.9-19-43.2-42.9-43.3-23.8-.1-43.2 19.1-43.3 43-.1 23.8 19.2 43.3 43 43.3 23.7.1 43.1-19.2 43.2-43z"/><path class="st3" d="M667.4 259c-4.6-3.3-9.7-6.4-15-7.9-17-4.7-34.1-9.9-51.5-12.5-69.5-10.1-139.1-10-208.6.7-16.9 2.6-33.6 6.1-49.3 13.3-4.4 2-8.6 4.6-12.3 7.8-5.4 4.7-5.4 10.4-.1 15.2 3.2 2.9 6.9 5.7 10.9 7.2 10 3.8 20.1 7.6 30.5 10 42.5 9.9 85.9 12.1 129.4 12.4 0 .5.1.9.1 1.4 30.5-2.3 61-4.1 91.4-7.1 20.2-2 40.2-5.9 59.3-13.3 5.3-2 10.5-4.6 15-7.9 8.6-6 8.6-13.3.2-19.3zM500 402.9c-47.8.1-86 38.7-85.9 86.5.2 47.3 39 85.7 86.5 85.5 47.4-.1 85.7-38.9 85.6-86.4-.2-47.5-38.6-85.7-86.2-85.6zm-.1 129.2c-23.8-.1-43-19.5-43-43.3.1-23.8 19.4-43.1 43.3-43 23.9.1 43 19.3 42.9 43.3 0 23.8-19.4 43.1-43.2 43z"/><path class="st3" d="M896 0H100C44.8 0 0 44.8 0 100v796c0 55.2 44.8 100 100 100h796c55.2 0 100-44.8 100-100V100C996 44.8 951.2 0 896 0zM703.9 641.9c-3.3 17.6-6.6 35.2-9.9 52.7-2.7 14.2-5.7 28.4-8.2 42.6-1.9 10.9-7 19.8-14.8 27.4-13.6 13.4-30.3 21.7-48 28.3-29.3 11-59.9 16.2-91 18.5-10.5.8-21.1 1-27.7 1.3-46.9-.4-89.1-5.3-129.5-20.7-14.4-5.5-28-12.4-39.9-22.2-11-9.1-18.3-20.2-20.9-34.7-5.5-31.4-11.8-62.6-17.8-93.9-.9-4.6-.3-9 3.8-11.8 3.9-2.7 8.1-2.2 11.9.5 31.6 22.6 67.2 36.3 104.8 44.4 75.4 16.1 149.4 11.7 221.4-17 17.1-6.8 33.5-15.2 48.4-26.1 4.3-3.1 8.7-4.9 13.5-1.9 4.7 2.9 4.8 7.7 3.9 12.6zm65.7-350.3C757.7 358.7 747 426 735.8 493.2c-3 18-6.5 35.8-9.1 53.9-1.6 10.7-6.1 19.4-13.6 26.9-9.7 9.8-21.1 17.3-33.3 23.7-31 16.3-64.3 25.5-98.6 31.3-26.9 4.6-53.9 6.4-84 6.5-49.8-.4-101.3-6.9-150.7-26-16-6.2-31.5-13.4-45.2-23.8-6.9-5.3-13.7-11.2-19.1-18-3.9-4.8-6.6-11.4-7.7-17.5-11.9-67.9-23.4-135.9-34.9-203.9-3.6-21.2-6.6-42.4-9.8-63.6-1.7-11.3 2.3-20.8 9.4-29.2 8.2-9.8 18.6-16.7 29.7-22.7 25-13.4 51.9-21.5 79.5-27.6 61.7-13.6 124.3-17.4 187.3-14.7 53.8 2.4 107 9 158.3 26.5 13.9 4.7 27.3 11.4 40.6 17.7 5.4 2.5 10.2 6.3 15.1 9.9 16.4 12.2 23.7 27.5 19.9 49z"/></g></svg>