<svg xmlns="http://www.w3.org/2000/svg" viewBox="0 0 1000 1000"><path d="M503.4 306.4c-43.7-.4-87.2-2.5-129.9-12.4-10.4-2.4-20.6-6.2-30.6-10-4-1.5-7.7-4.3-10.9-7.2-5.2-4.8-5.2-10.5.1-15.3 3.6-3.1 7.9-5.8 12.3-7.8 15.8-7.2 32.5-10.7 49.5-13.4 69.8-10.7 139.7-10.8 209.4-.7 17.5 2.5 34.6 7.8 51.7 12.6 5.3 1.5 10.4 4.6 15.1 7.9 8.4 6 8.4 13.4-.2 19.4-4.6 3.2-9.8 5.8-15.1 7.9-19.2 7.4-39.3 11.3-59.5 13.4-30.5 3-61.1 4.8-91.8 7.1 0-.6-.1-1-.1-1.5zm-1.4 98.1c47.8-.1 86.3 38.3 86.5 86 .2 47.7-38.4 86.6-85.9 86.7-47.7.1-86.6-38.5-86.8-85.8-.1-48 38.2-86.7 86.2-86.9zm43.4 86.6c.1-24-19.1-43.4-43.1-43.5-23.9-.1-43.4 19.2-43.5 43.2-.1 23.9 19.3 43.5 43.2 43.5 23.8 0 43.3-19.3 43.4-43.2z"/><path d="M670.1 260c-4.6-3.3-9.7-6.4-15.1-7.9-17.1-4.7-34.2-9.9-51.7-12.6-69.8-10.1-139.7-10-209.4.7-17 2.6-33.7 6.1-49.5 13.4-4.4 2-8.6 4.6-12.3 7.8-5.4 4.7-5.4 10.4-.1 15.3 3.2 2.9 6.9 5.7 10.9 7.2 10 3.8 20.2 7.6 30.6 10 42.7 9.9 86.2 12.1 129.9 12.4 0 .5.1.9.1 1.4 30.6-2.3 61.2-4.1 91.8-7.1 20.3-2 40.4-5.9 59.5-13.4 5.3-2 10.5-4.6 15.1-7.9 8.6-5.9 8.6-13.2.2-19.3zM502 404.5c-48 .1-86.3 38.9-86.2 86.8.2 47.5 39.2 86 86.8 85.8 47.6-.1 86-39.1 85.9-86.7-.1-47.6-38.7-86-86.5-85.9zm-.1 129.7c-23.9-.1-43.2-19.6-43.2-43.5.1-23.9 19.5-43.3 43.5-43.2 24 .1 43.2 19.4 43.1 43.5 0 24-19.5 43.3-43.4 43.2z"/><path d="M899.6 0H100.4C45 0 0 45 0 100.4v799.2C0 955 45 1000 100.4 1000h799.2c55.4 0 100.4-45 100.4-100.4V100.4C1000 45 955 0 899.6 0zM706.7 644.5c-3.3 17.7-6.6 35.3-9.9 52.9-2.7 14.3-5.7 28.5-8.2 42.8-1.9 10.9-7 19.9-14.9 27.5-13.7 13.5-30.4 21.8-48.2 28.4-29.4 11-60.1 16.3-91.4 18.6-10.5.8-21.2 1-27.8 1.3-47.1-.4-89.5-5.3-130-20.8-14.5-5.5-28.1-12.4-40.1-22.3-11-9.1-18.4-20.3-21-34.8-5.5-31.5-11.8-62.9-17.9-94.3-.9-4.6-.3-9 3.8-11.8 3.9-2.7 8.1-2.2 11.9.5 31.7 22.7 67.5 36.4 105.2 44.6 75.7 16.2 150 11.7 222.3-17.1 17.2-6.8 33.6-15.3 48.6-26.2 4.3-3.1 8.7-4.9 13.6-1.9 4.8 2.8 4.9 7.7 4 12.6zm66-351.7c-11.9 67.4-22.7 134.9-33.9 202.4-3 18.1-6.5 35.9-9.1 54.1-1.6 10.7-6.1 19.5-13.7 27-9.7 9.8-21.2 17.4-33.4 23.8-31.1 16.4-64.6 25.6-99 31.4-27 4.6-54.1 6.4-84.3 6.5-50-.4-101.7-6.9-151.3-26.1-16.1-6.2-31.6-13.5-45.4-23.9-6.9-5.3-13.8-11.2-19.2-18.1-3.9-4.8-6.6-11.4-7.7-17.6-11.9-68.2-23.5-136.4-35-204.7-3.6-21.3-6.6-42.6-9.8-63.9-1.7-11.3 2.3-20.9 9.4-29.3 8.2-9.8 18.7-16.8 29.8-22.8 25.1-13.5 52.1-21.6 79.8-27.7 61.9-13.7 124.8-17.5 188.1-14.8 54 2.4 107.4 9 158.9 26.6 14 4.7 27.4 11.4 40.8 17.8 5.4 2.5 10.2 6.3 15.2 9.9 16.3 12.4 23.6 27.8 19.8 49.4z"/></svg>