<svg id="Layer_1" xmlns="http://www.w3.org/2000/svg" viewBox="0 0 2500 2500"><style>.st0{fill:#fff}</style><path class="st0" d="M1520 1063.4c38.2-28.3 57.2-74.2 57.2-137.8 0-35.3-6.4-64.3-19.1-86.9-12.7-22.6-29.7-40.3-50.9-53-21.2-12.7-45.6-21.6-73.1-26.5-27.6-5-56.2-7.4-85.9-7.4h-311.6v354h337.1c59.4 0 108.2-14.1 146.3-42.4zm53.1 319.1c-43.8-33.2-101.8-49.8-173.8-49.8h-362.5v415.5H1393c32.5 0 63.6-3.2 93.3-9.5 29.7-6.4 55.8-17 78.4-31.8 22.6-14.8 40.6-35 54.1-60.4s20.1-57.9 20.1-97.5c-.1-77.8-22-133.3-65.8-166.5z"/><path class="st0" d="M2177.6 0H322.4C144.3 0 0 144.3 0 322.4v1855.3c0 178 144.3 322.4 322.4 322.4h1855.3c178.1 0 322.4-144.3 322.4-322.4V322.4C2500 144.3 2355.7 0 2177.6 0zm-250.5 1766.2c-29.7 55.8-69.6 101.4-119.8 136.7-50.2 35.3-107.4 61.5-171.7 78.4s-130.4 25.4-198.2 25.4H703.9V493.2h712.3c72.1 0 137.8 6.4 197.2 19.1 59.4 12.7 110.2 33.6 152.6 62.5 42.4 29 75.3 67.5 98.6 115.5 23.3 48.1 35 107.4 35 178.1 0 76.3-17.3 139.9-51.9 190.8-34.6 50.9-85.9 92.6-153.7 125.1 93.3 26.9 162.9 73.8 208.8 141 45.9 67.1 68.9 148 68.9 242.7-.1 76.3-14.9 142.4-44.6 198.2z"/></svg>