<svg xmlns="http://www.w3.org/2000/svg" viewBox="0 0 1000 1000"><path d="M608 425.3c15.3-11.3 22.9-29.7 22.9-55.1 0-14.1-2.6-25.7-7.6-34.8s-11.9-16.1-20.4-21.2c-8.5-5.1-18.2-8.6-29.2-10.6s-22.5-3-34.4-3H414.6v141.6h134.8c23.8.1 43.3-5.5 58.6-16.9zM629.2 553c-17.5-13.3-40.7-19.9-69.5-19.9h-145v166.2h142.5c13 0 25.4-1.3 37.3-3.8 11.9-2.6 22.3-6.8 31.4-12.7 9-5.9 16.2-14 21.6-24.2s8-23.2 8-39c0-31.1-8.8-53.3-26.3-66.6z"/><path d="M871 0H129C57.7 0 0 57.7 0 129v742c0 71.2 57.7 129 129 129h742c71.2 0 129-57.7 129-129V129c0-71.3-57.8-129-129-129zM770.8 706.5c-11.9 22.3-27.8 40.6-47.9 54.7s-43 24.6-68.7 31.4c-25.7 6.8-52.2 10.2-79.3 10.2H281.5V197.3h284.9c28.8 0 55.1 2.6 78.9 7.6 23.8 5.1 44.1 13.4 61 25 17 11.6 30.1 27 39.4 46.2 9.3 19.2 14 43 14 71.2 0 30.5-6.9 56-20.8 76.3s-34.4 37-61.5 50c37.3 10.8 65.2 29.5 83.5 56.4 18.4 26.8 27.6 59.2 27.6 97.1.1 30.6-5.8 57-17.7 79.4z"/></svg>