<svg id="Layer_1" xmlns="http://www.w3.org/2000/svg" viewBox="0 0 1000 1000"><style>.st0{display:none}.st1{display:inline}.st2{fill:#fff}</style><g id="black_x5F_bg" class="st0"><path class="st1" d="M-2-2H998V998H-2V-2z"/></g><g id="Layer_4"><path class="st2" d="M636.4 577c-5.5-3.2-11.1-6.4-16.6-9.6-4.5-2.5-5.8-2.1-8.4 2-14.2 22.1-32.6 39.6-56.8 50.4-16.9 7.5-34.8 10.7-53.2 11-20.5.3-40.3-3.4-58.8-12.4-22.9-11.1-40.4-28.3-54.3-49.2-.7-1-.9-2.4-1.5-3.6-.7-1.5-1.4-3.1-2.2-4.6-2.9-5.2-6.4-10.1-8.5-15.6-8.1-21.2-9.9-43.2-6.8-65.6 4.3-31.1 17.7-57.8 40.9-79 32.3-29.4 70.7-39.4 113.5-32.9 35.2 5.4 62.7 23.3 83 52.6 2.4 3.5 4.7 7.2 7.1 10.9 38.9-22.5 77.7-45 116.6-67.5-2.7-3.6-5.2-7-7.7-10.4-13.2-18.8-27.8-36.2-44.5-51.9-30.8-28.9-66.3-49.6-107.4-60.3-39.1-10.2-78.5-10.6-118.1-4-53.9 8.9-100 33.3-138.7 71.6-31.4 31.1-53.7 67.9-67.2 110-10.7 33.5-14.5 67.9-11.2 102.9 2.1 22.9 7.4 45.2 15.2 66.8 5.5 15.1 11.4 30.2 19.8 43.9 17.9 29.1 40.1 54.7 67.1 75.8 43.7 34.2 93.4 52.5 148.7 55.4 33 1.7 65.3-2.6 96.7-12.9 55.8-18.4 101.2-51.1 134.7-99.7 4.2-6.1 7.9-12.5 12-19-1.9-1.5-3.4-3.1-5.1-4.1-29.7-17-59-34-88.3-51z"/><path class="st2" d="M896 0H100C44.8 0 0 44.8 0 100v796c0 55.2 44.8 100 100 100h796c55.2 0 100-44.8 100-100V100C996 44.8 951.2 0 896 0zm18.3 688.6c0 11.9-2.1 23.4-6.7 34.4-8.1 19.2-22.1 33.1-39.8 43.4-97.3 56.4-194.6 112.7-292 169-12.8 7.4-25.7 14.7-38.9 21.3-14.5 7.2-30 9.6-46.2 7.8-14.5-1.6-27.8-6.8-40.3-14-73.7-42.6-147.5-85.1-221.2-127.8-35.1-20.4-70.4-40.6-105-61.8-25.6-15.6-38.4-39.3-38.6-69.5-.1-15.6-.1-31.2-.1-46.7 0-.9-.3-1.8-.4-2.7V312.2c.1-1.1.4-2.2.4-3.2-.1-7.7.2-15.4 1.9-23 5-21.9 17.6-38.5 36.3-50.4 13.8-8.8 28-16.9 42.1-25.1 56.5-32.6 113.1-65.1 169.7-97.7 40.8-23.4 81.4-47.1 122.4-70.2 25.7-14.5 52.4-15.6 79.1-2.9 11.2 5.3 21.9 11.8 32.7 18 58.3 33.6 116.6 67.4 174.9 101.1 40.4 23.4 80.8 46.8 121.1 70.3 9.8 5.7 19.1 12.2 26.8 20.7 15.3 16.7 21.9 36.8 21.9 59.1-.1 126.5-.1 253.1-.1 379.7z"/></g></svg>