<svg xmlns="http://www.w3.org/2000/svg" viewBox="0 0 1000 1000"><path d="M639 579.3c-5.5-3.2-11.1-6.4-16.7-9.6-4.5-2.5-5.8-2.1-8.4 2-14.3 22.2-32.7 39.8-57 50.6-17 7.5-34.9 10.7-53.4 11-20.6.3-40.5-3.4-59-12.4-23-11.1-40.6-28.4-54.5-49.4-.7-1-.9-2.4-1.5-3.6-.7-1.5-1.4-3.1-2.2-4.6-2.9-5.2-6.4-10.1-8.5-15.7-8.1-21.3-9.9-43.4-6.8-65.9 4.3-31.2 17.8-58 41.1-79.3 32.4-29.5 71-39.6 114-33 35.3 5.4 63 23.4 83.3 52.8 2.4 3.5 4.7 7.2 7.1 10.9 39.1-22.6 78-45.2 117.1-67.8-2.7-3.6-5.2-7-7.7-10.4-13.3-18.9-27.9-36.3-44.7-52.1-30.9-29-66.6-49.8-107.8-60.5-39.3-10.2-78.8-10.6-118.6-4-54.1 8.9-100.4 33.4-139.3 71.9-31.5 31.2-53.9 68.2-67.5 110.4-10.7 33.6-14.6 68.2-11.2 103.3 2.1 23 7.4 45.4 15.3 67.1 5.5 15.2 11.4 30.3 19.9 44.1 18 29.2 40.3 54.9 67.4 76.1 43.9 34.3 93.8 52.7 149.3 55.6 33.1 1.7 65.6-2.6 97.1-13 56-18.5 101.6-51.3 135.2-100.1 4.2-6.1 7.9-12.6 12-19.1-1.9-1.5-3.4-3.1-5.1-4.1-30.1-17-59.5-34.1-88.9-51.2z"/><path d="M899.6 0H100.4C45 0 0 45 0 100.4v799.2C0 955 45 1000 100.4 1000h799.2c55.4 0 100.4-45 100.4-100.4V100.4C1000 45 955 0 899.6 0zM918 691.4c0 11.9-2.1 23.5-6.7 34.5-8.1 19.3-22.2 33.2-40 43.6-97.7 56.6-195.4 113.2-293.2 169.7-12.9 7.4-25.8 14.8-39.1 21.4-14.6 7.2-30.1 9.6-46.4 7.8-14.6-1.6-27.9-6.8-40.5-14.1C378.1 911.5 304 868.9 230 826c-35.2-20.5-70.7-40.8-105.4-62-25.7-15.7-38.6-39.5-38.8-69.8-.1-15.7-.1-31.3-.1-46.9 0-.9-.3-1.8-.4-2.7V313.5c.1-1.1.4-2.2.4-3.2-.1-7.7.2-15.5 1.9-23.1 5-22 17.7-38.7 36.4-50.6 13.9-8.8 28.1-17 42.3-25.2 56.7-32.7 113.6-65.4 170.4-98.1 41-23.5 81.7-47.3 122.9-70.5 25.8-14.6 52.6-15.7 79.4-2.9 11.2 5.3 22 11.8 32.8 18.1 58.5 33.7 117.1 67.7 175.6 101.5 40.6 23.5 81.1 47 121.6 70.6 9.8 5.7 19.2 12.2 26.9 20.8 15.4 16.8 22 36.9 22 59.3.1 126.9.1 254.1.1 381.2z"/></svg>