<svg xmlns="http://www.w3.org/2000/svg" viewBox="0 0 1000 1000"><path d="M516.1 305.9l-14.2 5.5-242.7 101 8 99.9v.8l234.1.5h125.8l-8 133.1-117.8 33v-.1l-.7.3L387 651.2l-6.9-82.4H274.6v-.6h-.4l13.8 160 213.5 63.2v-.9l.4.1 212-61.8 27.5-316.4H500.8l.6-.2 248.7-106.3h1.3l10.3-102.3H237.6l12.7 102.3h265.8z"/><path d="M899.6 0H100.4C45 0 0 45 0 100.4v799.2C0 955 45 1000 100.4 1000h799.2c55.4 0 100.4-45 100.4-100.4V100.4C1000 45 955 0 899.6 0zm-59 877.7l-338.7 91.2-338.7-91.2L85.1 31.1h833.5l-78 846.6z"/></svg>