<svg xmlns="http://www.w3.org/2000/svg" viewBox="0 0 1000 1000"><style>.st0{display:none}.st1,.st2{display:inline}.st2{fill:none;stroke:#000;stroke-miterlimit:10}.st3{fill:#fff}</style><g id="black_x5F_bg" class="st0"><path class="st1" d="M-2-2H998V998H-2z"/></g><g id="guide_x5F_path" class="st0"><path class="st2" d="M74 31h848v934H74z"/></g><g id="Layer_4"><path class="st3" d="M514 304.7l-14.1 5.5-241.7 100.6 8 99.5v.8l233.2.5h125.3l-8 132.6-117.3 32.9v-.1l-.7.3-113.1-28.6-6.9-82.1H273.5v-.6h-.4l13.7 159.4 212.6 62.9v-.9l.4.1L711 725.9l27.4-315.1H498.8l.6-.2 247.7-105.9h1.3l10.3-101.9H236.6l12.6 101.9z"/><path class="st3" d="M896 0H100C44.8 0 0 44.8 0 100v796c0 55.2 44.8 100 100 100h796c55.2 0 100-44.8 100-100V100C996 44.8 951.2 0 896 0zm-58.8 874.2L499.9 965l-337.3-90.8L84.8 31H915l-77.8 843.2z"/></g></svg>