<svg xmlns="http://www.w3.org/2000/svg" viewBox="0 0 1000 1000"><style>.st0{display:none}.st1{display:inline}.st2{fill:#fff}</style><g id="black_x5F_bg" class="st0"><path class="st1" d="M-2-2H998V998H-2z"/></g><g id="guide_x5F_path"><path class="st2" d="M896 0H100C44.8 0 0 44.8 0 100v796c0 55.2 44.8 100 100 100h796c55.2 0 100-44.8 100-100V100C996 44.8 951.2 0 896 0zm-24.8 799.6c-36.8 48.3-85.8 78.3-145.2 91-23.7 5.1-47.8 5-72 4.9-66.3-.1-132.6-.1-198.9-.1H393c.1-1.7 1.5-1.9 2.4-2.5 67.9-43.2 121.3-100.1 160.9-170 1.7-3 3.5-3.8 6.8-3.8 37.9.1 75.7.1 113.6 0 18 0 33.8-6.1 47.2-18.3 32.3-29.5 28.2-82.3-8.2-106.6-11.8-7.8-24.7-11.6-38.7-11.6-22-.1-44-.1-66 0-2.9 0-3.7-.4-3.1-3.6 4.9-25.9 7.4-52.1 7.7-78.5.3-22.1-1-44.2-4-66.2-1.2-8.6-2.4-17.1-4.1-25.6-.4-2 .3-2.5 2.2-2.5 13.9.1 27.8.1 41.7.1h25.5c33.8-.1 63.2-24.5 68.1-56.5 5.3-35.3-14.1-66.7-47.8-77.2-7.1-2.2-14.5-3-22-3-37.7 0-75.5 0-113.2.1-3 0-4.6-.9-6.1-3.6-40-70.4-94.2-127.2-162.9-170.2-1.1-.7-2.4-1-3-2.3h303.5c5.4 2.5 11.2 1.3 16.8 2.1 25.1 3.6 49.1 10.8 72.1 21.7 26.4 12.5 49.8 29.2 70.1 50.1 28.5 29.2 48.6 63.4 59.9 102.7 3.5 12.3 6.2 24.9 7.7 37.6 7.9 67.8-9.4 128.7-51.5 182.4-2.6 3.3-3.7 5.1-.4 8.5 4.6 4.8 8.4 10.4 11.8 16.2 2.1 1.1 2.9 3.3 4 5.2 7 11.4 13.4 23 18.3 35.4 5.7 14.3 11.3 28.7 14.3 43.8 14.5 73.5 0 140.7-45.4 200.3zM367.3 458.3c-7.5-45.5-27.5-84.8-59-118.3-8.1-8.6-17.1-16.2-26.1-23.8-12.5-9-25.5-17.4-39.4-24.1-26.9-12.8-55.1-20.2-84.9-21.8-20.7-1.1-41.3-.3-62-.5-7.3-.1-14.6-.1-21.9-.1h-.1c0-57.6 0-115.2-.1-172.7 0-.8 0-1.4.1-1.9.3-1.2 1.1-1.6 3.2-1.6 29.6.2 59.1.1 88.7.1 3.8 1.6 7.9 1 11.9 1.4 89.8 7.7 168.1 41.8 235.4 101.5 4.8 4.3 9.6 8.5 13.9 13.3 12.8 11.9 24.2 25.1 34.9 38.8 35.7 45.8 60.4 96.9 73.9 153.4 5.3 22.1 8.6 44.4 10 67.1 4.6 73.8-9.6 143.8-43.6 209.5-36.4 70.4-89.4 125.4-158 165.1-38.9 22.5-80.5 37.7-124.5 46.1-23.8 4.5-47.9 6.9-72.2 6.8-23.6-.1-47.2 0-70.8 0-.9 0-1.8-.1-2.6-.2H74V720.3h.1c25 0 50 .1 75 .1 20.5 0 40.7-3.1 60.3-9.3 66.9-21.1 114.8-63.7 143-127.9 17.4-40 22-81.8 14.9-124.9z"/><path d="M427.1 209.7c-.1.2-.2.5-.3.7.1-.2.2-.4.3-.7z"/></g></svg>