<svg xmlns="http://www.w3.org/2000/svg" viewBox="0 0 1000 1000"><path d="M899.6 0H100.4C45 0 0 45 0 100.4v799.2C0 955 45 1000 100.4 1000h799.2c55.4 0 100.4-45 100.4-100.4V100.4C1000 45 955 0 899.6 0zm-24.9 802.8c-36.9 48.5-86.1 78.6-145.8 91.4-23.8 5.1-48 5-72.3 4.9-66.6-.1-133.1-.1-199.7-.1h-62.3c.1-1.7 1.5-1.9 2.4-2.5 68.2-43.4 121.8-100.5 161.5-170.7 1.7-3 3.5-3.8 6.8-3.8 38.1.1 76 .1 114.1 0 18.1 0 33.9-6.1 47.4-18.4 32.4-29.6 28.3-82.6-8.2-107-11.8-7.8-24.8-11.6-38.9-11.6-22.1-.1-44.2-.1-66.3 0-2.9 0-3.7-.4-3.1-3.6 4.9-26 7.4-52.3 7.7-78.8.3-22.2-1-44.4-4-66.5-1.2-8.6-2.4-17.2-4.1-25.7-.4-2 .3-2.5 2.2-2.5 14 .1 27.9.1 41.9.1h25.6c33.9-.1 63.5-24.6 68.4-56.7 5.3-35.4-14.2-67-48-77.5-7.1-2.2-14.6-3-22.1-3-37.9 0-75.8 0-113.7.1-3 0-4.6-.9-6.1-3.6-40.1-70.8-94.5-127.8-163.5-171-1.1-.7-2.4-1-3-2.3h304.7c5.4 2.5 11.2 1.3 16.9 2.1 25.2 3.6 49.3 10.8 72.4 21.8 26.5 12.6 50 29.3 70.4 50.3 28.6 29.3 48.8 63.7 60.1 103.1 3.5 12.3 6.2 25 7.7 37.8 7.9 68.1-9.4 129.2-51.7 183.1-2.6 3.3-3.7 5.1-.4 8.5 4.6 4.8 8.4 10.4 11.8 16.3 2.1 1.1 2.9 3.3 4 5.2 7 11.4 13.5 23.1 18.4 35.5 5.7 14.4 11.3 28.8 14.4 44 14.5 73.8 0 141.3-45.6 201.1zM368.8 460.1c-7.5-45.7-27.6-85.1-59.2-118.8-8.1-8.6-17.2-16.3-26.2-23.9-12.6-9-25.6-17.5-39.6-24.2-27-12.9-55.3-20.3-85.2-21.9-20.8-1.1-41.5-.3-62.2-.5-7.3-.1-14.7-.1-22-.1h-.1c0-57.8 0-115.7-.1-173.4 0-.8 0-1.4.1-1.9.3-1.2 1.1-1.6 3.2-1.6 29.7.2 59.3.1 89.1.1 3.8 1.6 7.9 1 11.9 1.4 90.2 7.7 168.8 42 236.3 101.9 4.8 4.3 9.6 8.5 14 13.4 12.9 11.9 24.3 25.2 35 39 35.8 46 60.6 97.3 74.2 154 5.3 22.2 8.6 44.6 10 67.4 4.6 74.1-9.6 144.4-43.8 210.3-36.5 70.7-89.8 125.9-158.6 165.8-39.1 22.6-80.8 37.9-125 46.3-23.9 4.5-48.1 6.9-72.5 6.8-23.7-.1-47.4 0-71.1 0-.9 0-1.8-.1-2.6-.2h-.1V723.2h.1c25.1 0 50.2.1 75.3.1 20.6 0 40.9-3.1 60.5-9.3 67.2-21.2 115.3-64 143.6-128.4 17.5-40.2 22.1-82.2 15-125.5z"/></svg>