<svg xmlns="http://www.w3.org/2000/svg" viewBox="0 0 1000 1000"><title>Django</title><style>.st0{display:none}.st1,.st2{display:inline}.st2{fill:none;stroke:#000;stroke-miterlimit:10}.st3{fill:#fff}</style><g id="black_x5F_bg" class="st0"><path class="st1" d="M-2-2H998V998H-2z"/></g><g id="guide_x5F_path" class="st0"><path class="st2" d="M74 31h848v934H74z"/></g><g id="Layer_4"><path class="st3" d="M534.4 403.3c-24.9-7-50.1-8.2-75.4-3.6-40.5 7.3-69 29.6-83.1 68.7-10.7 29.6-11.6 60.1-6.5 90.8 3.7 22.5 12.3 43 28.5 59.5 19.9 20.3 45 28.6 72.6 31.1 21.3 2 42.5 0 63.7-2.4 4.6-.5 5.2-2.1 5.2-6.2-.1-38.5-.1-77-.1-115.5 0-38.7-.1-77.3.1-116 0-3.8-1.3-5.3-5-6.4z"/><path class="st3" d="M896 0H100C44.8 0 0 44.8 0 100v796c0 55.2 44.8 100 100 100h796c55.2 0 100-44.8 100-100V100C996 44.8 951.2 0 896 0zm23.7 49.7c0 49.8-.1 99.6 0 149.3 0 4.1-1 5.3-5.2 5.2-47.3-.2-94.7-.2-142 0-4.2 0-5.2-1.2-5.2-5.3.1-48 .1-95.9.1-143.9 0-1.8-.2-3.6-.3-5.4 50.9.1 101.7.1 152.6.1zM436.6 764.9c-34.8-3.4-68.8-10.4-101.2-24.1-60-25.4-100-68.8-118.2-131.6-5.8-20.1-8.9-40.6-10.2-61.5-1.9-30.2-.3-60.2 6.5-89.8C229.6 388 268 335 332.2 301.7c31.5-16.3 65.1-24.9 100.3-28.4 26-2.5 51.9-2.8 77.8 1.1 6.6 1 13.2 2.2 19.6 3.9 3.9 1 4.2-.2 4.2-3.5-.1-33.3-.1-66.7-.1-100V55.1c0-1.8.1-3.6.1-5.5h151.7c0 1.8.1 3.6.1 5.5 0 228.5 0 457.1.1 685.6 0 4.6-.8 6.3-5.8 7.2-40.5 7.5-81.3 13.7-122.4 16.8-40.4 3.1-80.8 4.1-121.2.2zm483-128.7c0 32.9-.9 65.7-4.1 98.4-3.7 37.4-10.8 73.8-26.9 108.2-21.3 45.5-54.8 79.1-98.2 103.4-9 5-18.2 9.8-27.3 14.8-1.8 1-3.4 1.5-5.5.5-45.7-21.6-91.5-43.2-137.2-64.8-.1-.1-.2-.2-.8-.7 10.7-5.5 21.2-10.6 31.4-16.2 23.1-12.5 44.9-26.9 62.6-46.7 22.6-25.2 35.8-55.1 43.1-87.8 5.7-25.6 7.9-51.7 9.1-77.8 3.6-79.2 1.5-158.6 1.9-237.8.3-50.2.1-100.5 0-150.7 0-4.1 1-5 5-5 47.3.1 94.7.2 142 0 4.1 0 5 1.1 5 5.1 0 119.1 0 238.1-.1 357.1z"/></g></svg>