<svg xmlns="http://www.w3.org/2000/svg" viewBox="0 0 1000 1000"><path d="M536.5 404.9c-25-7-50.3-8.2-75.7-3.6-40.7 7.3-69.3 29.7-83.4 69-10.7 29.7-11.6 60.3-6.5 91.2 3.7 22.6 12.3 43.2 28.6 59.7 20 20.4 45.2 28.7 72.9 31.2 21.4 2 42.7 0 64-2.4 4.6-.5 5.2-2.1 5.2-6.2-.1-38.7-.1-77.3-.1-116 0-38.9-.1-77.6.1-116.5 0-3.8-1.3-5.3-5.1-6.4zM899.6 0H100.4C45 0 0 45 0 100.4v799.2C0 955 45 1000 100.4 1000h799.2c55.4 0 100.4-45 100.4-100.4V100.4C1000 45 955 0 899.6 0zm23.8 49.9c0 50-.1 100 0 149.9 0 4.1-1 5.3-5.2 5.2-47.5-.2-95.1-.2-142.6 0-4.2 0-5.2-1.2-5.2-5.3.1-48.2.1-96.3.1-144.5 0-1.8-.2-3.6-.3-5.4 51.1.1 102.1.1 153.2.1zM438.4 768c-34.9-3.4-69.1-10.4-101.6-24.2-60.2-25.5-100.4-69.1-118.7-132.1-5.8-20.2-8.9-40.8-10.2-61.7-1.9-30.3-.3-60.4 6.5-90.2 16.2-70.2 54.7-123.4 119.2-156.8 31.6-16.4 65.4-25 100.7-28.5 26.1-2.5 52.1-2.8 78.1 1.1 6.6 1 13.3 2.2 19.7 3.9 3.9 1 4.2-.2 4.2-3.5-.1-33.4-.1-67-.1-100.4V55.3c0-1.8.1-3.6.1-5.5h152.3c0 1.8.1 3.6.1 5.5 0 229.4 0 458.9.1 688.4 0 4.6-.8 6.3-5.8 7.2-40.7 7.5-81.6 13.8-122.9 16.9-40.6 3.1-81.2 4.1-121.7.2zm484.9-129.2c0 33-.9 66-4.1 98.8-3.7 37.6-10.8 74.1-27 108.6-21.4 45.7-55 79.4-98.6 103.8-9 5-18.3 9.8-27.4 14.9-1.8 1-3.4 1.5-5.5.5-45.9-21.7-91.9-43.4-137.8-65.1-.1-.1-.2-.2-.8-.7 10.7-5.5 21.3-10.6 31.5-16.3 23.2-12.6 45.1-27 62.9-46.9 22.7-25.3 35.9-55.3 43.3-88.2 5.7-25.7 7.9-51.9 9.1-78.1 3.6-79.5 1.5-159.2 1.9-238.8.3-50.4.1-100.9 0-151.3 0-4.1 1-5 5-5 47.5.1 95.1.2 142.6 0 4.1 0 5 1.1 5 5.1 0 119.7 0 239.2-.1 358.7z"/></svg>