<svg xmlns="http://www.w3.org/2000/svg" viewBox="0 0 1000 1000"><style>.st0{display:none}.st1,.st2{display:inline}.st2{fill:none;stroke:#000;stroke-miterlimit:10}.st3{fill:#fff}</style><g id="black_x5F_bg" class="st0"><path class="st1" d="M-2-2H998V998H-2z"/></g><g id="guide_x5F_path" class="st0"><path class="st2" d="M74 31h848v934H74z"/></g><g id="Layer_4"><path class="st3" d="M476.5 233.2c4.7.4 9.3.8 14.4 1.3 1.1-26 2.1-51.5 3.2-77.4-6.4-.8-12.5-1.7-18.9-2.5-.1 1.7-.2 2.6-.2 3.6-.3 12.1-.5 24.2-.8 36.3-.3 11.4-.5 22.9-.8 34.3 0 2.3.3 4.1 3.1 4.4zM562 360c.8-9.7 1.2-19.4 1.9-29 .6-8.3 1.6-16.5 2.3-24.8.7-8.5 1.3-17.1 1.8-25.6.1-1-1.1-2.8-2-2.9-4-.8-8.1-1-12.1-1.6-9.5-1.4-18.9-3-28.4-4.4-2.7-.4-5.4-.8-8.1-1.1-6.5-.9-13.1-1.8-19.6-2.7-5.3-.7-10.6-1.6-15.9-2.3-2.4-.3-4.8-.2-7.1-.6-4.1-.6-8.2-1.8-12.4-2.2-4.3-.4-8.6-.1-12.7-.1-.8 33.5-1.7 67.3-2.5 101.5 37.8 5.9 75.1 11.6 112.4 17.4.9-8.1 1.9-14.8 2.4-21.6zm-63.2-71.3c-1 22.3-2 44.6-2.9 66.9-.1 3.3-1.4 4.3-4.6 3.9-9.6-1.2-19.2-2.2-28.8-3.2-3.8-.4-5-2-4.7-6 1.1-14.4 1.9-28.8 2.7-43.2.5-8.8.6-17.5 1.1-26.3.3-5 1.2-5.6 6.2-4.9 8.5 1.1 16.9 2.6 25.4 3.1 4.9.3 5.6 2.8 5.7 6.5.1 1 0 2.1-.1 3.2zm48.6 4.1c-1.6 18.9-3.3 37.9-4.9 56.8-.3 3.4-.3 6.9-.3 10.3 0 4.6-.9 5.5-5.4 4.9-7.5-.9-15-1.8-22.6-2.7-3.3-.4-4.8-1.9-4.6-5.4 1-17 1.8-34.1 2.6-51.1.3-6.7.6-13.5.6-20.2 0-3.3 1.2-4.3 4.5-3.8 7.8 1.2 15.6 1.9 23.4 2.9 6.3.9 6.9 1.6 6.7 8.3z"/><path class="st3" d="M534.2 291.2c-4-.8-8.1-.9-12.6-1.3-.9 22.1-1.8 43.9-2.7 66.1 4.6.5 8.9 1 13.4 1.5.4-4.7.8-8.9 1.1-13.2.8-11 1.6-21.9 2.4-32.9.4-5.4.9-10.7 1-16.1.1-1.4-1.4-3.9-2.6-4.1zm-62.6-4.2c-.2 7.8-.7 15.6-1.1 23.5-.7 12.2-1.4 24.5-2.1 36.7-.2 2.9.7 4.4 3.9 4.3 3 0 6.1.1 9 .8 3.3.8 4.1-.3 4.2-3.4.3-9.6.6-19.2 1.1-28.8.6-11.4 1.3-22.7 2-34.5-4.8-.6-8.9-1-12.9-1.8-2.8-.5-4 .1-4.1 3.2zm181.1 87.2c.1-.6.2-1.3.3-1.9 1.1-10.5 2.1-21.1 3.3-31.6.8-7.9 1.9-15.9 2.6-23.8.1-1.3-.7-3.7-1.6-3.9-3.2-.9-6.6-1.1-10-1.6-.2.9-.4 1.3-.4 1.7-1.7 17-3.3 34-5 51-.9 9.2.5 10.6 10.8 10.1zm-41.5-6.5c.2-.7.3-1.2.4-1.8 1.6-17.5 3.2-35 4.7-52.5.8-8.8.8-8.7-7.8-10.5-3-.6-3.9.1-4 3.1-.9 17.3-2.1 34.6-3.1 51.9-.7 9.6-.5 9.9 9.8 9.8z"/><path class="st3" d="M628.3 387.1c14.8.6 29.6.3 44.5.4 2.1 0 3.2-.7 3.4-3.1.8-8.8 2-17.7 2.6-26.5.8-12.4.9-24.9 1.7-37.3.5-7.7 1.8-15.4 2.8-23.8-3.2-.1-6.2-.1-9.1-.5-2.4-.3-4.6-1.4-7-1.9-3.7-.8-7.5-1.3-11.2-2-3.5-.7-6.9-1.6-10.4-2.1-4.1-.6-8.2-.6-12.3-1.2-9.9-1.6-19.8-3.3-29.7-5.1-4.5-.8-9-1.8-13.5-2.9-4.3-1.1-5.2-.3-5.4 4-.6 13.1-1.2 26.2-2.1 39.3-1 13.8-2.4 27.5-3.6 41.3-.5 5.7-1.1 11.5-1.7 17.4 2.2.4 3.7.7 5.2.8 15.3 1.2 30.5 2.6 45.8 3.2zm3.1-14c1.4-13.7 2.8-27.4 4.4-41.1 1.1-9.8 2.3-19.7 3.6-30.4 9.4 2 18.4 3.7 27.3 5.9.9.2 1.8 2.7 1.7 4-1.7 18.2-3.6 36.4-5.4 54.6-.5 4.6-.8 9.2-1.2 13.8-.2 2.5-1.4 3.3-3.9 2.9-7.1-1.1-14.1-2.1-21.2-3.2-4.8-.8-5.8-1.8-5.3-6.5zm-39.7-9.6c1.7-23.2 3.6-46.4 5.5-70.5 9.5 1.9 18.2 3.7 27 5.5 2.6.5 2.7 2.3 2.6 4.3-.8 10.3-1.8 20.6-2.5 30.9-.8 11.5-1.3 23-1.9 34.4-.1 2 .5 4.1.1 6-.7 3.2-3.5 2.7-5.7 2.4-5.8-.8-11.7-1.8-17.5-2.9-8-1.6-8.2-1.8-7.6-10.1zm-65.9-125c4.8 1.1 9.7 1.5 14.8 2.1.2-1.6.4-2.6.5-3.7 1.4-16.6 2.7-33.2 4.1-49.8.6-6.6 1.3-13.2 2.2-19.7.3-2.4-.3-3.5-2.9-3.8-5.2-.6-10.4-1.4-15.5-2.3-2.3-.4-3.4.4-3.6 2.7-.1 1.5-.3 3-.3 4.5-.2 9.1-.3 18.2-.6 27.3-.4 12.8-1 25.6-1.2 38.4-.1 1.6 1.4 4.1 2.5 4.3z"/><path class="st3" d="M449.7 243.8c1.4.1 2.4.2 3.5.3 8.9.9 17.8 1.6 26.6 2.8 12.8 1.6 25.5 3.6 38.3 5.4l30.6 4.2c5.3.8 10.6 1.7 15.9 2.5 2.2.3 3.7.1 3.9-2.8.5-9.3 1.2-18.6 1.7-27.9.7-12.3 1.2-24.6 2-36.9.8-12.8 1.8-25.7 2.8-38.7-1.5-.2-2.9-.3-4.4-.6-7.4-1.2-14.9-2.3-22.3-3.5-5.8-1-11.6-2.3-17.4-3-5.3-.7-10.8-.7-16.1-1.3-6-.7-11.9-1.8-17.9-2.6-3.8-.5-7.7-.5-11.5-1s-7.6-1.4-11.5-2c-6.2-.9-12.5-1.5-18.7-2.6-3-.5-3.9-.1-3.8 3.1.1 8.9 0 17.7-.2 26.6-.1 5.4-.5 10.7-.6 16.1 0 8.3.4 16.6.3 25-.3 12-.8 24.3-1.2 36.9zm69-87.3c.2-2.9 1.4-3.7 4.3-3.3 9.4 1.4 18.9 2.5 28.3 3.8 5.3.7 5.6 1.4 5.2 6.6-1.5 18.5-2.9 37-4.2 55.5-.6 8.4-1.1 16.8-1.6 25.2-.2 2.7-1.2 3.9-4.2 3.5-9.3-1.3-18.6-2.2-27.9-3.6-1.4-.2-3.2-2-3.6-3.5-.6-1.9-.2-4.1-.2-6.2h-.3c1.3-25.9 2.8-51.9 4.2-78zm-53.3 43.8c.5-11.9.9-23.9 1.3-35.8.2-4.1.4-8.3.7-12.4.3-4.5 1.4-5.2 5.8-4.6 8.3 1 16.7 2.1 25 2.9 3.1.3 4.4 1.6 4.4 4.7-.1 7.4-.2 14.9-.2 22.3v12.8h-.2c-.5 15.4-.9 30.9-1.4 46.3-.1 4.3-1.8 5.6-6 5-8.8-1.2-17.7-2.5-26.6-3.5-3.1-.3-4.4-1.6-4.3-4.7.6-11 1.1-22 1.5-33zM713 377.9c-2.3-1.3-4.3-2.4-6.2-3.7-.7-.5-1.1-1.5-1.7-2.1-1.1-1-2.8-1.5-3.3-2.7-1.2-2.8-3-3.6-5.6-2.8-.4 6.8-.7 13.5-1.1 20.9 8.4-.9 15.9-1.6 24-2.5-2.6-2.9-4.5-5.2-6.1-7.1z"/><path class="st3" d="M904 209.3c-.9-7.4-2.5-14.7-4.1-21.9-.3-1.2-2.4-2.8-3.6-2.7-4 .3-8.1.9-11.9 2.1-5.9 1.7-11.7 3.9-17.4 6.1-7.4 2.8-15 5.2-22.1 8.7-7.4 3.6-14.4 8.1-21.3 12.4-5.3 3.3-10.6 6.8-15.5 10.6-4.1 3.2-7.9 7-11.6 10.7-3 2.9-6 5.8-8.4 9.1-4.4 6.1-8.4 12.4-12.4 18.7-3.3 5.2-6.7 10.4-9.5 15.8-3.1 5.8-5.7 12-8.9 18.9-1-5.8-1.8-10.6-2.8-15.4-3.4-16.4-11.9-30-22.8-42.3-4-4.6-9-8.4-13.6-12.4-3.2-2.7-6.6-5.4-10.1-7.7-4.8-3.1-9.5-6.3-14.7-8.7-7.3-3.4-14.4-7.2-22.5-9-5.8-1.3-11.3-3.6-17.2-2.5-.2 1.4-.3 2.6-.6 3.8-1.2 4.5-2.9 9-3.6 13.5-1.3 9.1-2.6 18.3-2.8 27.5-.2 8.7.9 17.3 1.7 26 .1 1 1.1 2.4 2 2.7 4.6 1.2 9.2 2.1 13.9 2.9 10.5 1.8 21.1 3.4 31.6 5.3 4.8.9 7.1 4.2 6.7 9-.4 4.9-.9 9.9-1.4 14.8-.2 2-.9 3.9-1 5.8-.4 7.5.3 15.3-1.1 22.6-1.5 7.9.9 12.5 7 17.2 13.3 10.5 26 21.8 38.8 32.8 2 1.7 3.4 3.9 5.4 6.2-1.9.9-3 1.5-4.2 1.9-14.1 5-28.5 9.3-43.3 11.5-4.7.7-9.5.6-14.3.9-3.7.2-7.4.4-11.1.7-4.3.3-8.6.9-13 1-4.3.1-8.5-.4-12.8-.4-4.4 0-8.8.5-13.2.3-6.9-.3-13.7-1.1-20.6-1.6-6.1-.5-12.3-.8-18.4-1.3-3.9-.3-7.8-.8-11.6-1.2-3.4-.3-6.7-.6-10.1-1-3.5-.4-6.9-1.1-10.4-1.5-6.1-.8-12.3-1.3-18.4-2.2-3.5-.5-6.8-1.5-10.3-1.8-4.2-.3-8.2.2-12.6-1.5-6-2.2-13-1.9-19.5-2.7-6.6-.8-13.2-1.6-19.8-2.7-9.7-1.7-19.3-4.9-29-5.2-11.9-.3-23-5.1-34.9-4.7-4.1.1-8.4-1.1-12.3-2.5-2.4-.8-4.5-.4-6.7-.7-7.1-.8-14.1-2.6-21.1-3.9-.7-.1-1.6-.3-2 0-3.1 2.3-4.2-.3-5.4-2.1-1.2.6-2.2 1.5-3.1 1.5-4-.4-8.1-.7-12-1.6-5.3-1.2-10.9.1-16.2-2.4-2.3-1.1-5.7-.1-8.6-.2-4.8-.1-9.7-.4-14.5-.5-5.1-.1-10.1-.1-15.2-.4-1.8-.1-3.6-1.4-5.3-1.3-5.1.3-10.2 1.3-15.4 1.4-7.2.2-14.3-.3-21.5-.2-5 .1-10 .8-15 1.2-3.5.3-7 .2-10.5.7-5.6.9-11.1 2.5-16.7 3.4-7.9 1.3-16 1.8-23.8 3.3-6.5 1.3-12.9 3.5-19.3 5.3-9.8 2.7-19.8 4.8-29.4 8.1-7.7 2.7-16.2 5.1-21.3 12-3.6 4.8-6.1 10.5-8.5 16-4 9.1-7.8 18.4-11 27.8-2.9 8.4-6.1 16.8-7.2 25.5-2.4 19.2-3.8 38.5-5.1 57.7-.7 11.3-.4 22.7-.5 34.1 0 3.7-.1 7.4.1 11.1.3 4.6 1.2 9.1 1.2 13.7 0 6.9 1.8 12.5 8.1 16.4 4.9 3.1 9.3 6.8 14.1 10.1 11.2 7.5 22.8 14.2 35.5 18.7 9.1 3.2 18.4 6.3 27.7 8.6 9 2.2 18.1 4.3 27.3 4.9 14.1 1 28.4 1.4 42.5.7 12.1-.5 24.2-2.3 36.1-4.5 10.6-2 21.1-5 31.4-8.3 11.3-3.6 22.5-7.7 33.5-12.2 7.7-3.2 14.9-7.3 22.3-11.2 5.6-2.9 10.2-1.9 11.7 2.8 1.2 3.7-1.5 11.9-4.9 13.6-5.9 3-12 5.6-18 8.4-4.7 2.1-9.4 4.3-14.2 6.3-5.3 2.2-10.5 4.3-15.9 6.1-5.4 1.8-10.9 3.2-16.4 4.7-7.6 2.1-15.1 4.4-22.7 6.3-4.3 1.1-8.7 1.7-13.1 2.5-3.9.7-7.9 0-11.9 1.4-3 1.1-6.5.5-9.9.7-7.8.3-15.7.6-23.5.8-2.5.1-5-.3-7.4-.3-4.1.1-8.3 1-12.4.7-6.5-.5-12.8-1.8-19.3-2.7-3.5-.5-7.2-.2-10.7-1-5.9-1.4-11.8-3.3-17.6-5-7.2-2.1-14.5-4-21.6-6.4-5.3-1.8-9.4-6.1-15.2-6.9-.1 0-.3-.1-.4-.2-5.9-3.4-11.9-6.6-17.6-10.3-4.3-2.8-8.3-6.1-13.7-10.2 1.2 5.3 2.2 9.9 3.2 14.6 1.6 7.5 2.7 15.1 4.9 22.5 3.5 11.7 7 23.6 12 34.6 6.3 13.7 13.3 27.2 21.6 39.8 8.2 12.5 17.8 24.3 27.8 35.5 7.5 8.6 16.2 16.2 25 23.6 8.5 7.2 17.4 14.2 26.9 20.1 14.4 8.9 29.4 16.6 45 23.3 18.7 8 37.7 14.4 57.5 18.6 12.6 2.7 25.3 4.9 38.1 6.4 13.4 1.6 26.8 2.7 40.3 3.1 14.1.4 28.2-.1 42.2-.6 11.3-.5 22.7-1.5 34-2.6 4.4-.4 8.8-1.4 13.2-2.3 12.5-2.4 25.2-4.1 37.5-7.4 13.2-3.5 26.2-7.9 38.9-12.7 15.8-6.1 31.4-12.9 46.9-19.8 5.7-2.6 10.9-6.3 16.3-9.6 6.4-3.8 12.8-7.3 19-11.3 7-4.5 13.9-9.3 20.6-14.2 5.7-4.1 11.6-8.2 16.7-13 8.4-7.8 16.5-16 24.3-24.4 5.6-6 10.9-12.3 15.9-18.9 4-5.2 7.5-10.8 11-16.4 5-8 10.1-16.1 14.6-24.4 6.7-12.3 12.9-24.9 16.9-38.4 2.7-9.1 6.2-17.9 8.6-27 3-11.9 5.6-23.9 7.8-35.9 1.3-7.3 1.8-14.9 2.4-22.3.6-6.9.9-13.9 1.2-20.8.4-8.5 1.1-17 .7-25.5-.4-8.9-1.5-17.8-2.7-26.6-1.4-10.4-3-20.9-4.9-31.2-1.7-9.1-4.2-18-6.3-26.9-3-12.6-1.4-24.9 4-36.6 6.8-14.6 19.5-23.8 31.4-33.7 2.3-1.9 4.7-3.8 7.1-5.6 6.5-4.8 13.2-9.3 19.5-14.3 6.5-5.2 12.7-10.7 19-16.2 4.8-4.3 9.8-8.5 14.1-13.2 4.4-4.8 8-10.4 12.2-15.4 8-9.4 12.9-20.4 16.4-32 3.3-11.1 4.6-22.7 4.2-34.4-.6-5.9-.4-12.5-1.2-19.1zM465.6 620.2c-38 0-68.9-30.7-69.2-68.9-.3-38 31.2-69.3 69.3-69.2 38.1.1 68.9 31.1 69 69.1 0 38-31 69-69.1 69z"/><path class="st3" d="M465.9 493.2c-31.4-.3-58 25.7-57.9 57.6.1 32.7 25.6 57.4 57.5 57.9 31.5.2 57.8-25.8 58-57.5.1-31.5-25.8-57.7-57.6-58zm13.3 90.7c-14.3 7.4-32.6 2.7-43.2-11.1-10.1-13.1-8.8-32.3 2.9-44.8 11.8-12.6 30-14.4 45.8-4.3-11.3 1.7-17.4 7-18 15.5-.6 7.7 4.2 14.5 11.9 16.9 7.6 2.3 14.3-1.2 19.7-10.4 4.4 13.8-3.9 30.3-19.1 38.2z"/><path class="st3" d="M896 0H100C44.8 0 0 44.8 0 100v796c0 55.2 44.8 100 100 100h796c55.2 0 100-44.8 100-100V100C996 44.8 951.2 0 896 0zm28 243.5c-.1 6.9-1.5 13.9-3.3 20.6-1.3 4.8-2.9 9.5-4.6 14.2-.3.9-1.7 1.4-2.9 2.3.1 1.5 2.5 3.7-1.7 5.1-1.7.6-1.8 4.9-3.3 7-4.5 6.6-9.2 13.1-14.1 19.5-4.8 6.1-9.7 12.3-15.1 17.8-5.3 5.4-11.4 10.1-17.3 15-3.7 3.1-7.5 6.2-11.4 9.1-4.3 3.2-8.8 6.1-13.1 9.3-4.1 3.1-7.9 6.4-11.8 9.7-6.5 5.5-13.2 10.7-19.2 16.7-3.4 3.4-5.8 7.9-8.3 12.2-3.8 6.3-6.3 13.2-5.3 20.5.9 6.4 3.2 12.6 4.8 18.9 2.2 8.9 4.5 17.7 6.5 26.6 1.6 7.4 3 14.9 4 22.4 1 7.8 1.9 15.7 2.1 23.6.5 15.8.2 31.6-1.1 47.3 0 .4-.1.7-.1 1.1-2.1 13.4-2.8 27.1-5.6 40.4-2 9.8-4.9 19.4-7.9 28.9-3.4 11.1-6.8 22.2-11.3 32.9-4.8 11.6-10.5 22.9-16.6 34-5.1 9.4-11.4 18.1-17.1 27.2-7 11.2-15.3 21.5-24.6 30.8-8.3 8.3-16.4 16.8-25.1 24.8-5.1 4.7-11.1 8.5-16.6 12.8-6.7 5.2-13.2 10.6-20.1 15.5-3.7 2.6-8.1 4.3-12.1 6.7-3.9 2.3-7.4 5.2-11.4 7.3-8 4.2-16.1 8.1-24.2 12.1-3.8 1.9-7.4 4-11.2 5.7-7.2 3.1-14.5 6-21.9 8.7-15.5 5.7-31.1 11.3-46.8 16.4-.3.1-.6.2-.9.2-13.2 3.1-26.6 5.7-40 8-6.4 1.1-13 1.5-19.5 2.4-3.3.4-6.5 1.4-9.8 1.7-5.9.5-11.8.6-17.8.9-2.2.1-4.3.2-6.5.2-3.5.1-7 .1-10.5.3-1.8.1-3.5.3-5.3.5-.8.1-1.8.7-2.3.5-2.1-1-4.3-.1-6.2-.4-6-1-11.9.9-17.9-.2-3.2-.6-6.7-.3-10-.4-4.2-.1-8.4-.1-12.5-.4-.9-.1-1.7-1.5-1.7-1.5-3.9.1-7.2.5-10.4.2-8.1-.9-16.3-1.8-24.3-3.2-8.8-1.5-17.6-3.8-26.3-5.8-.4-.1-.7-.2-1-.3-10.8-3.4-21.8-5.9-32.5-9.5-8.3-2.8-16.1-6.9-24.4-9.8-.3-.1-.7-.3-1-.4-12.3-5.4-24.2-11.8-36.2-17.9-.1-.1-.3-.1-.4-.2-7.6-4.4-14.5-9.8-21.7-14.8-2.7-1.9-6.1-3.1-8-5.6-3.4-4.2-8.3-6.4-12-10.1-7.2-7.1-14.7-14-21.5-21.4-5.9-6.4-11.3-13.4-16.6-20.3-5-6.6-9.7-13.3-14.3-20.2-9.6-14.5-17.3-30.1-23.8-46.1-3.8-9.2-5.3-19.2-9.1-28.4-4.9-11.9-6.1-24.6-9-37-1.5-6.4-1.7-13.1-2.5-19.7-1.1-9-2.3-17.9-3.1-26.9-.4-4.8-.1-9.6-.2-14.5 0-1.3-.8-2.5-1.2-3.8v-19.1c.5-1.8 1.3-3.6 1.4-5.5.3-7.9.3-15.8.6-23.6 1-23.7 3.5-47.3 10.1-70.2 2.8-9.8 6.8-19.3 11-28.5 4.1-8.9 8.9-17.6 14.4-25.8 5.1-7.6 16.3-12.1 20.9-16.2.5-.5 1.2-.8 1.9-1 20.6-5.3 41.2-10.4 61.8-15.3 4.6-1.1 9.3-1.6 15.1-2.5 0-3.9.1-8.5 0-13.1-.2-5.8-.6-11.5-1-17.3-.4-4.8-1-9.5-1.5-14.2-.3-3.6-.4-7.1-.6-10.7 0-.7.2-1.4.2-2-.4-7.9-.6-15.9-1.2-23.8-.7-8.3-2-16.6-2.6-24.9-.4-5.8-.1-11.7-.3-17.5-.1-3.2-1-6.3-1.3-9.5-.3-2.9-.2-5.8-.3-8.7-.4-7.2-.9-14.3-1.2-21.5-.4-9.3-.7-18.5-.8-27.8 0-.7 1.3-1.9 2.2-2.2 7.5-1.8 15-3.4 22.5-5.1 8.9-2 17.8-4.3 26.8-6.1 10-2 20.1-3.7 30.2-5.5 22.4-3.9 44.8-8 67.2-11.7 18.1-3 36.4-5.6 54.5-8.4 13.1-2 26.1-4.6 39.2-6 7.4-.8 14.9.1 22.4.7 7.8.6 15.6 1.3 23.2 2.9 13.5 2.9 27.4 3.1 40.9 5.7 9.9 1.9 20.1 2.4 30.1 3.8 10.2 1.5 20.4 3.3 30.8 5-.5 9-.9 17.5-1.3 25.9-.4 7.8-1.1 15.7-1.4 23.5-.3 7.6-.2 15.2-.6 22.8-.2 3.1-1.8 6.2-2 9.4-.2 3.4.9 6.9.8 10.3-.2 7.6-.9 15.2-1.4 22.7-.2 2.7-.8 5.4-.4 8 .2 1.3 2 3.1 3.3 3.3 6.4 1.3 12.9 2.3 19.4 3.3 7 1.1 14 2.3 21.5 3.5-.7-7.1-1.6-14-1.9-20.9-.2-5.3.5-10.7 1-16 .5-5.6 1.1-11.3 2.2-16.8.8-4 2.7-7.8 3.7-11.7 1.1-4.3 1.8-8.7 2.8-13.1.5-2.3.8-4.8 2.2-6.5 1.3-1.7 3.9-3.7 5.8-3.6 8.4.5 16.9 1.3 25.1 2.8 14.3 2.7 27.7 8.5 40.1 16.1 10.4 6.4 20.5 13.3 28.5 22.6 7.8 9 15.3 18.2 22.9 27.4 2.2-3 4.9-6.7 7.6-10.4 7.4-10.1 15.4-19.6 25.8-26.9 9.4-6.7 18.3-14.3 28.4-19.8 14.9-8 30.2-15.3 46.9-19.3 8.7-2.1 17.3-4.9 26-7 4.9-1.2 10.2-1.5 15.1-1 .1 0 .2.1.2.2 3.7 12.2 6.7 24.6 9.6 37 .1.2.1.5.1.7.7 13.5 1.7 26.8 1.5 39.9z"/><path class="st3" d="M415.6 259.8c-9.4 2-19.2 2.5-28.8 3.6-7.6.9-15.3 1.6-22.9 2.5-8.3 1-16.7 2.1-25 3.2-11 1.3-22 2.5-33 3.9-9.2 1.2-18.4 2.6-27.6 3.9-6.2.9-12.4 1.6-18.6 2.5-8.5 1.2-17 2.9-25.5 3.8-6.9.7-8.6 2.4-7.8 9.2.7 6 1 12 1.3 18.1.3 4.8.4 9.6.8 14.4.7 9 1.5 18.1 2.4 27.6 5.7-.8 11.4-2 17.1-2.4 15-.9 30-1.8 45-1.9 15.4 0 30.8.7 46.2 1.7 11.7.8 23.3 2.4 34.9 3.9 10.6 1.4 21.1 3 31.7 4.5 7.9 1.1 15.9 2.1 24.1 3.2.8-34.3 1.5-68 2.3-101.7-5.6-1.4-10.9-1.2-16.6 0zm-151.8 4.3c7.5-1.1 15.1-1.8 22.6-2.8 16.7-2.2 33.3-4.7 50-6.9 12.8-1.7 25.6-3.1 38.4-4.6 18.1-2.1 36.2-4.2 54.3-6.5 1-.1 2.4-1.3 2.6-2.2.5-2.4.5-5 .6-7.5.2-5.4.4-10.9.5-16.3.1-8.1 0-16.1.4-24.2.3-6.7 1.2-13.5 1.6-20.2.6-10 1-20 1.3-30.1.1-2.1-.3-4.2-.4-6.7-72.9 11.3-145.5 21.3-216.9 37.7 2.3 31.8 4.6 63.6 6.9 96 13.1-1.9 25.6-3.9 38.1-5.7z"/></g></svg>