<svg xmlns="http://www.w3.org/2000/svg" viewBox="0 0 1000 1000"><path d="M500 584c-47.1 0-94.3-17.9-130.2-53.8L161.6 322v369.7c0 13.8 11.2 25 25 25h626.8c13.8 0 25-11.2 25-25V322L630.2 530.2C594.3 566.1 547.1 584 500 584z"/><path d="M900 0H100C44.8 0 0 44.8 0 100v800c0 55.2 44.8 100 100 100h800c55.2 0 100-44.8 100-100V100c0-55.2-44.8-100-100-100zm-11.6 691.7c0 41.4-33.6 75-75 75H186.6c-41.4 0-75-33.6-75-75V308.3c0-41.4 33.6-75 75-75h626.8c41.4 0 75 33.6 75 75v383.4z"/><path d="M594.8 494.8l211.5-211.5H193.7l211.5 211.5c52.3 52.3 137.3 52.3 189.6 0z"/></svg>