<svg xmlns="http://www.w3.org/2000/svg" viewBox="0 0 1000 1000"><style>.st0{display:none}.st1,.st2{display:inline;fill:#ce6219}.st2{fill:none;stroke:#000;stroke-miterlimit:10}.st3{fill:#fff}</style><g id="black_x5F_bg" class="st0"><path class="st1" d="M-2-2H998V998H-2z"/></g><g id="guide_x5F_path" class="st0"><path class="st2" d="M74 31h848v934H74z"/></g><g id="Layer_4"><path class="st3" d="M413.7 705c-3.3-.8-6.6-1.4-9.9-2.2-1.7-.4-3.7-.7-5-1.7-6.4-5-13.7-5.8-21.4-5.3-.8.1-1.5.5-3 1 14.1 6.4 27.1 13.4 42.9 9.6-1.2-.4-2.4-1.1-3.6-1.4zm-8.9 46.4c-4.8-5.8-22.9-13.5-26.6-11.5 3.3 6.5 18.5 13.2 26.6 11.5zm-5.4 50.3c.5-.2 1.1-.3 1.6-.5.4-1.7.9-3.4 1.3-5.1-1.7-.3-3.4-.9-5-.9-.9 0-1.7 1.1-2.5 1.7 1.5 1.6 3 3.2 4.6 4.8zm10.8-58.1c-.8-1.1-1.4-2.9-2.4-3.1-1.8-.5-3.8-.1-5.7 0-.1.6-.1 1.1-.2 1.7 2.4.8 4.8 1.6 7.2 2.5.4-.5.7-.8 1.1-1.1zm-2.5 24.3v-1.3c-3.7-.2-7.4-.4-11.1-.7 3.6 4.3 8.2 4.7 11.1 2zm-40.1-2c-3.4-1-7.8.1-10.9 2.8 4.2 2.4 9.5 1.8 10.9-2.8zm4.6-19.1c.1-.2-.9-1.6-1.5-1.7-2.5-.3-5.1-.4-7.7-.5-.1.6-.2 1.3-.4 1.9 2.5.8 4.9 1.9 7.4 2.4.6.1 1.7-1.2 2.2-2.1zm-13.4-57.9c-7.2-4.8-14.4-8.3-22.9-9.8 2.6 5.7 15.2 11 22.9 9.8zm20.8 31.2c2.8 5.8 16.2 10.7 20.9 8-3-3.7-15.4-8.5-20.9-8zm-96.5-127.3c2.9.8 4.2-.7 2.9-3.5-1.4-3.2-3.2-6.2-5.1-9.1-1.5-2.3-3.1-5-5.4-6.3-3.9-2.3-6.2-5.6-7.4-9.7-1.1-3.8-1.8-7.7-2.7-11.5-1.1-4.5-1.9-9.1-3.5-13.4-1.5-4.1-4.6-4.8-7.9-3 1.9 5 4 9.8 5.5 14.9 1.1 3.7-.8 5.5-4.6 5.4-1.2 0-2.5-.2-3.6-.6-5.3-2.1-10.6-4.4-16-6.4-3.5-1.3-7-2.6-10.6-3.1-3.8-.6-5.6 1.5-4.2 5.1 1.8 4.4 4.2 8.6 6.5 13.1-.1.1-.5.6-1.3 1.5 1.8 1 3.3 1.9 4.9 2.7 6.8 3 13.7 5.8 20.4 9 7.7 3.7 15.2 7.9 22.9 11.6 3 1.3 6.1 2.5 9.2 3.3zm108.3 121.6c.7 0 1.4-.8 2.1-1.3-.5-.7-.8-1.8-1.4-2-3.1-1.3-6.3-2.3-9.4-3.4-1.7-.6-3.4-1-5-1.9-4.9-2.7-9.7-5.7-14.7-8.1-2.8-1.4-6.1-1.9-9.2-2.8-.2.3-.4.7-.6 1 .2.5.3 1.1.7 1.4 7.7 5.6 13.9 13.6 23.8 15.7 4.5 1 9.2 1.1 13.7 1.4zm-83.7-34.2c-3.8-2.7-11.5-4-14.6-2.5 4.8 1.6 8.9 5 14.6 2.5zm-70.2-66.9c4.9 2.7 9.7 5.4 14.6 8.2-2.8-6.1-10-10.3-14.6-8.2zM218.9 597c1 3.1 5.8 7 10.9 8.9-1.5-5.8-6.5-9.8-10.9-8.9zm207.6 174.7c-2.7-1.9-7.9-1.5-10.9 1.4 4 1.6 7.7 3.1 11.5 4.6 1.5-3.6 1.3-4.7-.6-6zm-70.8-112.3c-.1-.1-1 1.1-1.5 1.7 1.2.6 2.4 1.2 3.7 1.9.3-.4.6-.9.9-1.3-1.1-.8-2-1.6-3.1-2.3zm-30 26.8c-4.4-1.2-8.3-2.3-12.2-3.4 3.2 4.8 8.8 6.4 12.2 3.4zm49-15.2l-3.9-3c-.3.6-.9 1.5-.8 1.6 1.1 1.1 2.3 2 3.5 3 .4-.5.8-1 1.2-1.6zm-46.5 4c-3.5-3.2-7.1-6.4-10.7-9.7 2.4-5 2.1-6.9-1.7-10.7-2.1-2.1-4.4-3.9-6.6-5.8-2.5-2.2-4-4.7-1.4-7.6-5.4-3.7-10.6-7.3-15.7-10.9.2-.5.4-1 .5-1.5h11.9c-2.2-1.9-4.5-3-6.4-4.5-1.3-1-3.1-2.7-3.1-4 .1-1.2 2.2-2.5 3.7-3.3 2.1-1.1 4.4-1.7 6.5-2.8 1.3-.6 2.4-1.7 4.2-2.9-1.5-.6-2.2-1-2.9-1.2-6.4-1.9-12.8-3.8-19.2-5.5-3.5-.9-7-1.7-10.6-2.3-1.2-.2-2.5.4-3.8.6.5 1.3.8 2.7 1.6 3.8 1 1.4 2.5 2.5 4.2 4.2-4.3-1.5-7.9-2.7-12.5-4.2.9 3.5 1.4 5.8 2.1 8.3-3.5-.4-6.5-.7-10.3-1.2 3.7 6.3 10.2 8.8 13.2 15.4-3-.2-5.3-.3-8-.5 7.6 6.5 15.6 11.8 22.1 18.8l-.6.9c-5.3-2.5-10.6-4.9-16-7.4-.3.3-.6.5-.8.8.9 1.4 1.6 3 2.7 4.1 1.9 1.6 4 3 6.1 4.2 11.3 6.3 22.7 12.5 34.1 18.7 3.9 2.1 7.8 4.1 11.8 5.9 1.5.7 3.2 1 4.8 1.5.4-.5.6-.9.8-1.2zM373 792h4.3c-.9-1.7-1.4-2.6-1.8-3.4-.4-.1-.8-.1-1.2-.2-.5 1.1-.9 2.3-1.3 3.6zm256.4 28.9c-5.4-1.8-10.5 2.2-11.1 9 4.7-2.2 8.9-4.2 11.1-9zm31.9 8.1c-4.8-.7-13.5 3.8-14.8 7.3-.4 1.1.1 2.5.3 4.6 5.8-3.7 10.6-6.9 14.5-11.9zm-32.9 7.1c2.3-2.1 4.5-4.4 6.6-6.7-.3-.4-.6-.7-.9-1.1-3.5 0-6.3 1.7-8.4 4.3-.4.5-.3 2.1.2 2.7.4.7 2.1 1.2 2.5.8z"/><path class="st3" d="M370.5 438c0-.6.1-1.1.1-1.7.9-11.8 2.1-23.6 2.5-35.4.2-5.3-1-10.7-2.1-16-.6-3.1-2.6-5.6-5.6-4.6 1.5-11 3.5-22.1 4.5-33.3.9-9.1.6-18.3-3.5-26.9-2.6-5.4-7-7.1-12.7-5-1.7.6-3.2 1.7-4.8 2.4-2.7 1.1-5.3 2.3-8.1 2.8-5.9 1-11.9 1.3-17.7 2.5-8.7 1.7-17.3 3.6-25.5 7.6 4.4 3.7 10.2 5.1 14.1 10.6-11.6-.6-21.5-4.6-31.8-6.4-.2.4-.5.7-.5 1-2.2 8.6-4.7 10.6-13.5 10.3-5.4-.2-10.7-.8-16.4-1.2.6.4 1 .8 1.4.9 5.4 1.3 6.4 5.9 1.5 9.7-3.8 2.9-8 5.5-12.4 7.3-7.2 2.9-14.7 4.4-22.4 1.2-.6-.2-1.5 0-2.1.3-3.5 1.9-5.6 4.8-4.9 8.8.5 2.7 1.5 5.4 2.7 7.9 2.4 5 5.3 9.7 7.5 14.7 1.9 4.3 1.1 6.3-2.5 9.4-.4.4-1 .8-1.1 1.2-.4 3.9-3.4 4-6.2 4.4-4.4.6-8.8.8-13.1 1.6-5.7 1-8.9 4.4-9.8 10.1-.3 1.8-.4 3.7-.6 5.6-.9-.2-1.4-.3-2-.4-4.9-1.1-7.2.7-6.8 5.7.5 5.6 2.8 10.6 7.3 14 1.6 1.2 5.2 2.1 6.3 1.2 3-2.4 5.4-1.2 8.1-.3 14.7 5 20.7 13.5 20.3 28.9-.1 5.8-.3 11.5-.7 17.3-.1 1.5-.9 4.1-1.6 4.2-1.6.2-4.2-.3-5-1.5-2.9-4.3-6-8.8-7.5-13.7-2.4-7.8.4-11.2 8.3-12.2.1 0 .2-.3.7-1-3.3-4-6.6-8.3-10.3-12.1-2.9-2.9-6.4-3-9.1-.2-5.2 5.4-10.1 11.1-15.2 16.9 4.7 3.5 9.3 6.6 13.6 10 2.3 1.9 4.4 4.2 6.1 6.7 2 3 1.3 5.8-1.6 8-1.5 1.1-3.2 2-5.3 3.3 14.1 2.3 20.4 11.7 23.9 23.8 1 3.5 2 6.9 3.1 10.4 1.9 6.1 7.9 7.5 12.2 2.8.9-1 1.9-2 2.8-2.9 2.2-2.3 4.7-2.4 7.4-1 .7.4 1.5.8 2.2 1.2-.8-1.6-1.9-2.9-3.1-4-6.1-5.7-12.3-11.3-18.4-17-2.2-2.1-4.4-4.3-6.3-6.6-.8-1-1-2.6-1.5-3.9 1.2-.4 2.5-1.1 3.7-1 3.1.2 6.2.8 9.6 1.3-.1-2.3-.1-4.4-.3-6.5-.4-4.2-1.1-8.3-1.4-12.4-.2-2.8-.4-5.8 2.5-7.6 2.1-1.3 4.5-2.3 6.8-3.4 0 .3.2 1.1.2 1.8-.4 4-1.1 8.1-1.4 12.1-.3 4.3-.6 8.6-.4 12.8.3 5.4 2.9 6.6 7.3 3.3 3.4-2.6 6.6-5.4 9.5-8.6 4.9-5.5 7.4-5.6 11.9.4 2.6 3.5 5.5 6.9 7.9 10.6 1.8 2.7 3.4 5.6 4.3 8.7 1.3 4.4-1.1 7.8-5.6 8-3.3.1-6.7-.5-9.9-1.5-3.7-1.2-7.1-3.1-10.7-4.7.8 2.2 1.8 4.4 3.4 5.9 5.7 5.5 11.7 10.6 17.4 16.1 5.2 4.9 8 11 7 18.3-.8 5.9 1.7 10.5 4.9 14.9 2 2.7 4.9 3.4 8.2 2.6 2.4-.6 4.8-1.2 7.3-1.8.9 2.4 1.6 4.7 2.6 6.7.6 1.2 1.8 2 2.8 3.1.8-1.2 1.9-2.3 2.2-3.6.8-3.5 1.2-7 1.8-10.5 11.6 2 19.3 8 22.3 19.6.7 2.7 1.9 5.3 3 7.9 1 2.1 2.2 4.9 5.1 3.4.9-.4.9-4 .3-5.7-2.5-6.5-5.4-12.9-8.1-19.3-.5-1.3-.9-2.6-1.3-3.9 1.3.2 2.1.6 2.7 1.3 6.6 7.2 13.3 14.4 19.8 21.8 1.5 1.7 2.6 4 3.4 6.2 3.1 8.2-.3 14.3-9.5 16.5-4.2 1-8.5 1.2-12.3 1.7 5 4.4 10.2 8.9 15.4 13.4 5 4.3 10.4 8.2 17.3 8.4 4.3.2 7.8 1.8 10.5 4.7 4.1 4.4 8 9.2 11.3 14.2 1.6 2.5 2.3 5.9 2.6 9 .5 4.8-2.2 8.1-6.9 7.6-5.3-.6-11-1.7-15.3-4.4-8.3-5.2-16.8-9.6-26.1-12.5-2.1-.6-4.3-.8-6.4-1.2-.1.3-.3.6-.4.9.8.9 1.4 2 2.3 2.6 4.6 3 9.1 6.4 14 8.7 20.9 9.7 41.9 19 62.8 28.6 19.5 8.9 36.6 20.9 50.5 37.4 4.3 5.1 9.1 9.6 13.8 14.6-4.2 2.2-9.2 2.6-14.2 2.3-7.4-.3-14.6-1.6-20.9-5.8-3.6-2.5-3.3-5.2.7-7 1.6-.7 3.4-1.2 5.1-1.9-7-2.1-13.9-3.5-20.9-4.6-3.8-.6-5.4 1.7-3.7 5.2 2.6 5.5 5.7 10.6 11.8 12.9 3.2 1.2 6.3 2.7 9.6 3.3 9.8 1.6 19.6 2.8 29.5 4.1 4 .5 8 .7 12.8 1.1-3.1 4.5-5.7 8.4-8.6 12.6 1.7.5 2.8.8 4 1.1 1.2.2 2.4.2 4.2.4-1.2.9-1.8 1.5-2.5 1.9-4.5 3.1-4.4 5.2.3 7.8 3.1 1.7 6.2 3.6 9.4 5.2.6.3 1.7.1 2.4-.2 8.5-3.6 12.8-2.3 18 5.5 1.9 2.8 3.7 5.7 5.8 8.3 2.7 3.3 5.8 3.9 9.3 1.6 3.4-2.3 6.3-5.4 9.5-8.1 2.9-2.4 6-4.7 9.1-7 .2.3.4.5.6.8-3.4 4.4-6.9 8.7-10.3 13.1.2.3.5.6.7.8 1.2-.4 2.5-.7 3.6-1.3 3.1-1.6 6.2-3.3 9.1-5.1 6.5-4 13.6-5.1 21.1-4.8 10 .5 19.2 3.8 28.4 7.2 14.2 5.2 27.2 13.6 42.7 15.3 6.8.8 13.5 3.7 20.1 5.7 8.9 2.7 16.9-.4 24.8-3.9 1.8-.8 2-2.2.1-3.2-2-1-4.1-1.9-6.2-2.5-8.7-2.4-17.5-4.3-26.2-6.9-4.6-1.4-9.1-3.4-13.3-5.6-2.9-1.5-2.8-3.6-.7-6.1.4-.4.7-.9 1.4-1.7-9.4 2.2-18.2 2.4-26.9-.3-13.7-4.1-24.2-12.9-33.1-23.7-3.5-4.3-7.5-6.5-12.7-7.9-23.2-6.2-45-15.4-63.5-31.3-7.3-6.2-13.3-13.5-17.9-21.9-.9-1.6-2.1-3.4.7-4.8.4-.2.3-2.4-.3-3.1-2.4-3.2-5-6.4-7.7-9.4-4.2-4.7-9.2-8.8-12.8-14-9.4-13.6-18.3-27.7-27.4-41.5-.7-1-1.2-2.3-2.2-2.9-5.8-3.5-9.6-8.8-13.4-14.2-.8-1.2-1.3-2.5-2-3.8l-1.8 1.2c-.6 3.7-1.2 7.3-1.6 10.3-1.9-4.2-3.5-9-6.1-13-4.2-6.4-9.2-12-18.1-11.2-.1-6 2.7-10.2 7.9-13.1 4.2-2.3 4.4-3.7 1.1-7.2-2.4-2.5-3.6-5.3-4-8.7-.2-1.6-.6-3.1-1-4.6-7-24.3-14.3-48.4-18.5-73.4-.1-.7-.3-1.3-.5-1.9-.9-2.4-2.5-2.8-4.4-1.2-1.3 1.2-2.7 2.5-3.6 4-2.4 4-4.6 8.2-6.9 12.3.3-6.3 1.3-12.6 2.7-18.8.4-1.7 2-3.1 3.1-4.6 1.4 1 2.8 2 4.6 3.3 1.2-3.3 2.8-6.8 3.5-10.5.8-4.1-2.1-6.4-6.1-5.8-.7.1-1.4.4-2.5.6.6-1.6 1-2.9 1.4-4.2 2.5-8.1 3.6-16.3 1.9-24.7-1.1-4.3-2.2-5.1-5.8-4.4zm-99.7-52.8c1.7-.6 3.5 2.9 3.5 7.1-.3.3-1.8 1.7-1.9 1.6-1.9-1.5-3.7-3.3-5.5-5.1 1.2-1.2 2.3-3.1 3.9-3.6zm-22-.7c3.4 7 9.5 10.9 16 14.4 1.6.9 2.8 2.6 4.2 4l-4.5 3c2.4 2.6 5 5.4 7.6 8.2-.3.4-.5.7-.8 1.1-1.9-.8-4-1.3-5.7-2.3-4.4-2.7-8.7-5.5-13-8.4-.7-.5-1.6-1.7-1.4-2.3 1.6-5.7-.8-10.6-2.6-15.7-.3-.8-.5-1.6-.9-2.9.6.5 1 .7 1.1.9zm-7.8 28.3c12.8.9 23.8 6.3 34.3 13.2l-.6 1.5c-11.4-4.4-22.9-8.8-34.3-13.3.2-.5.4-.9.6-1.4zm-5.4 46.9c-2 4.5-6.4 6.2-9.8 2.9-6.7-6.5-12.7-13.5-19-20.4.4-.5.8-1.1 1.2-1.6 4.7 2.9 9.5 5.8 14.2 8.7.3-.3.6-.5.8-.8-.4-5.5-5.2-8.9-7.5-13.8.4.1.8 0 1 .2 3.9 3.2 8.2 5.6 12.9 7.8 6.3 3 8.9 10.9 6.2 17zm-1.3-17c-5.1-4-9.4-9.1-14-13.7-.7-.8-1.2-1.8-1.8-2.9 6-.8 25.3 11.7 28.2 18.4-4.7 1.3-9.2.8-12.4-1.8zm5.9 14.3c1.9-1.1 3.1-1.7 4.2-2.4l1 1c-.6 1-1.1 2.3-1.9 3-.3.2-1.7-.8-3.3-1.6zm4.4 17.8c.3 0 .7 0 1-.1.5 3.2.9 6.5 1.5 10.3-4.5-2.4-5-5.3-2.5-10.2zm-.9-42.3c-6.6-2.2-8.8-8-11.4-13.4-.8-1.7.3-2.9 2.3-2.4 2.1.5 4.3.8 6.1 1.9 8.3 5.2 16.4 10.6 24.5 16.1 1.8 1.2 3 3.2 4.4 4.8-.3.4-.5.8-.8 1.3-2.6-.7-5.3-1.4-7.9-2.3-5.8-1.9-11.4-4.1-17.2-6zm6.6 20.9c.3-.2.6-.5.9-.7 2.2 2.9 4.4 5.9 7.1 9.5-5.1-.5-7-2.9-8-8.8zm15.6 40.4c-.4.2-.9.4-1.3.7-1.7-2.2-3.8-4.3-4.9-6.8-.4-.9 1.2-3 2.2-4.2.2-.3 2.6.5 3.1 1.3 1.5 2.8 2.4 5.8.9 9zm31.5 67.3c-1.2-2-2.2-3.7-3.4-5.8 4.6.2 5.4 1.7 3.4 5.8zm3.5-58.3c-2.1.9-2.4 2.5-2.1 4.4.2 1.1.5 2.2.8 3.3.3.9.7 1.9 1.2 3.2-1.7-1.6-3.1-2.9-4.6-4.2-2.3-2-4.3-1.9-6.3.6-3.6 4.4-4.9 4.3-8.5 0-.5-.6-1-1.2-1.4-1.9-7.6-12.6-12.2-26.3-13.8-40.9-.1-1.2 0-2.5 0-3.7 4.9 11.2 10 22.1 17.1 32l.9-.3c-.3-1.3-.4-2.7-.9-4-2-5.1-4.1-10.2-6.1-15.4-1-2.4-1.8-4.9-2.7-7.4.3-.2.6-.4.9-.7 1.2.7 2.5 1.2 3.5 2.1 9.1 7.9 16.9 16.9 23.7 26.8 2.3 3.5 2 4.4-1.7 6.1zm13.3-35.2c-.2-3.6-.4-7.1-.7-10.7.5 0 .9-.1 1.4-.1.3 3.5.7 7.1 1 10.6-.6.1-1.2.2-1.7.2zm25.2-52.6c1.6 3.4 3.3 6.8 4.9 10.3-.4.2-.9.4-1.3.6-1.6-3.5-3.1-6.9-4.7-10.4.5-.2.8-.4 1.1-.5zm7.7 91.3c-1.5 3.7-4.4 4-6 .4-3-6.5-9.2-11-10.2-18.7-1.2-8.8-1.7-17.5 1-26.1.4-1.4 1.8-2.6 2.8-3.8.9 1.3 2.2 2.5 2.7 4 1 3.1 1.5 6.3 2.3 9.7.7-.1 1.3-.1 2-.2 3.8-.4 5.3.8 5.3 4.6-.1 3.6-.5 7.2-.7 10.8-.2 3.1.4 5.7 4.9 6.1-1.6 4.7-2.5 9.1-4.1 13.2zm14.1-36h-1.1c-2.4-4.8.2-9.4 1.1-14v14zm2.6-106.8c-2.1 7.3-4.3 14.6-6.9 21.8-1 2.7-3 6-6.5 5.5-3.8-.5-5.1-4.1-5.8-7.5-1.4-6.7-.3-13.3 1.4-19.7 1.2-4.4 3-8.7 4.9-12.9.5-1.2 2.2-1.9 3.4-2.9.7 1.2 2 2.3 2.1 3.5.3 2.7.3 5.6-.1 8.3-.7 5-2 9.9-2.8 14.9-.2 1.3.3 2.8.4 4.2 6.1-6.3 4.2-15.4 9.3-21.8.4.1.7.1 1.1.2-.1 2.2.1 4.4-.5 6.4zm87 308.1c6 3.3 18.2 19.6 16.3 26.5-7-1.5-17.5-18.3-16.3-26.5zm-14.3-21.5c-4.1 2.9-7.1-2.6-8.1-9.7 4.1 1.3 7.2 5.2 8.1 9.7zm-29.7-40.6v9c-3.8-3.1-3.8-5.2 0-9zm-16.9-43.4c.9.5 2.2.7 2.8 1.5 4.2 5.5 4.4 11.6 2.7 18.8-3.6-5.7-6.1-11.2-6.5-17.3-.1-1 .6-2 1-3zm-10.7-46.2c.3 0 .6 0 .9-.1v7.2h-.9v-7.1zm-13.8-42.2c.3-6.4-.1-13 3.1-18.9 1.5 6.7-.4 12.8-3.1 18.9zm282.5 348.4c-3.6 2.2-7.3 4.5-10.9 6.7.2.3.4.6.5.9 5 .1 8.2-3 11-6.6-.2-.4-.4-.7-.6-1zm125-60.1v-6.5c-.5-.1-.9-.3-1.4-.4-.6 1.5-1.5 3.1-1.6 4.7-.1.5 1.6 1.3 3 2.2zM436.8 291.5c3.9 2.6 8.7 4.1 10.8 9.1.8 1.9 2.5 1.6 3.4-.6 1.2-3.1.5-6.6-2.4-9.2-3.7-3.4-8.1-5.2-13.8-5.7-.5.2-1.5.6-2.6 1.1.6 1 .9 2.2 1.7 3.1.8.9 1.9 1.5 2.9 2.2z"/><path class="st3" d="M522.4 730c1.8.6 3.6.9 5.8 1.4-.9-3.1-2.7-4.5-5.3-4.3-.6 0-1.5.7-1.7 1.3-.1.4.6 1.4 1.2 1.6zm-11.6-14.2c-.3-2.5.2-5.4-3-5.2-1.1 0-3.1 2.6-2.9 3.7.7 3.1 3.5 1.6 5.9 1.5zm-33 60.9c-3.4-2-10.3-1.3-14 1.5 4.3 4.3 10.6 3.2 14-1.5zM454.2 789c5.9.4 11.7.7 17.6 1.1 0-.4.1-.8.1-1.2-5.9-.5-11.8-.9-17.7-1.4v1.5zm67.7 39.2c4.7-1.2 5.3-2.2 3.8-5.9-3.1 1-4.3 2.9-3.8 5.9zm-90.6-7.4c3 1 5.7 1.8 8.3 2.7.4-.3.8-.5 1.3-.8-.4-1.3-.4-3-1.2-3.7-2-1.7-5.8-.9-8.4 1.8zm89.8 22.9c-4.3-3.5-9.1-5.5-14-6.7-12.3-2.9-24.7-5.2-37.1-7.7-4.3-.9-8.7-1.7-13.8-2.7 8.9 9 55.3 21.2 64.9 17.1zm44.1-20.6c1 .5 2.6.2 3.7-.3 1.6-.8 3-2 4.4-3.1 2.1-1.6 3.7-1.4 4.6 1.3.3 1.1.5 2.3 1.2 3.1.7.8 2 1.5 2.9 1.4 3.5-.6 8.8-7.2 8.8-10.8-.2-1.9-.3-3.8-.5-5.7-.8-6.1-3.8-7.8-9-4.6-4.7 2.9-9.1 6.3-13.3 9.8-1.5 1.3-2.4 3.5-3.1 5.5-.5 1-.3 3.1.3 3.4zm35.4 8.8c3.9.9 9.2-4 9.8-9.8-4.9.9-8.5 3.1-11.3 6.6-1.4 1.6-.6 2.7 1.5 3.2zm11-20.7c-.1-.4-1.5-.8-2.3-.7-5.1.5-9.6 2.4-13.1 6.2-.9.9-1.2 2.3-1.6 3 .1 3 2.5 5.4 3.9 4.4 4.3-3.2 8.4-6.6 12.5-10.1.6-.6.8-2 .6-2.8zM229.4 634.3c-1.7-5.4-6.1-9.6-10.8-10 3.4 3.1 6.8 6.3 10.8 10zm339.3 172l-.6-.9c-3.3 2.2-6.7 4.3-10 6.5 5.1.6 7.8-2.5 10.6-5.6zM348 703.1c-4-1.7-8.3-2.9-12.5-4.2-7.6-2.4-15.1-5.1-22.9-7-3.8-.9-8.1-.8-12.1-.5-4 .3-5 2.9-2.6 6.2 3.3 4.6 6.9 9 13.2 9.6 1 .1 2 .4 2.9.9 6.6 4.1 13.9 5 21.4 5.5 4-.5 8.1-.8 12-1.7 2.6-.6 6.5-1 6.4-4.3-.1-1.5-3.5-3.5-5.8-4.5zM132.9 444.8c-1.4-3.8-2.4-7.2-4-10.2-.6-1.1-2.6-1.5-4-2.2-.6 1.5-1.7 3-1.6 4.4.2 3.9 3.9 7 9.6 8zm30.9-57.6c-.4-.5-1-1.6-1.9-1.9-1.7-.6-3.6-1.2-5.2-.9-2.5.5-6 1.2-6.8 2.9-1.4 3 2.1 4.4 4.3 5.8 3 2.1 9.5-1.6 9.6-5.9zm-41-31c-2.1.6-4.1 1.7-6.1 2.6 1.5 1 3 2.8 4.4 2.7 1.6-.2 3-2.1 5.3-3.9-1.9-.8-2.9-1.6-3.6-1.4zm49.8 202c-.1-.7-.3-1.3-.7-1.8-5.8-8.5-9.7-17.8-12.6-27.6-3-10.1-7.2-19.7-13.8-28-.9-1.1-1-2.9-1.5-4.3 2.5 3.4 4 7.8 9.3 9.1-.2-2.6-.2-4.9-.7-7.1-3.2-12.8-8.6-24.7-15.5-35.8-.6-1-1.7-1.7-2.6-2.6-.3.2-.5.3-.8.5 1.2 11.4 7.1 21.5 9.5 32.6-.8-1.2-1.7-2.3-2.4-3.5-3.4-5.7-6.6-11.5-10.2-17.1-1.2-1.9-3-3.3-4.6-4.9l-.9.6c.1 1-.1 2 .2 2.9 1.8 5.2 3.5 10.5 5.7 15.5 3.9 8.7 8.2 17.3 12.3 26 4.1 8.9 7.8 18 12.3 26.7 4.2 7.5 9.6 14.1 17 18.8z"/><path class="st3" d="M131.6 324.3c-2.2.9-4.6 1.6-6.7 2.8-5 2.7-6.6 7.1-3.6 11.9 5.7 9.1 14 14.6 24.8 15.6 5.6.5 8.3-2.7 7.9-8.4-.1-1.4-.3-2.8-.5-4.3 3.2-.3 6.2-.4 9.1-.8 4.8-.6 9.6-1.6 14.4-2.1 3.8-.4 4.9 1.3 3.5 4.9-.5 1.4-1.1 2.7-2.1 4.8 5.2-1.2 10-1.8 14.3-3.6 10.2-4.2 20.2-8.8 30.2-13.6 11-5.3 21.7-11.3 34-12.7 8.4-1 16.9-.8 25.3-1.8 18.1-2.2 36.3-4.6 53.9-9.5 8.4-2.3 16.7-4.5 25-6.9 11.2-3.4 20.3-9.7 26.2-20.1 2.8-4.9 3.9-10.1 1.8-15.6-1.2-3.1-2.9-4.6-6.4-4.7-15.9-.8-31.8-.4-47.7 1.2-27.1 2.9-53.8 7.8-79.9 15.5-26.5 7.8-52.7 16.7-80 21.5-4.4.8-8.8 1.8-13.2 3-1.1.3-2.8 1.6-2.8 2.4.1 1.2 1.2 2.6 2.3 3.3 2.7 1.7 5.6 3 8.3 4.5 1 .5 1.9 1.3 3.1 2.2-1.6.7-2.7 1-3.7 1.6-1.2.8-3.3 2-3.2 2.9.1 1.3 1.6 2.7 2.9 3.7 2 1.6 4.4 2.7 6.5 4.2 1.4 1 2.4 2.9.5 3.8-2.8 1.4-6.1 3.2-9 2.9-5.1-.6-10.1-2.3-14.9-4.2-10.1-4.1-12.8-9.7-10.1-20.8-2.5.4-4.6.7-6.6 1-11.5 1.9-22.8 4.7-32.6 11.3C94 326 89.7 333.9 92 344.6c1.6 7.2 5.4 13.3 9.8 19.1.4.6 1.5.6 2.4.9-.3-5.3-.8-10-.9-14.7-.1-6.6.5-13.1 3.6-19.1 4.7-8.6 17.3-11.9 24.7-6.5zm207.3-44.5c2.2-5.4 5.6-9.7 11.7-11.1.7-.2 1.6-.3 2.3-.1.9.3 2.1.8 2.3 1.5.2.6-.6 2-1.3 2.3-2.9 1.2-5.8 2.4-8.8 3.2-2 .5-3.2 1-3 3.4.1 1.3-.7 2.6-1 3.9-.4 0-.8.1-1.2.1-.4-1.1-1.3-2.4-1-3.2zm-21.7-11.1c1.2-3.8 4.3-5 7.7-3 4.3 2.5 7 6.3 7.8 11.3.6 3.9-1.3 6.4-5.2 6.1-3.4-.2-6.9-1-10.2-2.2-1-.4-1.3-2.8-1.7-3.9.6-3.2.8-5.8 1.6-8.3zm-34.8 17c-1.5 1-2.5 1.9-3.6 2.3-2.5.9-5.2 1.5-7.8 2.3-2.9.9-5.5 1.1-8.3-.7-3.1-2-6.8-1.4-10.2-.2-2.8.9-5.4 2.2-8.2 3.1-2.2.6-4.4.8-7.3 1.4 5.5-9.1 35.4-14.3 45.4-8.2zm-48.1 8.5c.3.1.6.2.9.4-.6 1.4-1.2 2.9-2 5-2.9-3.6-.6-4.4 1.1-5.4zm-21.6 6.7c3.6-1.9 13.1 1.6 14.5 5.4.3.9-.6 3-1.4 3.3-1.9.8-4.1.9-6.2 1.2-4.5.8-6.8-2.6-9-5.2-1.7-1.9.2-3.7 2.1-4.7zm-12.1.6c.4 4-2 5.2-6.6 3.2 2.6-1.2 4.5-2.2 6.6-3.2zm7.7 11.6c4.4 2.9 7.9 6.7 10 11.7.5 1.2.1 2.8.1 4.1-1.3 0-2.7.2-3.8-.2-1.9-.7-3.7-1.7-5.4-2.7-5-3.1-9.9-6.3-16.1-6 1.9-9.3 7.7-11.8 15.2-6.9zm94.9 434.7c-.7-.1-1.6-.3-2.1-.8-4.7-4.9-9.4-9.8-13.9-14.8-1.2-1.3-2.5-2.9-2.7-4.5-.2-1.6 1-3.3 1.5-5.1-8.5 1.5-14.2-2.6-18.4-9.5-2.8-4.5-5.4-9.1-8.1-13.7-1.8-3-3.8-5.8-8-4.6-.5.1-1.3-.3-1.9-.5-6.7-2.4-11.2-7.1-13.8-13.6-1.9-4.8-3.4-9.8-5-14.7-3.3-10.8-9.4-19.4-19.1-25.4-1-.6-1.8-1.9-2.4-3-2.3-4.5-4-9.4-6.9-13.4-4.8-6.8-10.4-13.1-15.7-19.6-7-8.7-13.2-17.7-16.8-28.4-3.5-10.5-8.9-20-15.1-29-1.3-2-3-3.7-4.5-5.6l-.9.6c.1.5 0 1.1.2 1.6.5 1.6 1 3.2 1.6 4.8 9.4 25.3 22.5 48.7 37.7 71 14.1 20.7 28.3 41.3 40.6 63.2 10.5 18.6 23.3 35.9 40.2 49.4 10.6 8.4 20.4 17.4 29.6 27.2 7.3 7.8 17 11.3 27.3 13 1.5.2 3.8-.2 4.5-1.2.7-1 .2-3.4-.7-4.6-6.6-9.7-15.1-17-27.2-18.8zM164.3 423.4c-2.4-2.7-12.1-4.4-16.1-2.6 3.7 4.1 8.3 5.9 13 7.3 1 .3 2.6-1.4 3.7-2.4.4-.2-.1-1.7-.6-2.3zm-.4-22.5c-1.3-.1-2.7 2.3-4 3.6 1.7.7 3.5 1.5 5.9 2.5-.1-3.3.9-6-1.9-6.1zm-16.6 45.7c3.6 1.8 6.8 3.3 10.4 5-.7-4.8-5.6-7.3-10.4-5zm5.9-13.6c-1.4.5-3.3 1.8-3.5 2.9-.2 1.1 1.2 3.2 2.4 3.8 3.1 1.4 6.5 2.1 10.1 3.2.8-6.5-4.8-11.4-9-9.9zm689.5 383c.1.3 2.7.5 2.9.1.7-1.3.8-2.9 1.1-4.4-.4-.1-.8-.2-1.3-.4-1.9.9-3.3 2.3-2.7 4.7zm17.2 1.6c5 4.2 35.1 3 42.4-1.6-7.3-2.5-37.8-1.3-42.4 1.6z"/><path class="st3" d="M896 0H100C44.8 0 0 44.8 0 100v796c0 55.2 44.8 100 100 100h796c55.2 0 100-44.8 100-100V100C996 44.8 951.2 0 896 0zm24.2 822.9c-.4 1.2-1.1 2.3-1.1 3.5-.1 4.3-2.8 6.2-6.4 7.7-8.7 3.7-18 5-27.2 6.5-10.8 1.7-21.8 3.2-31 9.7-4 2.8-7 3.3-11.7 1.5-10-3.9-20.4-3-30.6.2-10.1 3.1-20.2 6.5-30.3 9.7-8 2.6-16.3 3.3-24.7 3.5-7.7.2-15.4 1.9-23.1 2.7-20 2-40 4.1-60 5.8-7.8.7-15.6.4-23.3 1-19.1 1.3-38.1-.9-57.1-2.4-20.8-1.6-41.6-3.5-62.4-5.8-35.5-4-70.2-11.7-104.1-23.3-26.4-9.1-51.3-21.1-75.1-35.4-34.1-20.4-65.1-44.9-92.8-73.3-12.8-13.1-23.8-28.1-34.9-42.7-41.9-55.1-74.1-115.5-97.8-180.5-7.6-20.8-12.5-42.4-17.6-63.9-6.1-25.8-12.1-51.6-21.7-76.4-1.7-4.4-3.5-8.8-5.7-13-9.9-18.4-7.8-35.9 4.3-52.3 10.2-13.8 24.4-21.6 40.8-26.2 6.7-1.9 13.1-4.9 19.5-7.4 1.2-.5 2.2-1.4 3.1-2.5-6.3.6-12.3 1.9-18 4.8-3.3 1.7-6.6 3.6-10.1 4.5-8.2 2.2-13.7-3.5-12-11.9 1.7-8.2 9.2-15 18.1-16.7 4.6-.9 9.4-1.7 13.7-3.4 12.1-4.9 17.7-16.9 13.9-29.4-.6-2.1-2-4.2-3.5-5.9-2.6-2.9-3.2-5.4-.7-8.4 2.9-3.3 6.3-6.1 9.6-8.9 5.4-4.6 11.5-8.5 16.4-13.5 6.5-6.6 5.8-12.6-1.6-18.3-4.1-3.1-8.1-6-10.8-10.5-.4-.7-.9-1.3-1.3-2-7.2-12.7-3.4-22.7 10.5-27.1 7.3-2.3 14.8-2 21.9 1 10 4.2 13.9 13.4 10.7 24.7-1.1 4-2.7 8-3 12-.4 6.6 3 11.2 9.5 11.8 8.4.8 16.9.2 25.3.5 4.7.1 9.5.3 14 1.3 4.3.9 6.1 3.8 6 8.3-.1 3.1-.7 6.3-1.6 9.3-.6 2.1-.3 3.3 1.2 4.7 6.4 6 14.4 8.3 22.6 9.8 7.6 1.5 15.4 2.6 23 4.2 3.2.7 6.3 1.9 9.2 3.3 5.5 2.7 8.4 7.3 8.6 13.5 0 .8.2 1.5.3 2.7 13.5.6 23.8 8.3 34.4 15.5 7.4 5 15.1 9.1 24.2 9.7.3 0 .7.1 1 .2 18.5 7.6 37.3 14.9 55.5 23.1 8.9 4 16.3 10.5 21.2 19.3 1.1 1.9 1.9 4.1 2.8 6.2-3.6 3.1-7.7 4.1-12.1 4.2-8.9.2-17.1-2.7-25.4-5.3-7.9-2.6-15.9-5.2-23.9-7.4-3-.8-6.3-1-9.4-.8-7.9.7-13.2 6.1-14.2 15.6-.8 7.1-.4 14.4 0 21.6 1.6 24.5 3.4 48.9 5.2 73.3 3.2 42 7.2 83.9 19 124.6 8 27.5 16.8 54.8 32.6 79.2 13 20 27.8 38.7 43.5 56.7 10.3 11.8 20.5 23.8 31.5 34.9 18.7 18.9 40.8 33.4 63.4 47.1 43 26.1 90 40.8 139 50 1.3.3 3.3-.5 4.4-1.5 9.2-9 18.1-18.3 27.4-27.2 5.4-5.2 11.4-9.6 18.6-12 6.3-2.1 12.5-1.8 18.1 2.1.9.7 1.8 2.3 1.7 3.5-.3 5.7-3.5 10.2-6.9 14.4-3.8 4.9-8.1 9.4-11.8 14.4-1.5 2.1-3.4 5.9-2.5 7.4 1.2 1.9 4.9 3.1 7.5 3.2 5.4.3 10.8.1 16.1-.7 8.7-1.3 16.8 1 25 3.2 4.2 1.2 8.5 2.4 12.8 3.3 9 1.9 16.7-1 23.2-7.3 1-.9 1.9-1.9 2.9-2.9.1-.1.2-.1.6-.2 7 7.3 16.2 8.4 25.7 8.3 8.2-.1 16.5-.7 24.7-.9 2.5-.1 5 0 7.4.1 7.4.4 13.4 2.8 15.5 10.9.3 2.1.3 4.6.3 7.1z"/><path class="st3" d="M631.9 859.2c-12.3.7-24.4.7-35.9-4.5-1.2-.5-2.8-.3-4.2-.2-9.2.6-18.5 2.4-27.6 1.8-18-1.2-35.9-3.5-53.8-5.8-8.3-1.1-16.8-1.6-24.7-5.2-8.1-3.7-16.4-6.9-24.7-10.2-28.7-11.3-57.7-22.1-84.4-37.9-4.5-2.7-10-3.5-15.1-5.2-.2.5-.4.9-.7 1.4 1.5 1.2 2.9 2.6 4.5 3.6 14.2 9 28.9 17.1 44.6 23.3 3 1.2 5.6 3.1 8.4 4.7-.1.3-.2.6-.4.8-1-.2-2.1-.4-3.1-.7-8.7-3.5-17.5-6.6-26-10.6-9.8-4.6-19.2-9.9-28.9-14.8-2-1-4.2-1.7-6.3-2.5l-.6 1.2c3.4 2.3 6.8 4.6 10.3 6.8 19.6 12.5 41.2 20.8 62.6 29.5 17.7 7.2 35.7 13.6 54.6 16.5 31.2 4.9 62.5 9.2 93.8 13.2 29.1 3.7 58.3 4.8 87.5 1.1 5.2-.6 10.4-1.6 15.6-2.4 0-.3 0-.6.1-.9-3.3-.9-6.6-2.1-9.9-2.8-11.8-2.5-23.8-.9-35.7-.2zm169.9-41.4c.7.6 1.8 2 2.1 1.8 1.2-.6 2.2-1.7 3.7-2.9-1.1-1.3-1.6-1.9-2.2-2.6-1.2 1.2-2.4 2.4-3.6 3.7zm-106.6 42c-3 .6-5.7 1.1-8.4 1.6 3.3 4.2 7.5 3.6 8.4-1.6zM223.9 574c-1.9.2-3.8.4-5.7.5v2.2h5.8c0-.9 0-1.8-.1-2.7zm511.6 209.2c1.5-.6 2.6-2.3 3.7-3.6.1-.1-1.1-1.2-2.1-2.3-1.9 1.3-3.5 2.5-5.1 3.6 1.2.9 2.7 2.6 3.5 2.3zm-1.4 26.6c-5.5-.4-11.2.7-16.7 1.7-3.6.7-6.4 3.1-7.1 8 4.7.3 8.9.6 13.2.7 5.7.1 11.5-.3 17.2 0 9 .5 18 1.5 27 1.9 4.5.2 9-.5 13.4-1.3 2.8-.5 5.5-1.9 6.9-5.2-4-.4-7.8-.8-11.5-1.2-14.1-1.6-28.2-3.5-42.4-4.6zm-502-625.1c-3.9-3.3-11-4-15.2-1.9-2 1-3.4 2.5-2.9 5.3 6.3.7 12.2.1 18.1-3.4zm-37.8-43.1c2.4-.2 4.8-1.5 3.6-4.4-1.2-3.1-2.7-6.4-4.9-8.7-5.1-5.1-13.2-4.9-18.8 0-6.3 5.4-8.3 14.6-4.4 20.4.9 1.4 2 2.7 3 4.1l1-1c-.8-1.6-1.8-3.1-2.5-4.7-1.8-4.1-.7-6.1 3.7-6.2 2.9-.1 5.9.2 8.8.3 3.5.1 7 .4 10.5.2zm26.2 68.8c1.2 7.6 5.5 13.5 10.9 18.7 4.2 4 8.6 7.8 15.1 7 3.7-.4 5.3-2.2 4.8-5.9-.3-2.4-1.2-4.8-1.7-7.2-.2-.9-.3-2.5.1-2.7.8-.5 2.1-.4 3.1-.2 1.7.5 3.2 1.3 5.6 2.3-1.6-4.2-3.9-6.7-7-8-9.8-4-19.7-7.6-30.4-11.6-.2 3-.8 5.4-.5 7.6zm-33.1 22.2c2-.6 4-2 6-2.1 6.9-.3 13.9-.3 20.8-.2 3.2 0 6.4.3 9.8.4-1.6-5.3-8.3-9.9-12.5-8.7-9.3 2.6-18.5 5.5-27.7 8.4-1.8.6-3.4 1.7-5.1 2.6.2.5.3 1 .5 1.4 2.8-.6 5.6-1.1 8.2-1.8zM182.7 494c2.6 2.9 4.8 2.4 6.7.5 0-.4-.1-.7-.1-1.1l-6.6.6zm12.6-109.2c-3.3-.3-6.6-.7-9.9-.7-1.3 0-2.7.8-4 1.2.9 1.2 1.5 2.8 2.6 3.5 6.3 3.9 12.5 2.2 18.5-2.1 1.7-1.2 3.4-4.2 3.1-6.1-.3-1.8-3-4.4-4.9-4.6-8-1.1-16.1-1.4-24.2-2-.4 0-.8.3-1.2.4-.1.3-.2.5-.3.8l20.4 8.4c0 .4-.1.8-.1 1.2zm28.2-34.4c-.2-.3-.4-.6-.7-.9-1.5.6-2.9 1.2-4.4 1.9 0 .3.1.7.1 1 .9.5 1.9 1 3 1.6.9-1.4 1.4-2.5 2-3.6zm-55 45.5c0 .5-.1 1-.1 1.5 1.8.7 3.5 1.6 5.3 1.9.9.1 1.9-1.1 2.9-1.7-.6-.8-1.3-2.3-1.9-2.3-2.1-.1-4.2.4-6.2.6zm68.4 117.2c-.7.9-1.9 1.8-2 2.7-.3 2.8 1.9 3.1 4.5 3.5-.1-1.6 0-2.9-.4-4-.4-.9-1.4-1.5-2.1-2.2zm91.3 92.3c-.4-6-4.3-9.1-8.8-7.8-.8.2-1.8.8-2 1.5-.2.6.5 1.9 1.1 2.2 3 1.4 6.2 2.6 9.7 4.1zm-127.9-93c-3.3-2.1-9.4-1.7-12.4.7 3.8 4.3 9.6 4.1 12.4-.7zm-29.2-247.6c8-2.2 15.9-5 24.1-6.8 16.8-3.7 33.8-6.7 48.8 4.9-.5-2.9-1.4-5.8-1.5-8.8-.1-1.3.8-3.4 1.8-3.9s3.3 0 4.2.9c2.5 2.5 4.6 5.5 6.8 8.3 1.9 2.4 3.6 5 5.8 7 6.5 6 12.6 4.3 15.3-4.1.3-1 .7-2 .7-3 .1-3.7 0-7.4 0-11 3.9 3.5 7.5 8 13.2 9.8-1.5-5.8-5.7-9.8-8.9-14.4 1.3-2.2 2.6-4.3 3.6-6.5 1-2.3.1-3.9-2.4-4-2.6-.1-5.3-.2-7.7.4-21.6 5.5-43.2 11.1-64.7 16.9-13.3 3.5-26.5 7.3-39.7 11.1-1.7.5-3.2 1.5-4.8 2.3.1.4.3.9.4 1.3 1.7-.1 3.4 0 5-.4z"/></g></svg>