<svg xmlns="http://www.w3.org/2000/svg" viewBox="0 0 1000 1000"><path d="M899.6 0H100.4C45 0 0 45 0 100.4v799.2C0 955 45 1000 100.4 1000h799.2c55.4 0 100.4-45 100.4-100.4V100.4C1000 45 955 0 899.6 0zm24.3 826.2c-.4 1.2-1.1 2.3-1.1 3.5-.1 4.3-2.8 6.2-6.4 7.7-8.7 3.7-18.1 5-27.3 6.5-10.8 1.7-21.9 3.2-31.1 9.7-4 2.8-7 3.3-11.7 1.5-10-3.9-20.5-3-30.7.2-10.1 3.1-20.3 6.5-30.4 9.7-8 2.6-16.4 3.3-24.8 3.5-7.7.2-15.5 1.9-23.2 2.7-20.1 2-40.2 4.1-60.2 5.8-7.8.7-15.7.4-23.4 1-19.2 1.3-38.3-.9-57.3-2.4-20.9-1.6-41.8-3.5-62.7-5.8-35.6-4-70.5-11.7-104.5-23.4-26.5-9.1-51.5-21.2-75.4-35.5-34.2-20.5-65.4-45.1-93.2-73.6-12.9-13.2-23.9-28.2-35-42.9-42.1-55.3-74.4-116-98.2-181.2-7.6-20.9-12.6-42.6-17.7-64.2-6.1-25.9-12.1-51.8-21.8-76.7-1.7-4.4-3.5-8.8-5.7-13.1-9.9-18.5-7.8-36 4.3-52.5 10.2-13.9 24.5-21.7 41-26.3 6.7-1.9 13.2-4.9 19.6-7.4 1.2-.5 2.2-1.4 3.1-2.5-6.3.6-12.3 1.9-18.1 4.8-3.3 1.7-6.6 3.6-10.1 4.5-8.2 2.2-13.8-3.5-12-11.9 1.7-8.2 9.2-15.1 18.2-16.8 4.6-.9 9.4-1.7 13.8-3.4 12.1-4.9 17.8-17 14-29.5-.6-2.1-2-4.2-3.5-5.9-2.6-2.9-3.2-5.4-.7-8.4 2.9-3.3 6.3-6.1 9.6-8.9 5.4-4.6 11.5-8.5 16.5-13.6 6.5-6.6 5.8-12.7-1.6-18.4-4.1-3.1-8.1-6-10.8-10.5-.4-.7-.9-1.3-1.3-2-7.2-12.8-3.4-22.8 10.5-27.2 7.3-2.3 14.9-2 22 1 10 4.2 14 13.5 10.7 24.8-1.1 4-2.7 8-3 12-.4 6.6 3 11.2 9.5 11.8 8.4.8 17 .2 25.4.5 4.7.1 9.5.3 14.1 1.3 4.3.9 6.1 3.8 6 8.3-.1 3.1-.7 6.3-1.6 9.3-.6 2.1-.3 3.3 1.2 4.7 6.4 6 14.5 8.3 22.7 9.8 7.6 1.5 15.5 2.6 23.1 4.2 3.2.7 6.3 1.9 9.2 3.3 5.5 2.7 8.4 7.3 8.6 13.6 0 .8.2 1.5.3 2.7 13.6.6 23.9 8.3 34.5 15.6 7.4 5 15.2 9.1 24.3 9.7.3 0 .7.1 1 .2 18.6 7.6 37.4 15 55.7 23.2 8.9 4 16.4 10.5 21.3 19.4 1.1 1.9 1.9 4.1 2.8 6.2-3.6 3.1-7.7 4.1-12.1 4.2-8.9.2-17.2-2.7-25.5-5.3-7.9-2.6-16-5.2-24-7.4-3-.8-6.3-1-9.4-.8-7.9.7-13.3 6.1-14.3 15.7-.8 7.1-.4 14.5 0 21.7 1.6 24.6 3.4 49.1 5.2 73.6 3.2 42.2 7.2 84.2 19.1 125.1 8 27.6 16.9 55 32.7 79.5 13.1 20.1 27.9 38.9 43.7 56.9 10.3 11.8 20.6 23.9 31.6 35 18.8 19 41 33.5 63.7 47.3 43.2 26.2 90.4 41 139.6 50.2 1.3.3 3.3-.5 4.4-1.5 9.2-9 18.2-18.4 27.5-27.3 5.4-5.2 11.4-9.6 18.7-12 6.3-2.1 12.6-1.8 18.2 2.1.9.7 1.8 2.3 1.7 3.5-.3 5.7-3.5 10.2-6.9 14.5-3.8 4.9-8.1 9.4-11.8 14.5-1.5 2.1-3.4 5.9-2.5 7.4 1.2 1.9 4.9 3.1 7.5 3.2 5.4.3 10.8.1 16.2-.7 8.7-1.3 16.9 1 25.1 3.2 4.2 1.2 8.5 2.4 12.9 3.3 9 1.9 16.8-1 23.3-7.3 1-.9 1.9-1.9 2.9-2.9.1-.1.2-.1.6-.2 7 7.3 16.3 8.4 25.8 8.3 8.2-.1 16.6-.7 24.8-.9 2.5-.1 5 0 7.4.1 7.4.4 13.5 2.8 15.6 10.9-.2 2.4-.2 4.9-.2 7.4z"/><path d="M415.4 707.8c-3.3-.8-6.6-1.4-9.9-2.2-1.7-.4-3.7-.7-5-1.7-6.4-5-13.8-5.8-21.5-5.3-.8.1-1.5.5-3 1 14.2 6.4 27.2 13.5 43.1 9.6-1.3-.4-2.5-1.1-3.7-1.4zm-9 46.6c-4.8-5.8-23-13.6-26.7-11.5 3.3 6.5 18.6 13.2 26.7 11.5zm-5.4 50.5c.5-.2 1.1-.3 1.6-.5.4-1.7.9-3.4 1.3-5.1-1.7-.3-3.4-.9-5-.9-.9 0-1.7 1.1-2.5 1.7 1.5 1.6 3 3.2 4.6 4.8zm10.8-58.3c-.8-1.1-1.4-2.9-2.4-3.1-1.8-.5-3.8-.1-5.7 0-.1.6-.1 1.1-.2 1.7 2.4.8 4.8 1.6 7.2 2.5.4-.5.7-.8 1.1-1.1zm-2.5 24.4v-1.3c-3.7-.2-7.4-.4-11.1-.7 3.6 4.3 8.2 4.7 11.1 2zm-40.2-2c-3.4-1-7.8.1-10.9 2.8 4.1 2.4 9.5 1.8 10.9-2.8zm4.6-19.2c.1-.2-.9-1.6-1.5-1.7-2.5-.3-5.1-.4-7.7-.5-.1.6-.2 1.3-.4 1.9 2.5.8 4.9 1.9 7.4 2.4.6.1 1.7-1.2 2.2-2.1zm-13.5-58.1c-7.2-4.8-14.5-8.3-23-9.8 2.7 5.7 15.3 11 23 9.8zm20.9 31.3c2.8 5.8 16.3 10.7 21 8-3-3.7-15.5-8.5-21-8zm-96.9-127.8c2.9.8 4.2-.7 2.9-3.5-1.4-3.2-3.2-6.2-5.1-9.1-1.5-2.3-3.1-5-5.4-6.3-3.9-2.3-6.2-5.6-7.4-9.7-1.1-3.8-1.8-7.7-2.7-11.5-1.1-4.5-1.9-9.1-3.5-13.5-1.5-4.1-4.6-4.8-7.9-3 1.9 5 4 9.8 5.5 15 1.1 3.7-.8 5.5-4.6 5.4-1.2 0-2.5-.2-3.6-.6-5.3-2.1-10.6-4.4-16.1-6.4-3.5-1.3-7-2.6-10.6-3.1-3.8-.6-5.6 1.5-4.2 5.1 1.8 4.4 4.2 8.6 6.5 13.2-.1.1-.5.6-1.3 1.5 1.8 1 3.3 1.9 4.9 2.7 6.8 3 13.8 5.8 20.5 9 7.7 3.7 15.3 7.9 23 11.6 2.9 1.2 6 2.4 9.1 3.2zM393 717.3c.7 0 1.4-.8 2.1-1.3-.5-.7-.8-1.8-1.4-2-3.1-1.3-6.3-2.3-9.4-3.4-1.7-.6-3.4-1-5-1.9-4.9-2.7-9.7-5.7-14.8-8.1-2.8-1.4-6.1-1.9-9.2-2.8-.2.3-.4.7-.6 1 .2.5.3 1.1.7 1.4 7.7 5.6 14 13.7 23.9 15.8 4.4.9 9.2 1 13.7 1.3zm-84.1-34.4c-3.8-2.7-11.5-4-14.7-2.5 4.9 1.6 9 5 14.7 2.5zm-70.4-67.1c4.9 2.7 9.7 5.4 14.7 8.2-2.9-6.1-10.1-10.3-14.7-8.2zm-18.7-16.4c1 3.1 5.8 7 10.9 8.9-1.5-5.8-6.5-9.8-10.9-8.9zm208.4 175.4c-2.7-1.9-7.9-1.5-10.9 1.4 4 1.6 7.7 3.1 11.5 4.6 1.5-3.6 1.3-4.7-.6-6zM357.1 662c-.1-.1-1 1.1-1.5 1.7 1.2.6 2.4 1.2 3.7 1.9.3-.4.6-.9.9-1.3-1.1-.7-2-1.5-3.1-2.3zM327 689c-4.4-1.2-8.3-2.3-12.2-3.4 3.2 4.8 8.8 6.4 12.2 3.4zm49.2-15.3l-3.9-3c-.3.6-.9 1.5-.8 1.6 1.1 1.1 2.3 2 3.5 3 .4-.5.8-1 1.2-1.6zm-46.7 4c-3.5-3.2-7.1-6.4-10.7-9.7 2.4-5 2.1-6.9-1.7-10.7-2.1-2.1-4.4-3.9-6.6-5.8-2.5-2.2-4-4.7-1.4-7.6-5.4-3.7-10.6-7.3-15.8-10.9.2-.5.4-1 .5-1.5h11.9c-2.2-1.9-4.5-3-6.4-4.5-1.3-1-3.1-2.7-3.1-4 .1-1.2 2.2-2.5 3.7-3.3 2.1-1.1 4.4-1.7 6.5-2.8 1.3-.6 2.4-1.7 4.2-2.9-1.5-.6-2.2-1-2.9-1.2-6.4-1.9-12.9-3.8-19.3-5.5-3.5-.9-7-1.7-10.6-2.3-1.2-.2-2.5.4-3.8.6.5 1.3.8 2.7 1.6 3.8 1 1.4 2.5 2.5 4.2 4.2-4.3-1.5-7.9-2.7-12.6-4.2.9 3.5 1.4 5.8 2.1 8.3-3.5-.4-6.5-.7-10.3-1.2 3.7 6.3 10.2 8.8 13.3 15.5-3-.2-5.3-.3-8-.5 7.6 6.5 15.7 11.8 22.2 18.9l-.6.9c-5.3-2.5-10.6-4.9-16.1-7.4-.3.3-.6.5-.8.8.9 1.4 1.6 3 2.7 4.1 1.9 1.6 4 3 6.1 4.2 11.3 6.3 22.8 12.6 34.2 18.8 3.9 2.1 7.8 4.1 11.8 5.9 1.5.7 3.2 1 4.8 1.5.5-.8.7-1.2.9-1.5zm45 117.5h4.3c-.9-1.7-1.4-2.6-1.8-3.4-.4-.1-.8-.1-1.2-.2-.5 1.1-.9 2.3-1.3 3.6zm257.4 29c-5.4-1.8-10.5 2.2-11.1 9 4.7-2.2 8.9-4.2 11.1-9zm32.1 8.1c-4.8-.7-13.6 3.8-14.9 7.3-.4 1.1.1 2.5.3 4.6 5.8-3.6 10.6-6.9 14.6-11.9zm-33.1 7.2c2.3-2.1 4.5-4.4 6.6-6.7-.3-.4-.6-.7-.9-1.1-3.5 0-6.3 1.7-8.4 4.3-.4.5-.3 2.1.2 2.7.4.7 2.1 1.2 2.5.8zM372 439.8c0-.6.1-1.1.1-1.7.9-11.8 2.1-23.7 2.5-35.5.2-5.3-1-10.7-2.1-16.1-.6-3.1-2.6-5.6-5.6-4.6 1.5-11 3.5-22.2 4.5-33.4.9-9.1.6-18.4-3.5-27-2.6-5.4-7-7.1-12.8-5-1.7.6-3.2 1.7-4.8 2.4-2.7 1.1-5.3 2.3-8.1 2.8-5.9 1-11.9 1.3-17.8 2.5-8.7 1.7-17.4 3.6-25.6 7.6 4.4 3.7 10.2 5.1 14.2 10.6-11.6-.6-21.6-4.6-31.9-6.4-.2.4-.5.7-.5 1-2.2 8.6-4.7 10.6-13.6 10.3-5.4-.2-10.7-.8-16.5-1.2.6.4 1 .8 1.4.9 5.4 1.3 6.4 5.9 1.5 9.7-3.8 2.9-8 5.5-12.4 7.3-7.2 2.9-14.8 4.4-22.5 1.2-.6-.2-1.5 0-2.1.3-3.5 1.9-5.6 4.8-4.9 8.8.5 2.7 1.5 5.4 2.7 7.9 2.4 5 5.3 9.7 7.5 14.8 1.9 4.3 1.1 6.3-2.5 9.4-.4.4-1 .8-1.1 1.2-.4 3.9-3.4 4-6.2 4.4-4.4.6-8.8.8-13.2 1.6-5.7 1-8.9 4.4-9.8 10.1-.3 1.8-.4 3.7-.6 5.6-.9-.2-1.4-.3-2-.4-4.9-1.1-7.2.7-6.8 5.7.5 5.6 2.8 10.6 7.3 14.1 1.6 1.2 5.2 2.1 6.3 1.2 3-2.4 5.4-1.2 8.1-.3 14.8 5 20.8 13.6 20.4 29-.1 5.8-.3 11.5-.7 17.4-.1 1.5-.9 4.1-1.6 4.2-1.6.2-4.2-.3-5-1.5-2.9-4.3-6-8.8-7.5-13.8-2.4-7.8.4-11.2 8.3-12.2.1 0 .2-.3.7-1-3.3-4-6.6-8.3-10.3-12.1-2.9-2.9-6.4-3-9.1-.2-5.2 5.4-10.1 11.1-15.3 17 4.7 3.5 9.3 6.6 13.7 10 2.3 1.9 4.4 4.2 6.1 6.7 2 3 1.3 5.8-1.6 8-1.5 1.1-3.2 2-5.3 3.3 14.2 2.3 20.5 11.7 24 23.9 1 3.5 2 6.9 3.1 10.4 1.9 6.1 7.9 7.5 12.2 2.8.9-1 1.9-2 2.8-2.9 2.2-2.3 4.7-2.4 7.4-1 .7.4 1.5.8 2.2 1.2-.8-1.6-1.9-2.9-3.1-4-6.1-5.7-12.3-11.3-18.5-17.1-2.2-2.1-4.4-4.3-6.3-6.6-.8-1-1-2.6-1.5-3.9 1.2-.4 2.5-1.1 3.7-1 3.1.2 6.2.8 9.6 1.3-.1-2.3-.1-4.4-.3-6.5-.4-4.2-1.1-8.3-1.4-12.4-.2-2.8-.4-5.8 2.5-7.6 2.1-1.3 4.5-2.3 6.8-3.4 0 .3.2 1.1.2 1.8-.4 4-1.1 8.1-1.4 12.1-.3 4.3-.6 8.6-.4 12.9.3 5.4 2.9 6.6 7.3 3.3 3.4-2.6 6.6-5.4 9.5-8.6 4.9-5.5 7.4-5.6 11.9.4 2.6 3.5 5.5 6.9 7.9 10.6 1.8 2.7 3.4 5.6 4.3 8.7 1.3 4.4-1.1 7.8-5.6 8-3.3.1-6.7-.5-9.9-1.5-3.7-1.2-7.1-3.1-10.7-4.7.8 2.2 1.8 4.4 3.4 5.9 5.7 5.5 11.7 10.6 17.5 16.2 5.2 4.9 8 11 7 18.4-.8 5.9 1.7 10.5 4.9 15 2 2.7 4.9 3.4 8.2 2.6 2.4-.6 4.8-1.2 7.3-1.8.9 2.4 1.6 4.7 2.6 6.7.6 1.2 1.8 2 2.8 3.1.8-1.2 1.9-2.3 2.2-3.6.8-3.5 1.2-7 1.8-10.5 11.6 2 19.4 8 22.4 19.7.7 2.7 1.9 5.3 3 7.9 1 2.1 2.2 4.9 5.1 3.4.9-.4.9-4 .3-5.7-2.5-6.5-5.4-13-8.1-19.4-.5-1.3-.9-2.6-1.3-3.9 1.3.2 2.1.6 2.7 1.3 6.6 7.2 13.4 14.5 19.9 21.9 1.5 1.7 2.6 4 3.4 6.2 3.1 8.2-.3 14.4-9.5 16.6-4.2 1-8.5 1.2-12.3 1.7 5 4.4 10.2 8.9 15.5 13.5 5 4.3 10.4 8.2 17.4 8.4 4.3.2 7.8 1.8 10.5 4.7 4.1 4.4 8 9.2 11.3 14.3 1.6 2.5 2.3 5.9 2.6 9 .5 4.8-2.2 8.1-6.9 7.6-5.3-.6-11-1.7-15.4-4.4-8.3-5.2-16.9-9.6-26.2-12.6-2.1-.6-4.3-.8-6.4-1.2-.1.3-.3.6-.4.9.8.9 1.4 2 2.3 2.6 4.6 3 9.1 6.4 14.1 8.7 21 9.7 42.1 19.1 63.1 28.7 19.6 8.9 36.7 21 50.7 37.6 4.3 5.1 9.1 9.6 13.9 14.7-4.2 2.2-9.2 2.6-14.3 2.3-7.4-.3-14.7-1.6-21-5.8-3.6-2.5-3.3-5.2.7-7 1.6-.7 3.4-1.2 5.1-1.9-7-2.1-14-3.5-21-4.6-3.8-.6-5.4 1.7-3.7 5.2 2.6 5.5 5.7 10.6 11.8 13 3.2 1.2 6.3 2.7 9.6 3.3 9.8 1.6 19.7 2.8 29.6 4.1 4 .5 8 .7 12.9 1.1-3.1 4.5-5.7 8.4-8.6 12.7 1.7.5 2.8.8 4 1.1 1.2.2 2.4.2 4.2.4-1.2.9-1.8 1.5-2.5 1.9-4.5 3.1-4.4 5.2.3 7.8 3.1 1.7 6.2 3.6 9.4 5.2.6.3 1.7.1 2.4-.2 8.5-3.6 12.9-2.3 18.1 5.5 1.9 2.8 3.7 5.7 5.8 8.3 2.7 3.3 5.8 3.9 9.3 1.6 3.4-2.3 6.3-5.4 9.5-8.1 2.9-2.4 6-4.7 9.1-7 .2.3.4.5.6.8-3.4 4.4-6.9 8.7-10.3 13.2.2.3.5.6.7.8 1.2-.4 2.5-.7 3.6-1.3 3.1-1.6 6.2-3.3 9.1-5.1 6.5-4 13.7-5.1 21.2-4.8 10 .5 19.3 3.8 28.5 7.2 14.3 5.2 27.3 13.7 42.9 15.4 6.8.8 13.6 3.7 20.2 5.7 8.9 2.7 17-.4 24.9-3.9 1.8-.8 2-2.2.1-3.2-2-1-4.1-1.9-6.2-2.5-8.7-2.4-17.6-4.3-26.3-6.9-4.6-1.4-9.1-3.4-13.4-5.6-2.9-1.5-2.8-3.6-.7-6.1.4-.4.7-.9 1.4-1.7-9.4 2.2-18.3 2.4-27-.3-13.8-4.1-24.3-13-33.2-23.8-3.5-4.3-7.5-6.5-12.8-7.9-23.3-6.2-45.2-15.5-63.8-31.4-7.3-6.2-13.4-13.6-18-22-.9-1.6-2.1-3.4.7-4.8.4-.2.3-2.4-.3-3.1-2.4-3.2-5-6.4-7.7-9.4-4.2-4.7-9.2-8.8-12.9-14.1-9.4-13.7-18.4-27.8-27.5-41.7-.7-1-1.2-2.3-2.2-2.9-5.8-3.5-9.6-8.8-13.5-14.3-.8-1.2-1.3-2.5-2-3.8l-1.8 1.2c-.6 3.7-1.2 7.3-1.6 10.3-1.9-4.2-3.5-9-6.1-13.1-4.2-6.4-9.2-12-18.2-11.2-.1-6 2.7-10.2 7.9-13.2 4.2-2.3 4.4-3.7 1.1-7.2-2.4-2.5-3.6-5.3-4-8.7-.2-1.6-.6-3.1-1-4.6-7-24.4-14.4-48.6-18.6-73.7-.1-.7-.3-1.3-.5-1.9-.9-2.4-2.5-2.8-4.4-1.2-1.3 1.2-2.7 2.5-3.6 4-2.4 4-4.6 8.2-6.9 12.3.3-6.3 1.3-12.7 2.7-18.9.4-1.7 2-3.1 3.1-4.6 1.4 1 2.8 2 4.6 3.3 1.2-3.3 2.8-6.8 3.5-10.5.8-4.1-2.1-6.4-6.1-5.8-.7.1-1.4.4-2.5.6.6-1.6 1-2.9 1.4-4.2 2.5-8.1 3.6-16.4 1.9-24.8-.7-4.4-1.8-5.2-5.4-4.5zm-100.1-53.1c1.7-.6 3.5 2.9 3.5 7.1-.3.3-1.8 1.7-1.9 1.6-1.9-1.5-3.7-3.3-5.5-5.1 1.2-1.1 2.3-3.1 3.9-3.6zm-22.1-.7c3.4 7 9.5 10.9 16.1 14.5 1.6.9 2.8 2.6 4.2 4l-4.5 3c2.4 2.6 5 5.4 7.6 8.2-.3.4-.5.7-.8 1.1-1.9-.8-4-1.3-5.7-2.3-4.4-2.7-8.7-5.5-13.1-8.4-.7-.5-1.6-1.7-1.4-2.3 1.6-5.7-.8-10.6-2.6-15.8-.3-.8-.5-1.6-.9-2.9.6.5 1 .7 1.1.9zm-7.8 28.5c12.9.9 23.9 6.3 34.4 13.3l-.6 1.5c-11.4-4.4-23-8.8-34.4-13.4.2-.5.4-.9.6-1.4zm-5.5 47c-2 4.5-6.4 6.2-9.8 2.9-6.7-6.5-12.8-13.6-19.1-20.5.4-.5.8-1.1 1.2-1.6 4.7 2.9 9.5 5.8 14.3 8.7.3-.3.6-.5.8-.8-.4-5.5-5.2-8.9-7.5-13.9.4.1.8 0 1 .2 3.9 3.2 8.2 5.6 13 7.8 6.2 3.2 8.9 11.1 6.1 17.2zm-1.3-17c-5.1-4-9.4-9.1-14.1-13.8-.7-.8-1.2-1.8-1.8-2.9 6-.8 25.4 11.7 28.3 18.5-4.6 1.3-9.1.8-12.4-1.8zm6 14.3c1.9-1.1 3.1-1.7 4.2-2.4l1 1c-.6 1-1.1 2.3-1.9 3-.3.2-1.7-.8-3.3-1.6zm4.4 17.9c.3 0 .7 0 1-.1.5 3.2.9 6.5 1.5 10.3-4.5-2.4-5-5.3-2.5-10.2zm-.9-42.5c-6.6-2.2-8.8-8-11.4-13.5-.8-1.7.3-2.9 2.3-2.4 2.1.5 4.3.8 6.1 1.9 8.3 5.2 16.5 10.6 24.6 16.2 1.8 1.2 3 3.2 4.4 4.8-.3.4-.5.8-.8 1.3-2.6-.7-5.3-1.4-7.9-2.3-5.9-1.8-11.5-4.1-17.3-6zm6.6 21c.3-.2.6-.5.9-.7 2.2 2.9 4.4 5.9 7.1 9.5-5.1-.4-7-2.9-8-8.8zm15.7 40.6c-.4.2-.9.4-1.3.7-1.7-2.2-3.8-4.3-4.9-6.8-.4-.9 1.2-3 2.2-4.2.2-.3 2.6.5 3.1 1.3 1.5 2.8 2.4 5.8.9 9zm31.6 67.6c-1.2-2-2.2-3.7-3.4-5.8 4.6.1 5.4 1.6 3.4 5.8zm3.5-58.6c-2.1.9-2.4 2.5-2.1 4.4.2 1.1.5 2.2.8 3.3.3.9.7 1.9 1.2 3.2-1.7-1.6-3.1-2.9-4.6-4.2-2.3-2-4.3-1.9-6.3.6-3.6 4.4-4.9 4.3-8.5 0-.5-.6-1-1.2-1.4-1.9-7.6-12.7-12.2-26.4-13.9-41.1-.1-1.2 0-2.5 0-3.7 4.9 11.2 10 22.2 17.2 32.1l.9-.3c-.3-1.3-.4-2.7-.9-4-2-5.1-4.1-10.2-6.1-15.5-1-2.4-1.8-4.9-2.7-7.4.3-.2.6-.4.9-.7 1.2.7 2.5 1.2 3.5 2.1 9.1 7.9 17 17 23.8 26.9 2.2 3.6 1.9 4.5-1.8 6.2zm13.4-35.3c-.2-3.6-.4-7.1-.7-10.7.5 0 .9-.1 1.4-.1.3 3.5.7 7.1 1 10.6-.6.1-1.2.2-1.7.2zm25.3-52.8c1.6 3.4 3.3 6.8 4.9 10.3-.4.2-.9.4-1.3.6-1.6-3.5-3.1-6.9-4.7-10.4.5-.2.8-.4 1.1-.5zm7.7 91.6c-1.5 3.7-4.4 4-6 .4-3-6.5-9.2-11-10.2-18.8-1.2-8.8-1.7-17.6 1-26.2.4-1.4 1.8-2.6 2.8-3.8.9 1.3 2.2 2.5 2.7 4 1 3.1 1.5 6.3 2.3 9.7.7-.1 1.3-.1 2-.2 3.8-.4 5.3.8 5.3 4.6-.1 3.6-.5 7.2-.7 10.8-.2 3.1.4 5.7 4.9 6.1-1.6 4.9-2.5 9.3-4.1 13.4zm14.2-36.1h-1.1c-2.4-4.8.2-9.4 1.1-14.1v14.1zm2.6-107.2c-2.1 7.3-4.3 14.7-6.9 21.9-1 2.7-3 6-6.5 5.5-3.8-.5-5.1-4.1-5.8-7.5-1.4-6.7-.3-13.4 1.4-19.8 1.2-4.4 3-8.7 4.9-13 .5-1.2 2.2-1.9 3.4-2.9.7 1.2 2 2.3 2.1 3.5.3 2.7.3 5.6-.1 8.3-.7 5-2 9.9-2.8 15-.2 1.3.3 2.8.4 4.2 6.1-6.3 4.2-15.5 9.3-21.9.4.1.7.1 1.1.2-.1 2.2.1 4.5-.5 6.5zm87.3 309.3c6 3.3 18.3 19.7 16.4 26.6-7.1-1.5-17.6-18.4-16.4-26.6zm-14.3-21.6c-4.1 2.9-7.1-2.6-8.1-9.7 4 1.3 7.1 5.2 8.1 9.7zm-29.9-40.8v9c-3.8-3-3.8-5.1 0-9zm-16.9-43.5c.9.5 2.2.7 2.8 1.5 4.2 5.5 4.4 11.6 2.7 18.9-3.6-5.7-6.1-11.2-6.5-17.4-.1-1 .6-2 1-3zM380.7 522c.3 0 .6 0 .9-.1v7.2h-.9V522zm-13.8-42.4c.3-6.4-.1-13.1 3.1-19 1.5 6.8-.4 12.9-3.1 19zm283.6 349.8c-3.6 2.2-7.3 4.5-10.9 6.7.2.3.4.6.5.9 5 .1 8.2-3 11-6.6-.2-.4-.4-.7-.6-1zM776 769.1v-6.5c-.5-.1-.9-.3-1.4-.4-.6 1.5-1.5 3.1-1.6 4.7-.1.5 1.6 1.3 3 2.2zM438.6 292.7c3.9 2.6 8.7 4.1 10.8 9.1.8 1.9 2.5 1.6 3.4-.6 1.2-3.1.5-6.6-2.4-9.2-3.7-3.4-8.1-5.2-13.9-5.7-.5.2-1.5.6-2.6 1.1.6 1 .9 2.2 1.7 3.1.8.9 2 1.5 3 2.2zm85.9 440.2c1.8.6 3.6.9 5.8 1.4-.9-3.1-2.7-4.5-5.3-4.3-.6 0-1.5.7-1.7 1.3-.1.4.6 1.4 1.2 1.6zm-11.6-14.2c-.3-2.5.2-5.4-3-5.2-1.1 0-3.1 2.6-2.9 3.7.6 3.1 3.4 1.6 5.9 1.5zm-33.2 61.1c-3.4-2-10.3-1.3-14.1 1.5 4.4 4.3 10.7 3.2 14.1-1.5zM456 792.2c5.9.4 11.7.7 17.7 1.1 0-.4.1-.8.1-1.2-5.9-.5-11.8-.9-17.8-1.4v1.5zm68 39.3c4.7-1.2 5.3-2.2 3.8-5.9-3.1 1-4.3 2.9-3.8 5.9zm-91-7.4c3 1 5.7 1.8 8.3 2.7.4-.3.8-.5 1.3-.8-.4-1.3-.4-3-1.2-3.7-1.9-1.7-5.8-.9-8.4 1.8zm90.2 23c-4.3-3.5-9.1-5.5-14.1-6.7-12.3-2.9-24.8-5.2-37.2-7.7-4.3-.9-8.7-1.7-13.9-2.7 9 9 55.6 21.2 65.2 17.1zm44.3-20.7c1 .5 2.6.2 3.7-.3 1.6-.8 3-2 4.4-3.1 2.1-1.6 3.7-1.4 4.6 1.3.3 1.1.5 2.3 1.2 3.1s2 1.5 2.9 1.4c3.5-.6 8.8-7.2 8.8-10.8-.2-1.9-.3-3.8-.5-5.7-.8-6.1-3.8-7.8-9-4.6-4.7 2.9-9.1 6.3-13.4 9.8-1.5 1.3-2.4 3.5-3.1 5.5-.4 1-.2 3.1.4 3.4zm35.5 8.8c3.9.9 9.2-4 9.8-9.8-4.9.9-8.5 3.1-11.3 6.6-1.4 1.6-.6 2.7 1.5 3.2zm11.1-20.7c-.1-.4-1.5-.8-2.3-.7-5.1.5-9.6 2.4-13.2 6.2-.9.9-1.2 2.3-1.6 3 .1 3 2.5 5.4 3.9 4.4 4.3-3.2 8.4-6.6 12.6-10.1.6-.6.8-2 .6-2.8zM230.3 636.8c-1.7-5.4-6.1-9.6-10.8-10 3.4 3.1 6.8 6.3 10.8 10zM571 809.5l-.6-.9c-3.3 2.2-6.7 4.3-10 6.5 5.1.7 7.8-2.4 10.6-5.6zM349.4 705.9c-4-1.7-8.3-2.9-12.6-4.2-7.6-2.4-15.2-5.1-23-7-3.8-.9-8.1-.8-12.1-.5-4 .3-5 2.9-2.6 6.2 3.3 4.6 6.9 9 13.3 9.6 1 .1 2 .4 2.9.9 6.6 4.1 14 5 21.5 5.5 4-.5 8.1-.8 12-1.7 2.6-.6 6.5-1 6.4-4.3-.1-1.5-3.5-3.5-5.8-4.5zm-216-259.3c-1.4-3.8-2.4-7.2-4-10.2-.6-1.1-2.6-1.5-4-2.2-.6 1.5-1.7 3-1.6 4.4.2 3.9 3.9 7 9.6 8zm31.1-57.8c-.4-.5-1-1.6-1.9-1.9-1.7-.6-3.6-1.2-5.2-.9-2.5.5-6 1.2-6.8 2.9-1.4 3 2.1 4.4 4.3 5.8 2.9 2.1 9.5-1.6 9.6-5.9zm-41.2-31.2c-2.1.6-4.1 1.7-6.1 2.6 1.5 1 3 2.8 4.4 2.7 1.6-.2 3-2.1 5.3-3.9-1.9-.8-2.9-1.6-3.6-1.4zm50 202.8c-.1-.7-.3-1.3-.7-1.8-5.8-8.5-9.7-17.9-12.7-27.7-3-10.1-7.2-19.8-13.9-28.1-.9-1.1-1-2.9-1.5-4.3 2.5 3.4 4 7.8 9.3 9.1-.2-2.6-.2-4.9-.7-7.1-3.2-12.9-8.6-24.8-15.6-35.9-.6-1-1.7-1.7-2.6-2.6-.3.2-.5.3-.8.5 1.2 11.4 7.1 21.6 9.5 32.7-.8-1.2-1.7-2.3-2.4-3.5-3.4-5.7-6.6-11.5-10.2-17.2-1.2-1.9-3-3.3-4.6-4.9l-.9.6c.1 1-.1 2 .2 2.9 1.8 5.2 3.5 10.5 5.7 15.6 3.9 8.7 8.2 17.4 12.3 26.1 4.1 8.9 7.8 18.1 12.3 26.8 4.4 7.5 9.9 14.1 17.3 18.8zm-41.2-234.8c-2.2.9-4.6 1.6-6.7 2.8-5 2.7-6.6 7.1-3.6 11.9 5.7 9.1 14.1 14.7 24.9 15.7 5.6.5 8.3-2.7 7.9-8.4-.1-1.4-.3-2.8-.5-4.3 3.2-.3 6.2-.4 9.1-.8 4.8-.6 9.6-1.6 14.5-2.1 3.8-.4 4.9 1.3 3.5 4.9-.5 1.4-1.1 2.7-2.1 4.8 5.2-1.2 10-1.8 14.4-3.6 10.2-4.2 20.3-8.8 30.3-13.7 11-5.3 21.8-11.3 34.1-12.8 8.4-1 17-.8 25.4-1.8 18.2-2.2 36.4-4.6 54.1-9.5 8.4-2.3 16.8-4.5 25.1-6.9 11.2-3.4 20.4-9.7 26.3-20.2 2.8-4.9 3.9-10.1 1.8-15.7-1.2-3.1-2.9-4.6-6.4-4.7-16-.8-31.9-.4-47.9 1.2-27.2 2.9-54 7.8-80.2 15.6-26.6 7.8-52.9 16.8-80.3 21.6-4.4.8-8.8 1.8-13.3 3-1.1.3-2.8 1.6-2.8 2.4.1 1.2 1.2 2.6 2.3 3.3 2.7 1.7 5.6 3 8.3 4.5 1 .5 1.9 1.3 3.1 2.2-1.6.7-2.7 1-3.7 1.6-1.2.8-3.3 2-3.2 2.9.1 1.3 1.6 2.7 2.9 3.7 2 1.6 4.4 2.7 6.5 4.2 1.4 1 2.4 2.9.5 3.8-2.8 1.4-6.1 3.2-9 2.9-5.1-.6-10.1-2.3-15-4.2-10.1-4.1-12.9-9.7-10.1-20.9-2.5.4-4.6.7-6.6 1-11.5 1.9-22.9 4.7-32.7 11.3-8.6 5.8-13 13.8-10.6 24.5 1.6 7.2 5.4 13.4 9.8 19.2.4.6 1.5.6 2.4.9-.3-5.3-.8-10-.9-14.8-.1-6.6.5-13.2 3.6-19.2 4.7-8.4 17.4-11.7 24.8-6.3zm208.2-44.7c2.2-5.4 5.6-9.7 11.7-11.1.7-.2 1.6-.3 2.3-.1.9.3 2.1.8 2.3 1.5.2.6-.6 2-1.3 2.3-2.9 1.2-5.8 2.4-8.8 3.2-2 .5-3.2 1-3 3.4.1 1.3-.7 2.6-1 3.9-.4 0-.8.1-1.2.1-.4-1.1-1.3-2.4-1-3.2zm-21.8-11.1c1.2-3.8 4.3-5 7.7-3 4.3 2.5 7 6.3 7.8 11.3.6 3.9-1.3 6.4-5.2 6.1-3.4-.2-6.9-1-10.2-2.2-1-.4-1.3-2.8-1.7-3.9.6-3.2.8-5.8 1.6-8.3zm-35 17c-1.5 1-2.5 1.9-3.6 2.3-2.5.9-5.2 1.5-7.8 2.3-2.9.9-5.5 1.1-8.3-.7-3.1-2-6.8-1.4-10.2-.2-2.8.9-5.4 2.2-8.2 3.1-2.2.6-4.4.8-7.3 1.4 5.4-9.1 35.4-14.3 45.4-8.2zm-48.3 8.6c.3.1.6.2.9.4-.6 1.4-1.2 2.9-2 5-2.9-3.6-.6-4.4 1.1-5.4zm-21.6 6.7c3.6-1.9 13.2 1.6 14.6 5.4.3.9-.6 3-1.4 3.3-1.9.8-4.1.9-6.2 1.2-4.5.8-6.8-2.6-9-5.2-1.9-1.9 0-3.7 2-4.7zm-12.2.6c.4 4-2 5.2-6.6 3.2 2.6-1.2 4.5-2.2 6.6-3.2zm7.7 11.7c4.4 2.9 7.9 6.7 10 11.7.5 1.2.1 2.8.1 4.1-1.3 0-2.7.2-3.8-.2-1.9-.7-3.7-1.7-5.4-2.7-5-3.1-9.9-6.3-16.2-6 2-9.4 7.8-11.9 15.3-6.9zm95.3 436.4c-.7-.1-1.6-.3-2.1-.8-4.7-4.9-9.4-9.8-14-14.9-1.2-1.3-2.5-2.9-2.7-4.5-.2-1.6 1-3.3 1.5-5.1-8.5 1.5-14.3-2.6-18.5-9.5-2.8-4.5-5.4-9.1-8.1-13.8-1.8-3-3.8-5.8-8-4.6-.5.1-1.3-.3-1.9-.5-6.7-2.4-11.2-7.1-13.9-13.7-1.9-4.8-3.4-9.8-5-14.8-3.3-10.8-9.4-19.5-19.2-25.5-1-.6-1.8-1.9-2.4-3-2.3-4.5-4-9.4-6.9-13.5-4.8-6.8-10.4-13.2-15.8-19.7-7-8.7-13.3-17.8-16.9-28.5-3.5-10.5-8.9-20.1-15.2-29.1-1.3-2-3-3.7-4.5-5.6l-.9.6c.1.5 0 1.1.2 1.6.5 1.6 1 3.2 1.6 4.8 9.4 25.4 22.6 48.9 37.9 71.3 14.2 20.8 28.4 41.5 40.8 63.5 10.5 18.7 23.4 36 40.4 49.6 10.6 8.4 20.5 17.5 29.7 27.3 7.3 7.8 17.1 11.3 27.4 13.1 1.5.2 3.8-.2 4.5-1.2.7-1 .2-3.4-.7-4.6-6.6-9.8-15.1-17.1-27.3-18.9zM165 425.1c-2.4-2.7-12.1-4.4-16.2-2.6 3.7 4.1 8.3 5.9 13.1 7.3 1 .3 2.6-1.4 3.7-2.4.4-.2-.1-1.7-.6-2.3zm-.4-22.6c-1.3-.1-2.7 2.3-4 3.6 1.7.7 3.5 1.5 5.9 2.5-.1-3.3.9-6-1.9-6.1zm-16.7 45.9c3.6 1.8 6.8 3.3 10.4 5-.7-4.8-5.6-7.3-10.4-5zm5.9-13.7c-1.4.5-3.3 1.8-3.5 2.9-.2 1.1 1.2 3.2 2.4 3.8 3.1 1.4 6.5 2.1 10.1 3.2.9-6.4-4.8-11.4-9-9.9zm692.3 384.6c.1.3 2.7.5 2.9.1.7-1.3.8-2.9 1.1-4.4-.4-.1-.8-.2-1.3-.4-1.9.9-3.3 2.3-2.7 4.7zm17.3 1.6c5 4.2 35.2 3 42.6-1.6-7.4-2.5-38-1.3-42.6 1.6zm-229 41.8c-12.3.7-24.5.7-36-4.5-1.2-.5-2.8-.3-4.2-.2-9.2.6-18.6 2.4-27.7 1.8-18.1-1.2-36-3.5-54-5.8-8.3-1.1-16.9-1.6-24.8-5.2-8.1-3.7-16.5-6.9-24.8-10.2-28.8-11.3-57.9-22.2-84.7-38.1-4.5-2.7-10-3.5-15.2-5.2-.2.5-.4.9-.7 1.4 1.5 1.2 2.9 2.6 4.5 3.6 14.3 9 29 17.2 44.8 23.4 3 1.2 5.6 3.1 8.4 4.7-.1.3-.2.6-.4.8-1-.2-2.1-.4-3.1-.7-8.7-3.5-17.6-6.6-26.1-10.6-9.8-4.6-19.3-9.9-29-14.9-2-1-4.2-1.7-6.3-2.5l-.6 1.2c3.4 2.3 6.8 4.6 10.3 6.8 19.7 12.6 41.4 20.9 62.9 29.6 17.8 7.2 35.8 13.7 54.8 16.6 31.3 4.9 62.8 9.2 94.2 13.3 29.2 3.7 58.5 4.8 87.9 1.1 5.2-.6 10.4-1.6 15.7-2.4 0-.3 0-.6.1-.9-3.3-.9-6.6-2.1-9.9-2.8-12.1-2.7-24.1-1.1-36.1-.3zM805 821.1c.7.6 1.8 2 2.1 1.8 1.2-.6 2.2-1.7 3.7-2.9-1.1-1.3-1.6-1.9-2.2-2.6-1.2 1.2-2.4 2.4-3.6 3.7zm-107 42.2c-3 .6-5.7 1.1-8.4 1.6 3.3 4.2 7.5 3.6 8.4-1.6zm-473.2-287c-1.9.2-3.8.4-5.7.5v2.2h5.8c0-.9 0-1.8-.1-2.7zm513.7 210c1.5-.6 2.6-2.3 3.7-3.6.1-.1-1.1-1.2-2.1-2.3-1.9 1.3-3.5 2.5-5.1 3.6 1.1.9 2.7 2.6 3.5 2.3zm-1.5 26.8c-5.5-.4-11.2.7-16.8 1.7-3.6.7-6.4 3.1-7.1 8 4.7.3 8.9.6 13.3.7 5.7.1 11.5-.3 17.3 0 9 .5 18.1 1.5 27.1 1.9 4.5.2 9-.5 13.5-1.3 2.8-.5 5.5-1.9 6.9-5.2-4-.4-7.8-.8-11.5-1.2-14.2-1.6-28.4-3.5-42.7-4.6zM233 185.4c-3.9-3.3-11-4-15.3-1.9-2 1-3.4 2.5-2.9 5.3 6.4.8 12.3.2 18.2-3.4zm-37.9-43.2c2.4-.2 4.8-1.5 3.6-4.4-1.2-3.1-2.7-6.4-4.9-8.7-5.1-5.1-13.3-4.9-18.9 0-6.3 5.4-8.3 14.7-4.4 20.5.9 1.4 2 2.7 3 4.1l1-1c-.8-1.6-1.8-3.1-2.5-4.7-1.8-4.1-.7-6.1 3.7-6.2 2.9-.1 5.9.2 8.8.3 3.6 0 7.1.3 10.6.1zm26.3 69c1.2 7.6 5.5 13.6 10.9 18.8 4.2 4 8.6 7.8 15.2 7 3.7-.4 5.3-2.2 4.8-5.9-.3-2.4-1.2-4.8-1.7-7.2-.2-.9-.3-2.5.1-2.7.8-.5 2.1-.4 3.1-.2 1.7.5 3.2 1.3 5.6 2.3-1.6-4.2-3.9-6.7-7-8-9.8-4-19.8-7.6-30.5-11.6-.2 2.9-.8 5.3-.5 7.5zm-33.2 22.3c2-.6 4-2 6-2.1 6.9-.3 14-.3 20.9-.2 3.2 0 6.4.3 9.8.4-1.6-5.3-8.3-9.9-12.6-8.7-9.3 2.6-18.6 5.5-27.8 8.4-1.8.6-3.4 1.7-5.1 2.6.2.5.3 1 .5 1.4 2.8-.6 5.6-1.1 8.3-1.8zM183.4 496c2.6 2.9 4.8 2.4 6.7.5 0-.4-.1-.7-.1-1.1l-6.6.6zm12.7-109.7c-3.3-.3-6.6-.7-9.9-.7-1.3 0-2.7.8-4 1.2.9 1.2 1.5 2.8 2.6 3.5 6.3 3.9 12.6 2.2 18.6-2.1 1.7-1.2 3.4-4.2 3.1-6.1-.3-1.8-3-4.4-4.9-4.6-8-1.1-16.2-1.4-24.3-2-.4 0-.8.3-1.2.4-.1.3-.2.5-.3.8l20.5 8.4c-.1.4-.2.8-.2 1.2zm28.3-34.5c-.2-.3-.4-.6-.7-.9-1.5.6-2.9 1.2-4.4 1.9 0 .3.1.7.1 1 .9.5 1.9 1 3 1.6.9-1.4 1.4-2.5 2-3.6zm-55.2 45.7c0 .5-.1 1-.1 1.5 1.8.7 3.5 1.6 5.3 1.9.9.1 1.9-1.1 2.9-1.7-.6-.8-1.3-2.3-1.9-2.3-2.1-.1-4.2.4-6.2.6zm68.7 117.7c-.7.9-1.9 1.8-2 2.7-.3 2.8 1.9 3.1 4.5 3.5-.1-1.6 0-2.9-.4-4-.4-.9-1.4-1.5-2.1-2.2zm91.6 92.6c-.4-6-4.3-9.1-8.8-7.8-.8.2-1.8.8-2 1.5-.2.6.5 1.9 1.1 2.2 3 1.4 6.2 2.6 9.7 4.1zm-128.4-93.3c-3.3-2.1-9.4-1.7-12.4.7 3.8 4.3 9.6 4.1 12.4-.7zm-29.3-248.6c8-2.2 16-5 24.2-6.8 16.9-3.7 33.9-6.7 49 4.9-.5-2.9-1.4-5.8-1.5-8.8-.1-1.3.8-3.4 1.8-3.9s3.3 0 4.2.9c2.5 2.5 4.6 5.5 6.8 8.3 1.9 2.4 3.6 5 5.8 7 6.5 6 12.7 4.3 15.4-4.1.3-1 .7-2 .7-3 .1-3.7 0-7.4 0-11 3.9 3.5 7.5 8 13.3 9.8-1.5-5.8-5.7-9.8-8.9-14.5 1.3-2.2 2.6-4.3 3.6-6.5 1-2.3.1-3.9-2.4-4-2.6-.1-5.3-.2-7.7.4-21.7 5.5-43.4 11.1-65 17-13.4 3.5-26.6 7.3-39.9 11.1-1.7.5-3.2 1.5-4.8 2.3.1.4.3.9.4 1.3 1.7-.1 3.4 0 5-.4z"/></svg>