<svg xmlns="http://www.w3.org/2000/svg" viewBox="0 0 1000 1000"><path d="M899.6 0H100.4C45 0 0 45 0 100.4v799.2C0 955 45 1000 100.4 1000h799.2c55.4 0 100.4-45 100.4-100.4V100.4C1000 45 955 0 899.6 0zm11.1 540.5C788.4 662.9 666 785.2 543.7 907.6c-10.8 10.8-23.4 17.6-38.7 18.1-15.5.6-29-4.6-40.2-15.6-15.2-15.1-30.2-30.2-45.4-45.3-108.5-108.4-217-217-325.5-325.4-23.3-23.3-23.5-56.4-.2-79.7 83.6-83.7 167.5-167.5 251.2-251.2.6-.6 1.3-1.2 2.3-2.1 1.4 1.3 2.6 2.4 3.7 3.5 29.6 29.6 59.1 59.2 88.9 88.8 2.7 2.7 3 4.7 1.8 8.3-10.2 30.8 3.7 64.4 32.9 79 3.4 1.7 4.4 3.5 4.4 7.3-.1 74.2-.1 148.4 0 222.6 0 3.8-1 5.8-4.6 7.6-24.9 12.6-38.8 38.4-35.7 66.3 2.8 26.4 22.9 49.2 49.4 56 38.3 9.7 76.8-16.8 81-56.2 3-28.1-8.4-49.4-32.2-64.3-2.7-1.7-3.7-3.4-3.7-6.6.1-73.6.1-147.3.1-220.9 0-1.3.2-2.5.3-4.5 1.5 1.3 2.4 2.1 3.3 3l80.7 80.7c2.2 2.1 2.5 3.9 1.6 6.8-13 38.4 11.6 79.2 51.7 85.8 36.8 6.1 71.3-20.5 75.8-57.7 3.8-31.2-17.3-67.1-56.5-72.2-8.6-1.1-17.7.8-26.5 1.8-2.6.3-4.3.1-6.2-1.8-29.5-29.6-59.1-59.2-88.8-88.9-1.9-1.9-2.2-3.5-1.5-6.1 10.4-39-14.6-77.3-54.4-82.5-8.6-1.1-17.7 1.1-26.5 1.6-1.7.1-3.9-.1-5-1.1-31.4-31.3-62.8-62.7-94.1-94.1-.3-.3-.5-.7-1-1.5 1-1.1 2-2.3 3.1-3.4l71.4-71.4c24-23.9 56.8-24 80.7-.1 123.2 123.3 246.2 246.3 369.3 369.4 22.8 22.7 22.7 56.3.1 78.9z"/></svg>