<svg xmlns="http://www.w3.org/2000/svg" viewBox="0 0 1000 1000"><style>.st0{display:none}.st1,.st2{display:inline}.st2{fill:none;stroke:#000;stroke-miterlimit:10}.st3{fill:#fff}</style><g id="black_x5F_bg" class="st0"><path class="st1" d="M-2-2H998V998H-2z"/></g><g id="guide_x5F_path" class="st0"><path class="st2" d="M74 31h848v934H74z"/></g><path class="st3" d="M896 0H100C44.8 0 0 44.8 0 100v796c0 55.2 44.8 100 100 100h796c55.2 0 100-44.8 100-100V100C996 44.8 951.2 0 896 0zm11.1 538.3C785.3 660.2 663.4 782 541.6 903.9c-10.8 10.8-23.3 17.5-38.5 18-15.4.6-28.9-4.6-40-15.5-15.1-15-30.1-30.1-45.2-45.1-108.1-108-216.1-216.1-324.2-324.1-23.2-23.2-23.4-56.2-.2-79.4 83.3-83.4 166.8-166.8 250.2-250.2.6-.6 1.3-1.2 2.3-2.1 1.4 1.3 2.6 2.4 3.7 3.5 29.5 29.5 58.9 59 88.5 88.4 2.7 2.7 3 4.7 1.8 8.3-10.2 30.7 3.7 64.1 32.8 78.7 3.4 1.7 4.4 3.5 4.4 7.3-.1 73.9-.1 147.8 0 221.7 0 3.8-1 5.8-4.6 7.6-24.8 12.5-38.6 38.2-35.6 66 2.8 26.3 22.8 49 49.2 55.8 38.1 9.7 76.5-16.7 80.7-56 3-28-8.4-49.2-32.1-64-2.7-1.7-3.7-3.4-3.7-6.6.1-73.3.1-146.7.1-220 0-1.3.2-2.5.3-4.5 1.5 1.3 2.4 2.1 3.3 3l80.4 80.4c2.2 2.1 2.5 3.9 1.6 6.8-12.9 38.2 11.6 78.9 51.5 85.5 36.7 6.1 71-20.4 75.5-57.5 3.8-31.1-17.2-66.8-56.3-71.9-8.6-1.1-17.6.8-26.4 1.8-2.6.3-4.3.1-6.2-1.8-29.4-29.5-58.9-59-88.4-88.5-1.9-1.9-2.2-3.5-1.5-6.1 10.4-38.8-14.5-77-54.2-82.2-8.6-1.1-17.6 1.1-26.4 1.6-1.7.1-3.9-.1-5-1.1-31.3-31.2-62.5-62.4-93.7-93.7-.3-.3-.5-.7-1-1.5 1-1.1 2-2.3 3.1-3.4L458.9 92c23.9-23.8 56.6-23.9 80.4-.1C662 214.7 784.5 337.2 907.1 459.8c22.6 22.6 22.5 56 0 78.5z" id="Layer_4"/></svg>