<svg xmlns="http://www.w3.org/2000/svg" viewBox="0 0 1000 1000"><path d="M352.5 999.7c38.8-5.6 22.4-89.5 22.4-118.7-125 25-156.2-31.2-168.7-56.2-6.2-12.5-31.2-56.2-50-68.7-18.7-6.2-43.7-31.2 0-31.2 37.5 0 68.7 37.5 75 50 43.7 68.7 118.7 50 143.7 37.5 6.2-31.2 18.7-56.2 31.2-68.7-75-6.2-150-31.2-187.5-93.7-50-81.2-50-212.5 12.5-287.4-6.2-12.5-25-62.5 6.2-131.2 0 0 43.7-12.5 137.5 50 81.2-25 168.7-25 249.9 0 93.7-62.5 137.5-50 137.5-50 25 68.7 12.5 118.7 6.2 131.2 68.7 75 68.7 206.2 12.5 287.4-43.7 62.5-118.7 87.5-187.5 93.7 43.7 37.5 31.2 106.2 31.2 156.2 0 25-12.5 93.7 25 100h257.9c49.5-3.8 88.9-43.7 92-93.3v-813C996.5 41.4 953.1 0 900 0H100C44.8 0 0 44.8 0 100v800c0 52.6 40.6 95.7 92.2 99.7"/></svg>