<svg xmlns="http://www.w3.org/2000/svg" viewBox="0 0 1000 1000"><style>.st0{display:none}.st1{display:inline}.st2{fill:none;stroke:#000;stroke-miterlimit:10}.st3{fill:#fff}</style><g id="black_x5F_bg" class="st0"><path class="st1" d="M-2-2H998V998H-2z"/></g><path class="st2" d="M74 31h848v934H74z" id="guide_x5F_path"/><g id="Layer_1"><path class="st3" d="M683.8 851.9c-1.9.2-2.9.8-3.7 2.6-5.6 13.1-12.1 25.7-19.9 37.6-.3.4-.4.8-.7 1.2 23.1-9.3 40.8-24.8 55.1-45.3-1.2.2-1.9.2-2.6.3-9.4 1.3-18.8 2.6-28.2 3.6zm-294-430.8c-18.4-17.3-38.9-31.7-60.7-44.2-.4-.2-.8-.4-1.4-.6-.2.6-.5 1.1-.6 1.6-3.6 13.6-3.9 27.3-.3 41 2.6 9.7 7.7 17.8 16.4 23.4 9.9 6.3 20.5 10.1 32.2 10.1 11.3 0 21.8-3 31.7-8.3.5-.3 1-.6 1.7-1.1-.7-1-1.2-1.8-1.8-2.6-5-7-10.9-13.3-17.2-19.3zM345.6 854c-.6-1.4-1.4-1.8-2.8-2-7.9-.9-15.7-1.8-23.6-2.8-2.4-.3-4.9-.7-7.3-1.1 13.7 20.5 31.5 36 54.7 45.8-.3-.8-.4-1-.5-1.2-8.1-12.2-14.7-25.3-20.5-38.7zm325.6-57.7c-.5-10.4-5-18.2-14.4-22.9-2.8-1.4-5.7-2.5-8.7-3.4-9.1-2.8-18.5-3.4-28-3.4H405.7c-6.7 0-13.3.4-19.8 1.5-6.7 1.2-13.2 3-19.1 6.6-7.4 4.5-11.2 11.2-12 19.7-.6 6.1.2 12.1 1.7 18.1 2.5 9.8 6.2 19.1 10.1 28.4 1.1 2.5 1.7 5.3 4.4 6.8 5.6 6.8 12.2 12.7 19.3 17.9 16.7 12.2 35.4 20.4 55.3 25.9 20.7 5.7 41.9 8.1 63.3 8.4 19.2.3 38.3-1.2 57.2-5.1 18.1-3.7 35.5-9.5 51.8-18.2 13.9-7.5 26.6-16.6 36.8-28.8.3-.3.5-.8.8-.8 1.2-.2 1.4-1.1 1.8-2 4.2-9.3 7.8-18.7 10.8-28.4 2.2-6.8 3.5-13.4 3.1-20.3zm-197.8 18.6c-1.8 10.2-4.7 20-9.5 29.3-2.5 4.9-5.6 9.5-9.3 13.6-12.3 13.5-29.3 13.5-42 6.3-5.2-3-9.5-7-13.2-11.7-6.3-7.9-10.5-16.9-13.8-26.5-1.5-4.4-2.7-9-4-13.5.1-.1.3-.1.4-.2.3.6.5 1.2.8 1.8 1.8 4.3 4 8.4 6.6 12.2 5.1 7.6 11.1 14.5 18.2 20.3 9.3 7.6 19.9 9.7 31.5 5.9 3.8-1.2 7-3.4 9.7-6.3 9-9.7 16.6-20.5 22.4-32.4.5-1 .9-2 1.3-3.1.4-1 .7-2.1 1-3.1.2 0 .4 0 .6.1-.1 2.4-.3 4.9-.7 7.3zm169.6 2.2c-2.5 9.3-5.8 18.3-10.6 26.6-3.9 6.7-8.5 12.8-14.7 17.5-9.5 7.2-20.1 9.5-31.7 6.1-5.8-1.7-10.6-5.2-14.7-9.6-5.7-6.2-9.7-13.5-12.7-21.3-3.3-8.4-5.6-17.2-6.6-26.2-.1-.9-.1-1.7-.2-3 .5.4.7.5.8.8 1.1 2.7 1.9 5.4 3.2 8 5.5 10.8 12.5 20.6 20.7 29.6 6.2 6.8 14 9.3 22.9 8.6 8-.6 14.9-3.7 20.8-9.2 7.4-7 14.1-14.6 19.2-23.5 1.6-2.8 2.8-5.7 4.2-8.6.1 0 .2 0 .3.1-.2 1.3-.6 2.7-.9 4.1z"/><path class="st3" d="M799.8 236.2c-2-1.2-4.1-2.1-6.3-3-6-2.3-12.2-3.1-18.6-3.3-10.4-.4-20.8.7-31 2.5-24.1 4.3-47 12-68.6 23.5-23.4 12.4-45.4 26.9-66.6 42.6-7.3 5.4-14.5 10.7-21.8 16.1-.6.4-1.3.8-2.3 1.5.3-.7.4-1 .6-1.3 3.9-6.6 7.7-13.3 12.5-19.3 3.9-4.8 6.7-10.2 9.2-15.9 8.6-19.9 19.2-38.8 30.1-57.5.8-1.4 1.4-2.9 1.8-4.4 2.1-8.9 1.3-17.6-1.3-26.2-.5-1.5-1.3-2.2-2.6-2.8-11-4.6-22.3-8.4-33.8-11.6-29-7.9-58.7-11.2-88.7-11.2-22.5 0-44.9 2-67 6.4-18.6 3.7-36.6 9.1-54.1 16.3-1.5.6-2.2 1.5-2.7 3-2.1 6.5-2.9 13.1-2.3 19.9.3 3.8.8 7.6 3 11 2.3 3.6 4.3 7.3 6.4 11 9.8 17.4 19.2 35 26.8 53.6.4.9 1 1.8 1.6 2.6 6.2 7.8 11.7 16 16.6 24.7l.7 1.4c-.5-.2-.8-.2-.9-.3-3.5-2.4-7-4.8-10.4-7.4-18.1-14-36.8-27.2-56.3-39.1-15.2-9.3-30.9-17.9-47.5-24.4-18-7-36.7-11.7-55.9-13.9-9.5-1.1-19-1.4-28.5.1-6.1 1-11.8 2.7-17 6.2-5.1 3.5-8.2 8.2-9.2 14.3-.9 5.3-.1 10.4 1.4 15.4 3.2 11 8.7 20.8 15.4 29.9.9 1.2 1.7 2.4 2.9 3.9.8-8.3.7-16.1.9-24 .7 1.2 1.2 2.4 1.7 3.7 3.3 10 4.9 20.3 6.2 30.7.5 3.9.6 7.8 1.4 11.7 2.1 10.9 3.7 21.8 4.4 32.8.8 12.3.5 24.6-.9 36.9-1.2 10-3.1 19.7-6.5 29.2-3.6 10.1-8.6 19.5-16.8 26.7-.1.1-.1.3-.3.5.7.7 1.4 1.5 2.1 2.2 6.6 6.3 14.2 11.2 22.1 15.6 12 6.7 24.6 12.2 37.6 16.9 10.7 3.8 19.1 10.6 25.1 20.2 3.1 5 5.4 10.3 7.2 15.9 3.5 11 5 22.5 5.7 34 .2 2.9.4 5.9.5 8.8.7-.7 1.1-1.4 1.4-2.2 4.1-9.7 7.1-19.7 10-29.8.1-.5.4-.9.6-1.3.3.4.3.7.3 1 .3 31.2.4 62.4-2.2 93.5-.8 9.5-2 18.9-3.7 28.3-3.6 19.8-8.5 39.2-14.6 58.3-.2.6-.3 1.2-.5 2 1 .3 2 .5 2.9.7 6.8 1.2 13.7 2.4 20.5 3.7 1.9.4 3-.2 4.1-1.9 23.9-36.2 47.9-72.3 71.8-108.4.7-1.1 1.4-2.4 1.9-3.6 2.9-5.9 5.7-11.8 8.6-17.7.3-.6.7-1.2 1.1-1.8-3.5 27.7-9.3 54.8-16.4 81.6-7.2 26.8-15.7 53.3-25.5 79.5h1.3c5.1-.4 10.2-1 15.3-1.1 18.8-.2 37.6-.1 56.4-.1h160.8c2.5 0 5 .1 7.4.3 4.1.2 8.1.6 12.5.9-19.4-52.3-34.3-105.5-42-160.7.7.6 1.2 1.3 1.5 2.1 2.7 5.5 5.4 11.1 8.1 16.6.6 1.1 1.1 2.3 1.8 3.4 24.3 36.6 48.5 73.2 72.8 109.8.3.5.7.9 1 1.3 8.7-1 17.3-2.4 25.9-4.7-.2-.9-.4-1.6-.6-2.2-4.6-14.7-8.6-29.6-11.9-44.7-3-13.8-5.3-27.6-6.3-41.7-.7-9.8-1.3-19.6-1.7-29.5-.8-19.7-1-39.5-.6-59.3 0-1.9.1-3.7.2-5.6 3.7 11.2 6.9 22.4 11.7 33.2l.5-.5c.1-.6.1-1.3.2-1.9.7-7.5 1.1-15 2.1-22.4 1.1-9.1 3.4-17.9 7.2-26.3 6.1-13.7 16-23.2 30.3-28.3 8.7-3.1 17.2-6.9 25.6-10.8 9.7-4.5 19.1-9.8 27.5-16.5 2.7-2.1 5.1-4.5 7.8-6.8l-1.1-1.1c-4-3.5-7.2-7.7-9.9-12.3-3.3-5.7-5.8-11.7-7.7-18-3.4-11.1-5.1-22.4-5.9-33.9-1.2-16.8-.3-33.4 2.4-50 .8-4.8 1.7-9.6 2.4-14.4.9-6.6 1.6-13.2 2.6-19.7 1.1-7.1 2.7-14.1 5.1-20.9.2-.6.5-1.1.7-1.6.3 7.9.6 15.6 1.1 23.9 1.2-1.6 2-2.8 2.9-3.9 5.3-7.1 9.7-14.7 13-22.9 2.2-5.4 3.9-11 4.1-16.9.4-9-3-16.1-10.8-20.8zM478.1 433.5c-1.8 5.9-5.2 10.8-9.8 14.8-7.1 6.2-15.4 9.7-24.7 10.6l-2.1.3c-.1 2.5-.1 4.8-.3 7.1-.8 9.2-3.9 17.8-8.1 26-4.2 8.4-9.2 16.4-15.3 23.5-3.8 4.4-8.2 8.2-13.1 11.5-6.3 4.2-13 7.5-20.1 10.1l-.9.3c-.1 0-.3-.1-.6-.1 5.8-7.8 9.2-16.6 11.6-25.8 1.4-5.6 2.4-11.2 2.9-17.3-1.9.4-3.6.7-5.2 1-13.7 2.4-27.1.7-40.2-3.5-20.1-6.5-34.4-19.8-44.2-38.2-6.1-11.4-10-23.7-12.5-36.4-2-10.2-3.1-20.5-3.2-31-4 8.5-5.5 17.7-6.6 27.2-.4-.3-.7-.5-.9-.8-5.4-9.1-8.9-18.7-8.8-29.5 0-5.3 1.1-10.3 3.3-15.1 2-4.3 4.9-7.9 9.4-10.3-7.7-3.1-15.4-5.3-23.7-7.4 1.4-1 2.4-1.8 3.5-2.4 7.4-4.2 15.5-6.8 23.8-8.6 12.9-2.8 26-3.4 39.1-2.5 18.7 1.2 36.1 6.4 52.3 15.8 13.5 7.9 24.6 18.2 33.2 31.4 3.1 4.7 6.1 9.4 9.2 14.1 6.9 10.6 16.1 18.8 27.3 24.6 4.1 2.1 8.5 3.5 13.2 4.1 2.7.3 5.2.1 7.7-1 1.6-.7 3.2-1.3 5-1.9.3 3.2-.3 6.3-1.2 9.4zm44.7-58.8c-6.6 2.3-13.2 2.2-19.7-.1-4.9-1.7-9.6-4.1-13.8-7.1-12.8-8.9-23.9-19.5-32.7-32.4-.7-1-1.3-2-2.1-3.3.6.2.9.2 1 .3 8.2 5.5 17.3 8.5 26.9 10.2 7.8 1.4 15.7 2 23.6 1.9 8.8-.1 17.6-.1 26.4-.6 10.5-.6 20.8-2.6 30.4-7.1 2.9-1.4 5.6-3 8.9-4.8-.7 1.2-1.1 1.9-1.6 2.6-9.3 13.7-21 24.9-34.6 34.1-4 2.7-8.3 4.7-12.7 6.3zm215-16.6c6.6 3.8 9.5 9.9 11.2 16.9 2.2 9.2.8 18.1-2.5 26.8-1.4 3.7-3.4 7.2-5.2 10.8-.1.3-.4.5-.9 1.1-1.1-9.4-2.5-18.4-6.6-26.8 0 .7-.1 1.3-.1 2-.6 19.8-4 39.1-11.9 57.4-3.7 8.6-8.5 16.5-14.5 23.6-10.8 12.6-24.5 20.3-40.5 24.1-9.9 2.4-19.9 3.2-30 1.9-2.2-.3-4.4-.8-6.6-1.2-.4-.1-.9-.1-1.6-.2.6 7.8 2.1 15.3 4.4 22.6 2.3 7.3 5.4 14.2 10.2 20.6-.8-.2-1.3-.2-1.7-.3-8.8-3.3-17.2-7.4-24.5-13.4-4.6-3.8-8.9-7.9-12.4-12.9-6.5-9.1-12.2-18.6-16-29.1-2.4-6.7-4-13.7-3.8-20.9 0-.5-.1-1.1-.1-1.8-1.8-.3-3.6-.5-5.4-.8-9.2-1.7-17.3-5.7-23.8-12.5-5.1-5.3-8.1-11.6-8.8-19-.1-.9 0-1.9 0-3.1 1.1.4 1.9.7 2.7 1.1 4.8 2.5 9.8 2.4 14.9 1 6.9-1.8 13-5.3 18.6-9.6 6.2-4.7 11.7-10.2 16-16.7 2.9-4.4 5.9-8.8 8.7-13.3 12.9-20.7 31.3-34.5 54.1-42.7 17.1-6.2 34.8-8 52.9-6.9 10.7.6 21.1 2.3 31.2 6 4.3 1.6 8.3 3.7 12.4 5.6.9.4 1.6 1.2 2.7 2.1-8.2 2-15.8 4.3-23.2 7.2 0 .1 0 .3.1.4z"/><path class="st3" d="M698.5 376.5c-.4 0-.6-.1-.7 0-.4.2-.8.4-1.3.7-18.6 10.6-36.2 22.8-52.5 36.8-8.5 7.4-16.6 15.3-23.5 24.2-1.2 1.5-2.2 3.1-3.4 4.7.7.5 1.2.9 1.8 1.1 3 1.4 5.9 2.9 8.9 4 9.4 3.6 19.1 5 29.2 3.8 10.5-1.2 19.8-5.3 28.3-11.5 3.2-2.3 5.9-5.2 8.1-8.5 2.6-4 4.5-8.3 5.8-12.8 3.4-12.5 3.3-25.1.7-37.7-.5-1.6-1-3.2-1.4-4.8z"/><path class="st3" d="M896 0H100C44.8 0 0 44.8 0 100v796c0 55.2 44.8 100 100 100h796c55.2 0 100-44.8 100-100V100C996 44.8 951.2 0 896 0zm-39.6 450.2c-.8 7.8-3.7 15-7.7 21.7-5.2 8.6-12.1 15.7-19.8 22-9.6 7.8-20.1 14.2-30.9 20.2-9.2 5.1-18.4 9.9-27.6 15.1-2.3 1.3-4.6 3-6.4 5-11.2 12-17.4 26.2-17.3 42.7.1 16.2.7 32.5 1.3 48.7.7 19.6 2.2 39.1 4.5 58.6.2 1.9.5 3.7.9 6 8-6.9 14.8-14.3 20.7-22.5 12.3-16.9 20.6-35.4 23.6-56.1.3 0 .5-.1.6 0 .6.5 1.3 1 1.8 1.5 5.7 5.3 10.7 11.2 15.1 17.7 14 20.6 21.1 43.4 22.5 68.1 1.1 19-1 37.7-6.2 56-7.1 25.1-20.6 46-41.3 62-11.5 8.9-24.3 15.6-37.9 20.7-1.5.6-2.5 1.4-3.2 2.9-3.9 8.4-8.6 16.3-13.8 23.8-13.9 19.8-31.1 36-52.5 47.6-16.6 9-34.3 14.2-53 16.3-1.1.1-2 .5-2.8 1.2-17.5 14-37.5 23-59.2 28.3-15 3.6-30.2 5.3-45.6 5.8-19.5.6-38.8-.6-58-4.5-24-5-46-14.3-65.3-29.7-.7-.6-1.7-.9-2.6-1-3-.5-6-.9-9-1.4-25.8-4.4-48.8-15-68.8-31.9-17.9-15.2-31.6-33.6-41.8-54.7-.6-1.3-1.5-2.1-2.8-2.6-5.9-2.5-12-4.9-17.7-7.9-27.7-14.2-47.7-35.5-58.4-64.9-8.6-23.3-11.3-47.5-9-72.2 1.5-16 5.6-31.3 12.6-45.7 6.1-12.7 14.1-24.2 24.4-33.8.7-.6 1.4-1.2 2.5-2.1 2.2 15.8 7.4 30.1 15.1 43.5 7.7 13.4 17.3 25.2 29.2 35.6.2-.8.3-1.2.3-1.6.9-8.7 2-17.5 2.7-26.2.9-10.9 1.7-21.9 2.1-32.8.7-17.6 1.5-35.2 1.6-52.8.1-16.5-6.2-30.7-17.3-42.7-1.9-2-4-3.7-6.4-5-5.6-3-11.2-6.1-16.9-9.1-11.7-6.3-23.3-12.7-34.1-20.4-7.3-5.2-14.2-11-20-17.8-8.1-9.4-13.6-19.9-15-32.3-.1-.8-.5-1.6-.8-2.5v-9.1c.3-1.1.7-2.3.9-3.4 1.4-12.3 6.4-22.9 15.1-31.6 3.6-3.6 7.7-6.7 11.6-10 2.9-2.4 5.9-4.7 8.8-7.1 2.2-1.8 3.9-4.1 4.6-6.9.9-3.5 2-6.9 2.6-10.5 1.9-10.6 2.3-21.3 2.2-32-.1-6.6-.4-13.1-1.6-19.6-.4-1.8-1.1-3.4-2.2-5-8.9-12-15.8-25-19.6-39.5-2.2-8.5-3.1-17.2-1.5-25.9 2.8-15 11.1-26.2 24.2-33.7 9-5.1 18.8-7.6 28.9-8.7 2.8-.3 5.6-.5 8.4-.7.5-2.6.9-5.2 1.3-7.8.7-3.8 1.6-7.5 2-11.3.7-7-.4-13.9-1.7-20.7-.5-2.9-1.8-5.4-3.5-7.8-3.9-5.3-8.6-9.7-13.9-13.5-9.3-6.6-19.5-11.4-30.4-14.4-8.1-2.2-16.4-3.6-24.6-5.4-1.4-.3-2.7-.6-4.4-1 .7-.9 1.2-1.5 1.7-2.1 3.4-4 6.8-7.9 10.1-11.9 2.8-3.4 5.9-6.3 9.4-8.9 30-22.4 63.6-30 100.4-23.9 23 3.8 43.4 13.3 61.9 27.3 15.1 11.4 28.4 24.6 40.4 39.2 2.6 3.1 5.1 6.4 7.7 9.7 3.5-1 7-2.1 10.5-3.1v-1.9c-.1-6.4.5-12.8 1.8-19.1 3.7-17.4 11.6-32.8 22.9-46.4 5.1-6.1 10.7-11.7 17.4-16.1 2.1-1.4 4.5-2.4 6.8-3.5.6-.3 1.3-.2 2.2-.4.1 2.2.2 4.2.3 6.2.2 7.4.6 14.7 2 22 .9 5.1 2.3 10.1 4.8 14.7 1.4 2.5 3.1 4.8 5.7 6.7.2-1 .4-1.7.5-2.5 2.2-12.3 6.6-23.7 14.1-33.8 6.1-8.2 13.6-14.9 22-20.5 9.8-6.6 20.4-11.5 31.5-15.7.7-.3 1.4-.7 2.1-1h1c-4.5 11.5-6.1 23.5-5.1 35.8.8 10.2 3.5 20 7.3 29.4.3.6.6 1.2.9 2 2-1.7 3.9-3.4 5.8-4.9 9.1-7.5 18.9-14 29.9-18.4 6.7-2.7 13.7-4.4 21-4.5 1.3 0 2.6.2 4.2.4-.6 1.1-1 1.9-1.4 2.7-7.7 14.9-13.8 30.3-15.8 47-.7 6.1-.7 12.1.6 18.1.3 1.4.9 2 2.3 2.3 1.8.4 3.6.9 5.3 1.4 3.4.9 6.7 1.9 10.1 2.9 3-3.8 5.9-7.5 8.9-11.1 13.6-16.2 28.7-30.7 46.2-42.7C693.6 83 715.9 75.2 740.2 73c11.8-1.1 23.5-.4 35.1 1.8 20.2 3.9 38.5 12 54.7 24.8 2.1 1.7 4.2 3.5 6 5.5 4.2 4.6 8.1 9.5 12.2 14.2.5.6 1 1.2 1.6 2-.6.2-1 .4-1.5.5-5.9 1.2-11.8 2.3-17.6 3.4-13.9 2.8-26.9 8-38.8 15.9-6.1 4.1-11.4 9-15.7 15-1.4 2-2.5 4.1-2.9 6.5-.6 3-1.1 6-1.4 9-.5 4.8-1.2 9.7-.2 14.6.5 2.4 1 4.9 1.4 7.3.6 3.2 1.2 6.4 1.8 9.7 2.8.2 5.6.4 8.4.7 9 1 17.8 3.1 26 7.2 13.5 6.8 22.7 17.2 26.5 32 2.4 9.4 1.8 18.9-.5 28.2-3.7 14.7-10.7 27.9-19.6 40-1.3 1.8-2.3 3.7-2.6 5.8-.4 2.8-.8 5.7-1 8.6-.8 9.8-.7 19.7 0 29.5.5 6.3 1.4 12.5 2.7 18.7 1.3 5.9 4 10.6 9 14.2 4.9 3.5 9.6 7.3 14.1 11.2 15.5 13.6 20.5 31 18.5 50.9z"/></g></svg>