<svg xmlns="http://www.w3.org/2000/svg" viewBox="0 0 1000 1000"><path d="M686.5 855.3c-1.9.2-2.9.8-3.7 2.6-5.6 13.2-12.1 25.8-20 37.8-.3.4-.4.8-.7 1.2 23.2-9.3 41-24.9 55.3-45.5-1.2.2-1.9.2-2.6.3-9.4 1.3-18.8 2.6-28.3 3.6zM391.4 422.8c-18.5-17.4-39.1-31.8-60.9-44.4-.4-.2-.8-.4-1.4-.6-.2.6-.5 1.1-.6 1.6-3.6 13.7-3.9 27.4-.3 41.2 2.6 9.7 7.7 17.9 16.5 23.5 9.9 6.3 20.6 10.1 32.3 10.1 11.3 0 21.9-3 31.8-8.3.5-.3 1-.6 1.7-1.1-.7-1-1.2-1.8-1.8-2.6-5.1-7.1-11-13.4-17.3-19.4zM347 857.4c-.6-1.4-1.4-1.8-2.8-2-7.9-.9-15.8-1.8-23.7-2.8-2.4-.3-4.9-.7-7.3-1.1 13.8 20.6 31.6 36.1 54.9 46-.3-.8-.4-1-.5-1.2-8.2-12.3-14.8-25.4-20.6-38.9zm326.9-57.9c-.5-10.4-5-18.3-14.5-23-2.8-1.4-5.7-2.5-8.7-3.4-9.1-2.8-18.6-3.4-28.1-3.4H407.3c-6.7 0-13.4.4-19.9 1.5-6.7 1.2-13.3 3-19.2 6.6-7.4 4.5-11.2 11.2-12 19.8-.6 6.1.2 12.1 1.7 18.2 2.5 9.8 6.2 19.2 10.1 28.5 1.1 2.5 1.7 5.3 4.4 6.8 5.6 6.8 12.2 12.8 19.4 18 16.8 12.2 35.5 20.5 55.5 26 20.8 5.7 42.1 8.1 63.6 8.4 19.3.3 38.5-1.2 57.4-5.1 18.2-3.7 35.6-9.5 52-18.3 14-7.5 26.7-16.7 36.9-28.9.3-.3.5-.8.8-.8 1.2-.2 1.4-1.1 1.8-2 4.2-9.3 7.8-18.8 10.8-28.5 2.4-6.8 3.7-13.5 3.3-20.4zm-198.6 18.7c-1.8 10.2-4.7 20.1-9.5 29.4-2.5 4.9-5.6 9.5-9.3 13.7-12.3 13.6-29.4 13.6-42.2 6.3-5.2-3-9.5-7-13.3-11.7-6.3-7.9-10.5-17-13.9-26.6-1.5-4.4-2.7-9-4-13.6.1-.1.3-.1.4-.2.3.6.5 1.2.8 1.8 1.8 4.3 4 8.4 6.6 12.2 5.1 7.6 11.1 14.6 18.3 20.4 9.3 7.6 20 9.7 31.6 5.9 3.8-1.2 7-3.4 9.7-6.3 9-9.7 16.7-20.6 22.5-32.5.5-1 .9-2 1.3-3.1.4-1 .7-2.1 1-3.1.2 0 .4 0 .6.1 0 2.4-.2 4.9-.6 7.3zm170.3 2.2c-2.5 9.3-5.8 18.4-10.6 26.7-3.9 6.7-8.5 12.9-14.8 17.6-9.5 7.2-20.2 9.5-31.8 6.1-5.8-1.7-10.6-5.2-14.8-9.6-5.7-6.2-9.7-13.6-12.8-21.4-3.3-8.4-5.6-17.3-6.6-26.3-.1-.9-.1-1.7-.2-3 .5.4.7.5.8.8 1.1 2.7 1.9 5.4 3.2 8 5.5 10.8 12.6 20.7 20.8 29.7 6.2 6.8 14.1 9.3 23 8.6 8-.6 15-3.7 20.9-9.2 7.4-7 14.2-14.7 19.3-23.6 1.6-2.8 2.8-5.7 4.2-8.6.1 0 .2 0 .3.1-.2 1.3-.6 2.7-.9 4.1zM803 237.1c-2-1.2-4.1-2.1-6.3-3-6-2.3-12.2-3.1-18.7-3.3-10.4-.4-20.9.7-31.1 2.5-24.2 4.3-47.2 12-68.9 23.6-23.5 12.4-45.6 27-66.9 42.8-7.3 5.4-14.6 10.7-21.9 16.2-.6.4-1.3.8-2.3 1.5.3-.7.4-1 .6-1.3 3.9-6.6 7.7-13.4 12.6-19.4 3.9-4.8 6.7-10.2 9.2-16 8.6-20 19.3-39 30.2-57.7.8-1.4 1.4-2.9 1.8-4.4 2.1-8.9 1.3-17.7-1.3-26.3-.5-1.5-1.3-2.2-2.6-2.8-11-4.6-22.4-8.4-33.9-11.6-29.1-7.9-58.9-11.2-89.1-11.2-22.6 0-45.1 2-67.3 6.4-18.7 3.7-36.7 9.1-54.3 16.4-1.5.6-2.2 1.5-2.7 3-2.1 6.5-2.9 13.2-2.3 20 .3 3.8.8 7.6 3 11 2.3 3.6 4.3 7.3 6.4 11 9.8 17.5 19.3 35.1 26.9 53.8.4.9 1 1.8 1.6 2.6 6.2 7.8 11.7 16.1 16.7 24.8l.7 1.4c-.5-.2-.8-.2-.9-.3-3.5-2.4-7-4.8-10.4-7.4-18.2-14.1-36.9-27.3-56.5-39.3-15.3-9.3-31-18-47.7-24.5-18.1-7-36.8-11.7-56.1-14-9.5-1.1-19.1-1.4-28.6.1-6.1 1-11.8 2.7-17.1 6.2-5.1 3.5-8.2 8.2-9.2 14.4-.9 5.3-.1 10.4 1.4 15.5 3.2 11 8.7 20.9 15.5 30 .9 1.2 1.7 2.4 2.9 3.9.8-8.3.7-16.2.9-24.1.7 1.2 1.2 2.4 1.7 3.7 3.3 10 4.9 20.4 6.2 30.8.5 3.9.6 7.8 1.4 11.7 2.1 10.9 3.7 21.9 4.4 32.9.8 12.3.5 24.7-.9 37-1.2 10-3.1 19.8-6.5 29.3-3.6 10.1-8.6 19.6-16.9 26.8-.1.1-.1.3-.3.5.7.7 1.4 1.5 2.1 2.2 6.6 6.3 14.3 11.2 22.2 15.7 12 6.7 24.7 12.2 37.8 17 10.7 3.8 19.2 10.6 25.2 20.3 3.1 5 5.4 10.3 7.2 16 3.5 11 5 22.6 5.7 34.1.2 2.9.4 5.9.5 8.8.7-.7 1.1-1.4 1.4-2.2 4.1-9.7 7.1-19.8 10-29.9.1-.5.4-.9.6-1.3.3.4.3.7.3 1 .3 31.3.4 62.7-2.2 93.9-.8 9.5-2 19-3.7 28.4-3.6 19.9-8.5 39.4-14.7 58.5-.2.6-.3 1.2-.5 2 1 .3 2 .5 2.9.7 6.8 1.2 13.8 2.4 20.6 3.7 1.9.4 3-.2 4.1-1.9 24-36.3 48.1-72.6 72.1-108.8.7-1.1 1.4-2.4 1.9-3.6 2.9-5.9 5.7-11.8 8.6-17.8.3-.6.7-1.2 1.1-1.8-3.5 27.8-9.3 55-16.5 81.9-7.2 26.9-15.8 53.5-25.6 79.8h1.3c5.1-.4 10.2-1 15.4-1.1 18.9-.2 37.8-.1 56.6-.1h161.4c2.5 0 5 .1 7.4.3 4.1.2 8.1.6 12.6.9-19.5-52.5-34.4-105.9-42.2-161.3.7.6 1.2 1.3 1.5 2.1 2.7 5.5 5.4 11.1 8.1 16.7.6 1.1 1.1 2.3 1.8 3.4 24.4 36.7 48.7 73.5 73.1 110.2.3.5.7.9 1 1.3 8.7-1 17.4-2.4 26-4.7-.2-.9-.4-1.6-.6-2.2-4.6-14.8-8.6-29.7-11.9-44.9-3-13.9-5.3-27.7-6.3-41.9-.7-9.8-1.3-19.7-1.7-29.6-.8-19.8-1-39.7-.6-59.5 0-1.9.1-3.7.2-5.6 3.7 11.2 6.9 22.5 11.7 33.3l.5-.5c.1-.6.1-1.3.2-1.9.7-7.5 1.1-15.1 2.1-22.5 1.1-9.1 3.4-18 7.2-26.4 6.1-13.8 16.1-23.3 30.4-28.4 8.7-3.1 17.3-6.9 25.7-10.8 9.7-4.5 19.2-9.8 27.6-16.6 2.7-2.1 5.1-4.5 7.8-6.8l-1.1-1.1c-4-3.5-7.2-7.7-9.9-12.3-3.3-5.7-5.8-11.7-7.7-18.1-3.4-11.1-5.1-22.5-5.9-34-1.2-16.9-.3-33.5 2.4-50.2.8-4.8 1.7-9.6 2.4-14.5.9-6.6 1.6-13.3 2.6-19.8 1.1-7.1 2.7-14.2 5.1-21 .2-.6.5-1.1.7-1.6.3 7.9.6 15.7 1.1 24 1.2-1.6 2-2.8 2.9-3.9 5.3-7.1 9.7-14.8 13.1-23 2.2-5.4 3.9-11 4.1-17 .7-8.9-2.8-16-10.6-20.8zM480 435.2c-1.8 5.9-5.2 10.8-9.8 14.9-7.1 6.2-15.5 9.7-24.8 10.6l-2.1.3c-.1 2.5-.1 4.8-.3 7.1-.8 9.2-3.9 17.9-8.1 26.1-4.2 8.4-9.2 16.5-15.4 23.6-3.8 4.4-8.2 8.2-13.2 11.5-6.3 4.2-13.1 7.5-20.2 10.1l-.9.3c-.1 0-.3-.1-.6-.1 5.8-7.8 9.2-16.7 11.6-25.9 1.4-5.6 2.4-11.2 2.9-17.4-1.9.4-3.6.7-5.2 1-13.8 2.4-27.2.7-40.4-3.5-20.2-6.5-34.5-19.9-44.4-38.4-6.1-11.4-10-23.8-12.6-36.5-2-10.2-3.1-20.6-3.2-31.1-4 8.5-5.5 17.8-6.6 27.3-.4-.3-.7-.5-.9-.8-5.4-9.1-8.9-18.8-8.8-29.6 0-5.3 1.1-10.3 3.3-15.2 2-4.3 4.9-7.9 9.4-10.3-7.7-3.1-15.5-5.3-23.8-7.4 1.4-1 2.4-1.8 3.5-2.4 7.4-4.2 15.6-6.8 23.9-8.6 13-2.8 26.1-3.4 39.3-2.5 18.8 1.2 36.2 6.4 52.5 15.9 13.6 7.9 24.7 18.3 33.3 31.5 3.1 4.7 6.1 9.4 9.2 14.2 6.9 10.6 16.2 18.9 27.4 24.7 4.1 2.1 8.5 3.5 13.3 4.1 2.7.3 5.2.1 7.7-1 1.6-.7 3.2-1.3 5-1.9.5 3.2-.1 6.3-1 9.4zm44.9-59c-6.6 2.3-13.3 2.2-19.8-.1-4.9-1.7-9.6-4.1-13.9-7.1-12.9-8.9-24-19.6-32.8-32.5-.7-1-1.3-2-2.1-3.3.6.2.9.2 1 .3 8.2 5.5 17.4 8.5 27 10.2 7.8 1.4 15.8 2 23.7 1.9 8.8-.1 17.7-.1 26.5-.6 10.5-.6 20.9-2.6 30.5-7.1 2.9-1.4 5.6-3 8.9-4.8-.7 1.2-1.1 1.9-1.6 2.6-9.3 13.8-21.1 25-34.7 34.2-4 2.7-8.3 4.7-12.7 6.3zm215.9-16.7c6.6 3.8 9.5 9.9 11.2 17 2.2 9.2.8 18.2-2.5 26.9-1.4 3.7-3.4 7.2-5.2 10.8-.1.3-.4.5-.9 1.1-1.1-9.4-2.5-18.5-6.6-26.9 0 .7-.1 1.3-.1 2-.6 19.9-4 39.3-11.9 57.6-3.7 8.6-8.5 16.6-14.6 23.7-10.8 12.7-24.6 20.4-40.7 24.2-9.9 2.4-20 3.2-30.1 1.9-2.2-.3-4.4-.8-6.6-1.2-.4-.1-.9-.1-1.6-.2.6 7.8 2.1 15.4 4.4 22.7 2.3 7.3 5.4 14.3 10.2 20.7-.8-.2-1.3-.2-1.7-.3-8.8-3.3-17.3-7.4-24.6-13.5-4.6-3.8-8.9-7.9-12.4-13-6.5-9.1-12.2-18.7-16.1-29.2-2.4-6.7-4-13.8-3.8-21 0-.5-.1-1.1-.1-1.8-1.8-.3-3.6-.5-5.4-.8-9.2-1.7-17.4-5.7-23.9-12.6-5.1-5.3-8.1-11.6-8.8-19.1-.1-.9 0-1.9 0-3.1 1.1.4 1.9.7 2.7 1.1 4.8 2.5 9.8 2.4 15 1 6.9-1.8 13.1-5.3 18.7-9.6 6.2-4.7 11.7-10.2 16.1-16.8 2.9-4.4 5.9-8.8 8.7-13.4 13-20.8 31.4-34.6 54.3-42.9 17.2-6.2 34.9-8 53.1-6.9 10.7.6 21.2 2.3 31.3 6 4.3 1.6 8.3 3.7 12.4 5.6.9.4 1.6 1.2 2.7 2.1-8.2 2-15.9 4.3-23.3 7.2 0 .4 0 .6.1.7zM701.3 378c-.4 0-.6-.1-.7 0-.4.2-.8.4-1.3.7a336.91 336.91 0 0 0-52.7 36.9c-8.5 7.4-16.7 15.4-23.6 24.3-1.2 1.5-2.2 3.1-3.4 4.7.7.5 1.2.9 1.8 1.1 3 1.4 5.9 2.9 8.9 4 9.4 3.6 19.2 5 29.3 3.8 10.5-1.2 19.9-5.3 28.4-11.5 3.2-2.3 5.9-5.2 8.1-8.5 2.6-4 4.5-8.3 5.8-12.9 3.4-12.6 3.3-25.2.7-37.9-.4-1.5-.9-3.1-1.3-4.7z"/><path d="M899.6 0H100.4C45 0 0 45 0 100.4v799.2C0 955 45 1000 100.4 1000h799.2c55.4 0 100.4-45 100.4-100.4V100.4C1000 45 955 0 899.6 0zm-39.8 452c-.8 7.8-3.7 15.1-7.7 21.8-5.2 8.6-12.1 15.8-19.9 22.1-9.6 7.8-20.2 14.3-31 20.3-9.2 5.1-18.5 9.9-27.7 15.2-2.3 1.3-4.6 3-6.4 5-11.2 12-17.5 26.3-17.4 42.9.1 16.3.7 32.6 1.3 48.9.7 19.7 2.2 39.3 4.5 58.8.2 1.9.5 3.7.9 6 8-6.9 14.9-14.4 20.8-22.6 12.3-17 20.7-35.5 23.7-56.3.3 0 .5-.1.6 0 .6.5 1.3 1 1.8 1.5 5.7 5.3 10.7 11.2 15.2 17.8 14.1 20.7 21.2 43.6 22.6 68.4 1.1 19.1-1 37.9-6.2 56.2-7.1 25.2-20.7 46.2-41.5 62.2-11.5 8.9-24.4 15.7-38.1 20.8-1.5.6-2.5 1.4-3.2 2.9-3.9 8.4-8.6 16.4-13.9 23.9-14 19.9-31.2 36.1-52.7 47.8-16.7 9-34.4 14.3-53.2 16.4-1.1.1-2 .5-2.8 1.2-17.6 14.1-37.7 23.1-59.4 28.4-15.1 3.6-30.3 5.3-45.8 5.8-19.6.6-39-.6-58.2-4.5-24.1-5-46.2-14.4-65.6-29.8-.7-.6-1.7-.9-2.6-1-3-.5-6-.9-9-1.4-25.9-4.4-49-15.1-69.1-32-18-15.3-31.7-33.7-42-54.9-.6-1.3-1.5-2.1-2.8-2.6-5.9-2.5-12-4.9-17.8-7.9-27.8-14.3-47.9-35.6-58.6-65.2-8.6-23.4-11.3-47.7-9-72.5 1.5-16.1 5.6-31.4 12.7-45.9 6.1-12.8 14.2-24.3 24.5-33.9.7-.6 1.4-1.2 2.5-2.1 2.2 15.9 7.4 30.2 15.2 43.7 7.7 13.5 17.4 25.3 29.3 35.7.2-.8.3-1.2.3-1.6.9-8.7 2-17.6 2.7-26.3.9-10.9 1.7-22 2.1-32.9.7-17.7 1.5-35.3 1.6-53 .1-16.6-6.2-30.8-17.4-42.9-1.9-2-4-3.7-6.4-5-5.6-3-11.2-6.1-17-9.1-11.7-6.3-23.4-12.8-34.2-20.5-7.3-5.2-14.3-11-20.1-17.9-8.1-9.4-13.7-20-15.1-32.4-.1-.8-.5-1.6-.8-2.5v-9.1c.3-1.1.7-2.3.9-3.4 1.4-12.3 6.4-23 15.2-31.7 3.6-3.6 7.7-6.7 11.6-10 2.9-2.4 5.9-4.7 8.8-7.1 2.2-1.8 3.9-4.1 4.6-6.9.9-3.5 2-6.9 2.6-10.5 1.9-10.6 2.3-21.4 2.2-32.1-.1-6.6-.4-13.2-1.6-19.7-.4-1.8-1.1-3.4-2.2-5-8.9-12-15.9-25.1-19.7-39.7-2.2-8.5-3.1-17.3-1.5-26 2.8-15.1 11.1-26.3 24.3-33.8 9-5.1 18.9-7.6 29-8.7 2.8-.3 5.6-.5 8.4-.7.5-2.6.9-5.2 1.3-7.8.7-3.8 1.6-7.5 2-11.3.7-7-.4-14-1.7-20.8-.5-2.9-1.8-5.4-3.5-7.8-3.9-5.3-8.6-9.7-14-13.6-9.3-6.6-19.6-11.4-30.5-14.5-8.1-2.2-16.5-3.6-24.7-5.4-1.4-.3-2.7-.6-4.4-1 .7-.9 1.2-1.5 1.7-2.1 3.4-4 6.8-7.9 10.1-11.9 2.8-3.4 5.9-6.3 9.4-8.9 30.1-22.5 63.9-30.1 100.8-24 23.1 3.8 43.6 13.4 62.1 27.4 15.2 11.4 28.5 24.7 40.6 39.4 2.6 3.1 5.1 6.4 7.7 9.7 3.5-1 7-2.1 10.5-3.1V147c-.1-6.4.5-12.9 1.8-19.2 3.7-17.5 11.6-32.9 23-46.6 5.1-6.1 10.7-11.7 17.5-16.2 2.1-1.4 4.5-2.4 6.8-3.5.6-.3 1.3-.2 2.2-.4.1 2.2.2 4.2.3 6.2.2 7.4.6 14.8 2 22.1.9 5.1 2.3 10.1 4.8 14.8 1.4 2.5 3.1 4.8 5.7 6.7.2-1 .4-1.7.5-2.5 2.2-12.3 6.6-23.8 14.2-33.9 6.1-8.2 13.7-15 22.1-20.6 9.8-6.6 20.5-11.5 31.6-15.8.7-.3 1.4-.7 2.1-1h1C550.6 48.6 549 60.7 550 73c.8 10.2 3.5 20.1 7.3 29.5.3.6.6 1.2.9 2 2-1.7 3.9-3.4 5.8-4.9 9.1-7.5 19-14.1 30-18.5 6.7-2.7 13.8-4.4 21.1-4.5 1.3 0 2.6.2 4.2.4-.6 1.1-1 1.9-1.4 2.7-7.7 15-13.9 30.4-15.9 47.2-.7 6.1-.7 12.1.6 18.2.3 1.4.9 2 2.3 2.3 1.8.4 3.6.9 5.3 1.4 3.4.9 6.7 1.9 10.1 2.9 3-3.8 5.9-7.5 8.9-11.1 13.7-16.3 28.8-30.8 46.4-42.9 20.3-13.9 42.7-21.7 67.1-23.9 11.8-1.1 23.6-.4 35.2 1.8 20.3 3.9 38.7 12 54.9 24.9 2.1 1.7 4.2 3.5 6 5.5 4.2 4.6 8.1 9.5 12.2 14.3.5.6 1 1.2 1.6 2-.6.2-1 .4-1.5.5-5.9 1.2-11.8 2.3-17.7 3.4-14 2.8-27 8-39 16-6.1 4.1-11.4 9-15.8 15.1-1.4 2-2.5 4.1-2.9 6.5-.6 3-1.1 6-1.4 9-.5 4.8-1.2 9.7-.2 14.7.5 2.4 1 4.9 1.4 7.3.6 3.2 1.2 6.4 1.8 9.7 2.8.2 5.6.4 8.4.7 9 1 17.9 3.1 26.1 7.2 13.6 6.8 22.8 17.3 26.6 32.1 2.4 9.4 1.8 19-.5 28.3-3.7 14.8-10.7 28-19.7 40.2-1.3 1.8-2.3 3.7-2.6 5.8-.4 2.8-.8 5.7-1 8.6-.8 9.8-.7 19.8 0 29.6.5 6.3 1.4 12.6 2.7 18.8 1.3 5.9 4 10.6 9 14.3 4.9 3.5 9.6 7.3 14.2 11.2 16.3 13.3 21.3 30.7 19.3 50.7z"/></svg>