<svg xmlns="http://www.w3.org/2000/svg" viewBox="0 0 1000 1000"><path d="M581.9 274.5l-.4 1.5c0 2.4-9 4.4-20.3 4.4-11.1 0-20.3-2-20.3-4.4 0-.2.1-.4.2-.6l.3-1.2c-3.4 1.2-5.4 2.6-5.4 4.2 0 3.8 11.2 6.8 25.2 6.8 13.9 0 25.2-3.1 25.2-6.8 0-1.4-1.7-2.8-4.5-3.9z"/><path d="M899.6 0H100.4C45 0 0 45 0 100.4v799.2C0 955 45 1000 100.4 1000h799.2c55.4 0 100.4-45 100.4-100.4V100.4C1000 45 955 0 899.6 0zM626.1 794.5l-8.4 146.9c0 16.3-51.8 29.5-115.7 29.5s-115.7-13.3-115.7-29.5L375.7 796l-27.2-46.5c8.5 3.6 19.7 7 33.7 10.4 20.4 4.9 62.9 13.2 117.8 13.2s97.4-8.2 117.8-13.2c14.2-3.4 25.4-6.9 34-10.5l-25.7 45.1zM684.2 536c-5.6 5-10.6 9.3-15 13.1-6.2 5.3-11.3 9.6-15.5 12.9-4 3.2-7.2 5.4-9.4 6.7-2.2 1.3-3.9 1.9-5.1 1.9-1.4 0-2.4-.3-3.1-.9-.6-.6-.9-1.4-.9-2.4.1-.7 1-2.1 2.7-4.2 1.7-2.1 3.9-4.5 6.4-7.5 2.5-2.9 5.3-6.2 8.2-9.8 2.9-3.6 5.6-7.3 8.1-11 2.5-3.8 4.6-7.5 6.3-11.3 1.7-3.7 2.5-7.3 2.5-10.6 0-2.5-.5-4.7-1.6-6.6-1.1-1.9-2.5-3.5-4.2-4.7s-3.7-2.2-5.9-2.8c-2.2-.6-4.4-1-6.7-1-3.3 0-6.5.7-9.8 2-3.3 1.4-6.5 3.1-9.6 5.3s-6.1 4.6-9.1 7.3c-2.9 2.7-5.6 5.4-8.1 8.1.2-.5.4-1.2.7-2.3.2-1 .5-2.2.7-3.3.2-1.2.4-2.3.5-3.3.1-1 .2-1.8.2-2.3 0-2.4-.6-4.2-1.8-5.5-1.2-1.2-3.2-1.9-5.9-1.9-1.8 0-3.4.9-4.9 2.8-1.5 1.9-2.9 4.1-4.1 6.7-1.2 2.6-2.3 5.2-3.3 7.8-1 2.7-1.7 4.7-2.2 6.2-.9 3.3-2 6.6-3.1 10.1-.6.2-1.1.6-1.6 1-1.9 1.9-4.1 4-6.5 6.3-2.4 2.3-4.9 4.6-7.6 6.9-2.6 2.3-5.3 4.5-8 6.6-2.7 2.1-5.3 4-7.7 5.7-2.5 1.6-4.8 3-6.9 4-2.1 1-3.9 1.5-5.3 1.5-1.2 0-1.9-.4-2.3-1.1-.4-.7-.6-1.7-.6-2.9 0-1.9.4-4.1 1.1-6.6.7-2.5 1.4-4.6 2.2-6.5 1.7-4.3 3.7-9.5 6.1-15.5 2.3-5.9 4.9-12.2 7.5-18.9 2.7-6.6 5.4-13.5 8.3-20.4 2.8-7 5.6-13.8 8.3-20.2 2.7-6.4 5.2-12.4 7.5-18s4.4-10.1 6.1-14c.9-1.8 1.6-3.6 2.2-5.2.6-1.6.9-3.1.9-4.6 0-3.1-.9-5.3-2.6-6.6-1.7-1.4-3.7-2.1-5.8-2.1s-4.2.6-6.3 1.9c-2.1 1.3-3.7 3.5-4.9 6.6l-31 78.1c-2 5.1-4.3 10.8-6.7 17.1s-4.9 12.4-7.2 18.8c-1.3 3.3-2.4 7-3.4 10.9-.9.7-1.7 1.4-2.6 2-3.4 2.6-6.7 4.6-9.8 6.1-3.1 1.4-5.7 2.2-7.8 2.2-3 0-4.5-1.4-4.5-4.3 0-3.1.5-6.5 1.4-10.2.9-3.7 2.1-7.4 3.5-11.2s2.9-7.6 4.5-11.3c1.6-3.7 3.1-7.2 4.5-10.4 1.4-3.3 2.5-6.2 3.5-8.7.9-2.5 1.4-4.5 1.4-6 0-2.6-.7-4.8-2.1-6.6-1.4-1.8-3.4-2.8-5.8-2.8-2.2 0-4.1.9-5.6 2.7-1.5 1.8-2.8 4-4 6.6-1.2 2.7-2.2 5.5-3.2 8.7-1 3.1-2.1 6.1-3.4 8.8-1.8 4.1-4.1 8.6-6.9 13.7-2.8 4.9-5.8 9.6-9.2 14-3.4 4.3-7.1 7.9-11.1 10.8s-8.2 4.3-12.7 4.3c-1.6 0-2.7-.6-3.4-1.8-.7-1.2-1-2.5-1-4 .1-3.5.7-7 1.7-10.7 1-3.7 2.2-7.3 3.7-10.8 1.4-3.5 3-7 4.6-10.3 1.7-3.3 3.2-6.4 4.7-9.2 1.5-2.9 2.8-5.4 3.9-7.6 1.1-2.2 1.8-4 2.2-5.4.2-.7.3-1.5.3-2.3 0-1.2-.3-2.3-.8-3.2-.5-.9-1.3-1.7-2.1-2.3-.9-.6-1.8-1-2.9-1.3-1-.3-2-.4-3-.4-2.2 0-4.2.7-6.1 2s-3.5 3.5-4.9 6.6c-5.6 11.6-9.9 21.5-13 29.7-3.1 8.1-5.3 14.8-6.8 19.9-1.5 5.1-2.3 8.8-2.6 11.2-.3 2.4-.4 3.6-.4 3.7 0 3.5.5 6.3 1.4 8.6 1 2.3 2.2 4.1 3.8 5.5 1.6 1.4 3.4 2.3 5.4 2.9 2.1.6 4.2.8 6.5.8 5 0 9.5-.8 13.9-2.5 4.2-1.6 8-3.8 11.4-6.5 3.4-2.7 6.4-5.6 9.1-8.8 2.6-3.2 4.9-6.4 6.6-9.5-1.1 4.9-1.6 9.2-1.6 13 0 5.2 1 8.9 3.1 11.1 2 2.2 4.7 3.3 8 3.3s6.9-.9 11-2.7c4.1-1.8 8.2-4.2 12.4-7.2l3.6-2.7c.1.7.2 1.5.4 2.2.5 2.1 1.3 3.9 2.4 5.4 1.1 1.5 2.6 2.7 4.5 3.6 1.9.9 4.2 1.3 7 1.3 4.1 0 8.3-1 12.7-2.9s8.7-4.5 13.1-7.8 8.8-7 13.3-11.3l.6-.6c-.7 1.6-1.4 3.3-2.1 4.9-3.5 7.9-7.2 16-11 24.1s-7.5 16.2-11.2 24.3c-.5 1.4-1.1 3-1.8 4.5-.6 1.6-1.3 3.2-1.9 4.8s-1.1 3.3-1.5 5c-.4 1.7-.6 3.3-.6 4.9 0 3.3.8 5.5 2.4 6.7 1.6 1.2 3.6 1.8 6.1 1.8 1.9 0 3.6-.4 5.1-1.3 1.5-.8 2.9-2 4.1-3.4 1.2-1.4 2.2-3 3.2-4.9.9-1.9 1.7-3.8 2.4-5.9.2-.7.7-2.1 1.4-4.1.7-2 1.6-4.3 2.6-7s2-5.5 3.2-8.4c1.1-3 2.2-5.8 3.2-8.5s1.9-5 2.7-7.1c.8-2 1.3-3.4 1.7-4.1.3-.6.7-1.6 1.4-3.1.6-1.5 1.4-3.2 2.2-5.1.8-1.9 1.7-3.9 2.7-6s1.9-4.2 2.8-6.2c.9-2 1.7-3.8 2.4-5.4s1.3-2.9 1.7-3.7c1.4-2.8 3-5.9 4.9-9.2s4.1-6.7 6.4-10c2.3-3.3 4.9-6.5 7.5-9.5 2.7-3.1 5.4-5.8 8.3-8.1 2.8-2.4 5.7-4.3 8.6-5.7 2.9-1.4 5.7-2.1 8.4-2.1 1.6 0 2.7.3 3.4.8.7.6 1 1.3 1 2.3 0 1.6-.8 3.7-2.4 6.3s-3.7 5.4-6.2 8.5c-2.5 3.1-5.2 6.4-8.1 9.8-2.9 3.5-5.7 6.9-8.3 10.3-2.6 3.4-4.8 6.6-6.6 9.8-1.8 3.1-2.9 5.9-3.2 8.3-.1.4-.1.7-.1 1v.9c0 3.9 1.4 7 4.2 9.3 2.8 2.3 6.8 3.4 12 3.4 5.5 0 10.7-1 15.6-3.1 4.8-2.1 9.8-5 14.9-8.9 5.1-3.8 10.4-8.4 16.2-13.8 1.5-1.4 3.1-2.9 4.8-4.4L661.6 732c-3.5 9-71.7 31.3-161.5 31.3S342.2 741.1 338.6 732l-13.9-145.8 1.8 1.2c3.4 2.1 7.5 3.1 12.3 3.1 4.1 0 8.5-1 13-3s8.9-4.6 13.4-7.8c4.4-3.2 8.7-6.8 13-10.7 4.2-4 8.1-8 11.7-12-1.2 3.8-2.6 8.1-4.1 12.9-1.5 4.8-3 9.4-4.3 14s-2.5 8.5-3.4 12c-1 3.5-1.5 6-1.5 7.2-.1.6-.1 1.2-.1 1.8v1.7c0 3.9.5 6.5 1.5 8 1 1.4 2.6 2.2 4.7 2.2 1.3 0 2.5-.5 3.8-1.4 1.2-.9 2.3-2.1 3.4-3.5 1-1.4 1.9-2.9 2.6-4.5s1.3-3 1.6-4.3c.1-.4.5-1.7 1.1-3.9.6-2.2 1.4-4.9 2.3-8.1.9-3.2 2-6.8 3.1-10.8 1.2-4 2.4-8 3.6-12.2 1.3-4.1 2.5-8.2 3.7-12.2 1.2-4 2.3-7.6 3.3-10.8 1-3.2 1.9-5.9 2.6-8s1.2-3.4 1.5-3.8c1.2-3.5 2.5-6.9 3.8-10.2s2.5-6.5 3.5-9.7c1.1-3.2 1.9-6.5 2.6-9.9.7-3.4 1-7 1-10.9 0-1.4-.2-2.7-.7-3.8-.4-1.1-1-2-1.8-2.7-.7-.7-1.6-1.2-2.5-1.5-1-.3-1.9-.5-2.9-.5-2 0-3.9.6-5.8 1.9s-3.4 3.5-4.5 6.5l-9.5 28.5c-1.2 2.4-2.9 5.3-5.2 8.5-2.3 3.3-5 6.7-7.9 10.2-3 3.5-6.2 7-9.7 10.5-3.5 3.5-6.9 6.6-10.3 9.3-3.4 2.7-6.7 4.9-9.9 6.6-3.2 1.7-6 2.5-8.6 2.5-2.2 0-4.1-.6-5.6-1.9-1.5-1.2-2.6-2.8-3.5-4.8-.9-1.9-1.4-4.1-1.7-6.5s-.5-4.7-.5-6.9c0-6.8 1.1-14.5 3.3-23 2.2-8.5 5.2-17.2 8.9-25.9s8-17.4 13-25.7 9.9-15.8 15.3-22.3c5.3-6.5 10.6-11.7 16.1-15.7 5.4-3.9 10.5-5.9 15.3-5.9 3.1 0 5.9.9 8.5 2.6s5 4.5 7.2 8.4c2.3 4.3 4.4 7.5 6.3 9.8 1.9 2.3 3.9 3.4 6.1 3.4 2.4 0 4.4-1 6.2-3.1 1.7-2.1 2.6-4.9 2.6-8.6 0-1.5-.2-3.2-.5-4.9-.3-1.7-1-3.4-2.2-5.1-5-7.6-10.4-13.1-16.3-16.5-5.8-3.4-11.8-5.1-18-5.1-5.4 0-10.8 1.2-16.3 3.5s-10.9 5.6-16.3 9.7-10.6 9.1-15.8 14.9c-5.1 5.8-9.9 12-14.5 19-4.5 6.8-8.7 14.2-12.6 21.9-3.8 7.7-7.2 15.6-10.1 23.7-1.4 3.9-2.7 7.9-3.9 11.8l-25-229.9c4.3 2.4 8.8 3.9 11.5 4.8 11.1 3.7 27 7 47 9.7 40.4 5.6 93.9 8.7 150.7 8.7s110.3-3.1 150.7-8.7c20-2.8 35.7-6.1 47-9.7 2.7-.9 7.2-2.4 11.5-4.8L684.2 536zm29.5-266.1c0 16.2-94.8 29.2-211.7 29.2S290.2 286 290.2 269.9c0-16.2 94.8-29.2 211.7-29.2 16.6 0 32.6.3 48.1.8l23.1-89.2L685.3 34.2l.1-.1c2.5-2.5 10.6-.3 18.1 6.4 7.5 6.7 12 14.5 9.8 17l-.1.1-105.3 111.2-18.4 74.6c73.3 4.5 124.2 14.7 124.2 26.5z"/></svg>