<svg xmlns="http://www.w3.org/2000/svg" viewBox="0 0 1000 1000"><style>.st0{display:none}.st1,.st2{display:inline}.st2{fill:none;stroke:#000;stroke-miterlimit:10}.st3{fill:#fff}</style><g id="black_x5F_bg" class="st0"><path class="st1" d="M-2-2H998V998H-2z"/></g><g id="guide_x5F_path" class="st0"><path class="st2" d="M74 31h848v934H74z"/></g><g id="Layer_4"><path class="st3" d="M244.4 265.8c3.7 41.1 7.5 82.2 11.2 123.3 3.6 40.2 7.1 80.3 10.6 120.5.3 3.4 1.5 5 5 4.8 1.9-.1 3.9 0 5.8 0 113.3.1 226.7.2 340 .1 5.2 0 7.3 1.1 6.7 6.7-1.5 14.6-2.5 29.3-3.8 44-2.2 25.3-4.7 50.5-6.8 75.8-.4 4.3-1.8 6.5-6.1 7.7-35.7 9.5-71.4 19.2-107 28.7-1.7.5-3.8.4-5.6-.1-35.5-9.5-71-19.1-106.6-28.6-3.2-.9-4.8-2-5.1-5.7-2-23.9-4.6-47.9-6.4-71.8-.4-5.4-2.4-6.2-7.1-6.2-30.5.2-60.9.1-91.4.1-2.1 0-4.1.2-6.2.3 0 1.8-.1 2.9 0 4.1 2 22.8 4.1 45.6 6.1 68.3 2.5 28.2 4.9 56.4 7.3 84.6.3 4 1.9 5.9 6 7.1 67.8 18.7 135.5 37.5 203.2 56.2 2.3.6 5 .8 7.3.1 68.1-18.8 136.1-37.7 204.2-56.5 3.4-.9 4.6-2.4 4.9-5.9 1.4-18.5 3.1-37 4.8-55.6 2.2-23.9 4.5-47.8 6.7-71.7 2.1-23.7 3.9-47.5 6.1-71.2 2.9-32.4 6-64.8 9-97.2.5-5.7.8-11.5 1.3-17.7-3.1-.2-5.6-.6-8.1-.6-79.2.2-158.3.4-237.5.5-41.5.1-83.1-.1-124.6.1-5.2 0-6.7-1.9-7.1-6.6-2.3-26.7-4.7-53.3-7.1-79.9-.5-6.1-.9-12.2-1.3-18.7h394.5c.5-2.2 1.2-4 1.3-5.9 1.3-14.7 2.5-29.3 3.8-44 1.3-15 2.5-30.1 4.2-45.1 1-9.2 1.2-9.4-8.3-9.4-167.3.1-334.6.1-501.9.2-1.6 0-3.1 0-4.7.1-.7 0-1.5.3-2.4.5-.1 1.3-.3 2.4-.2 3.5 1.8 20.6 3.4 40.9 5.3 61.1z"/><path class="st3" d="M896 0H100C44.8 0 0 44.8 0 100v796c0 55.2 44.8 100 100 100h796c55.2 0 100-44.8 100-100V100C996 44.8 951.2 0 896 0zm12.7 47.1c-2.6 29.7-5.3 59.4-8 89.2-2.9 32.4-6 64.8-8.9 97.2-2.5 28.4-4.8 56.8-7.4 85.1-2.5 28-5.2 55.9-7.7 83.9-2.1 23.7-4.1 47.5-6.2 71.2-2.1 23.9-4.4 47.8-6.5 71.8-2.1 23.5-4.1 47.1-6.2 70.6l-6.6 72.9c-1.7 18.9-3.4 37.8-5 56.7l-6.6 74.1c-1.3 14.9-2.8 29.7-3.7 44.6-.3 4.6-1.7 6.7-6.2 8L498.2 965H497c-11.6-3.5-23.2-7.2-34.9-10.5-98.4-27.3-196.8-54.6-295.3-81.8-4.5-1.2-5.9-3.1-6.3-7.9-2.3-28.6-5.1-57.1-7.6-85.7-2.1-23.5-4.1-47.1-6.2-70.6l-6.6-72.9c-2.1-23.4-4.1-46.7-6.2-70.1l-6.6-73.5c-2.1-23.5-4.1-47.1-6.2-70.6l-6.6-72.9c-1.7-18.9-3.3-37.8-5-56.7-2.2-24.7-4.5-49.4-6.7-74.1-2.1-23.2-4.1-46.3-6.1-69.5-2.2-24.7-4.5-49.4-6.6-74.1-1.3-14.3-2.4-28.5-3.7-43.4h823.5c-.4 5.4-.7 10.9-1.2 16.4z"/></g></svg>