<svg xmlns="http://www.w3.org/2000/svg" viewBox="0 0 1000 1000"><path d="M245.4 266.9c3.7 41.3 7.5 82.5 11.2 123.8 3.6 40.4 7.1 80.6 10.6 121 .3 3.4 1.5 5 5 4.8 1.9-.1 3.9 0 5.8 0 113.8.1 227.6.2 341.4.1 5.2 0 7.3 1.1 6.7 6.7-1.5 14.7-2.5 29.4-3.8 44.2-2.2 25.4-4.7 50.7-6.8 76.1-.4 4.3-1.8 6.5-6.1 7.7-35.8 9.5-71.7 19.3-107.4 28.8-1.7.5-3.8.4-5.6-.1-35.6-9.5-71.3-19.2-107-28.7-3.2-.9-4.8-2-5.1-5.7-2-24-4.6-48.1-6.4-72.1-.4-5.4-2.4-6.2-7.1-6.2-30.6.2-61.1.1-91.8.1-2.1 0-4.1.2-6.2.3 0 1.8-.1 2.9 0 4.1 2 22.9 4.1 45.8 6.1 68.6 2.5 28.3 4.9 56.6 7.3 84.9.3 4 1.9 5.9 6 7.1 68.1 18.8 136 37.7 204 56.4 2.3.6 5 .8 7.3.1 68.4-18.9 136.6-37.9 205-56.7 3.4-.9 4.6-2.4 4.9-5.9 1.4-18.6 3.1-37.1 4.8-55.8 2.2-24 4.5-48 6.7-72 2.1-23.8 3.9-47.7 6.1-71.5 2.9-32.5 6-65.1 9-97.6.5-5.7.8-11.5 1.3-17.8-3.1-.2-5.6-.6-8.1-.6-79.5.2-158.9.4-238.5.5-41.7.1-83.4-.1-125.1.1-5.2 0-6.7-1.9-7.1-6.6-2.3-26.8-4.7-53.5-7.1-80.2-.5-6.1-.9-12.2-1.3-18.8h396.1c.5-2.2 1.2-4 1.3-5.9 1.3-14.8 2.5-29.4 3.8-44.2 1.3-15.1 2.5-30.2 4.2-45.3 1-9.2 1.2-9.4-8.3-9.4-168 .1-335.9.1-503.9.2-1.6 0-3.1 0-4.7.1-.7 0-1.5.3-2.4.5-.1 1.3-.3 2.4-.2 3.5 1.9 20.7 3.5 41.1 5.4 61.4z"/><path d="M899.6 0H100.4C45 0 0 45 0 100.4v799.2C0 955 45 1000 100.4 1000h799.2c55.4 0 100.4-45 100.4-100.4V100.4C1000 45 955 0 899.6 0zm12.7 47.3c-2.6 29.8-5.3 59.6-8 89.6-2.9 32.5-6 65.1-8.9 97.6-2.5 28.5-4.8 57-7.4 85.4-2.5 28.1-5.2 56.1-7.7 84.2-2.1 23.8-4.1 47.7-6.2 71.5-2.1 24-4.4 48-6.5 72.1-2.1 23.6-4.1 47.3-6.2 70.9l-6.6 73.2c-1.7 19-3.4 38-5 56.9l-6.6 74.4c-1.3 15-2.8 29.8-3.7 44.8-.3 4.6-1.7 6.7-6.2 8l-332.8 93H499c-11.6-3.5-23.3-7.2-35-10.5-98.8-27.4-197.6-54.8-296.5-82.1-4.5-1.2-5.9-3.1-6.3-7.9-2.3-28.7-5.1-57.3-7.6-86-2.1-23.6-4.1-47.3-6.2-70.9l-6.6-73.2c-2.1-23.5-4.1-46.9-6.2-70.4l-6.6-73.8c-2.1-23.6-4.1-47.3-6.2-70.9l-6.6-73.2c-1.7-19-3.3-38-5-56.9-2.2-24.8-4.5-49.6-6.7-74.4-2.1-23.3-4.1-46.5-6.1-69.8-2.2-24.8-4.5-49.6-6.6-74.4-1.3-14.4-2.4-28.6-3.7-43.6h826.8c-.7 5.3-1 10.9-1.6 16.4z"/></svg>