<svg xmlns="http://www.w3.org/2000/svg" viewBox="0 0 1000 1000"><style>.st0{display:none}.st1,.st2{display:inline}.st2{fill:none;stroke:#000;stroke-miterlimit:10}.st3{fill:#fff}</style><g id="black_x5F_bg" class="st0"><path class="st1" d="M-2-2H998V998H-2z"/></g><g id="guide_x5F_path" class="st0"><path class="st2" d="M74 31h848v934H74z"/></g><path class="st3" d="M896 0H100C44.8 0 0 44.8 0 100v796c0 55.2 44.8 100 100 100h796c55.2 0 100-44.8 100-100V100C996 44.8 951.2 0 896 0zM696.7 84.6c36.6.1 65.2 28.9 65 65.6-.2 35.7-29.3 64.9-65 65-35.9.2-65.8-29.6-65.8-65.5 0-36.3 29.2-65.2 65.8-65.1zM507.3 31c35.6.5 64.7 30.1 64.6 65.6-.2 36-29.9 65.3-66.1 65.2-36.2-.1-64.9-29.5-64.7-66.1.3-36.4 29.7-65.2 66.2-64.7zm-76.8 275.1h137.6c16.2 0 22.2 7.3 18 23.1-1.9 7.2-5 14.3-8.8 20.6-20.9 34.3-49.3 62.1-78.6 90.8-31.8-31.3-60.6-63.1-82.3-100.7-1.4-2.5-2.7-5.1-3.7-7.7-7-18.9-2-26.1 17.8-26.1zM308.3 84.6c36.5 0 65.8 29.1 65.7 65.3-.1 35.9-30.2 65.7-66 65.4-35.8-.3-64.6-29.3-64.7-65.2-.2-36.8 28.3-65.5 65-65.5zM465 821.2c-18.7 29.1-35.7 59.1-41.8 93.5-2.9 16.4-2.5 33.3-3.7 50.7H270.9c1.1-101.3 32.6-192.1 90.1-277.9 35.9 41.2 70.4 81 105.1 120.5 4.8 5.5 1.6 9-1.1 13.2zm353.3-445.6c-33.9 78.3-84.3 145.5-142.7 206.9-21.4 22.5-45 43-67.9 64.8C682 739.4 722.2 848.9 725 965H577c-1.9-19.2-2.1-46.4-6.3-64.3-9.7-42-33.5-77.3-58.7-111.4-40.6-55.3-87-105.6-135.8-153.8-55.9-55.3-110.1-112-153-178.4-32.7-50.6-59.8-103.6-70.9-163.5-1.8-9.8-3.1-19.9-3-29.9.1-18.9 11.1-25.1 27.7-15.8 9.4 5.2 17.8 12.1 27.2 17.2C235.9 282.2 270.4 290 306 293c2.5.2 4.9.5 7 .7 29.6 91.9 92.6 160.1 157.1 227.1 9.4 9.8 19.6 18.9 30.9 29.7 25.7-27.5 51.5-53.9 75.7-81.6 36.3-41.3 69.1-85.2 91.8-135.7 3.4-7.5 7.1-15.1 8.7-23.1 2.2-11 7.3-15.3 18.9-16.3 44-3.8 84.5-17.6 120.7-43.7 5.5-4 15.9-6.1 21.5-3.5 4.6 2.1 7.6 12.5 7.5 19.1-.3 38.9-12.4 74.9-27.5 109.9z" id="Layer_4"/></svg>