<svg xmlns="http://www.w3.org/2000/svg" viewBox="0 0 1000 1000"><path d="M899.6 0H100.4C45 0 0 45 0 100.4v799.2C0 955 45 1000 100.4 1000h799.2c55.4 0 100.4-45 100.4-100.4V100.4C1000 45 955 0 899.6 0zM699.5 84.9c36.7.1 65.5 29 65.3 65.9-.2 35.8-29.4 65.2-65.3 65.3-36 .2-66.1-29.7-66.1-65.8 0-36.4 29.4-65.5 66.1-65.4zM509.3 31.1c35.7.5 65 30.2 64.9 65.9-.2 36.1-30 65.6-66.4 65.5-36.3-.1-65.2-29.6-65-66.4.4-36.6 29.9-65.5 66.5-65zm-77.1 276.2h138.2c16.3 0 22.3 7.3 18.1 23.2-1.9 7.2-5 14.4-8.8 20.7-21 34.4-49.5 62.3-78.9 91.2C468.9 411 440 379 418.2 341.3c-1.4-2.5-2.7-5.1-3.7-7.7-7.2-19-2.2-26.3 17.7-26.3zM309.5 84.9c36.6 0 66.1 29.2 66 65.6-.1 36-30.3 66-66.3 65.7s-64.9-29.4-65-65.5c-.1-36.9 28.5-65.8 65.3-65.8zm157.4 739.6c-18.8 29.2-35.8 59.3-42 93.9-2.9 16.5-2.5 33.4-3.7 50.9H272c1.1-101.7 32.7-192.9 90.5-279 36 41.4 70.7 81.3 105.5 121 4.8 5.5 1.6 9-1.1 13.2zm354.7-447.4c-34 78.6-84.6 146.1-143.3 207.7-21.5 22.6-45.2 43.2-68.2 65.1 74.6 92.5 115 202.4 117.8 319H579.3c-1.9-19.3-2.1-46.6-6.3-64.6-9.7-42.2-33.6-77.6-58.9-111.8-40.8-55.5-87.3-106-136.3-154.4-56.1-55.5-110.5-112.4-153.6-179.1-32.8-50.8-60-104-71.2-164.2-1.8-9.8-3.1-20-3-30 .1-19 11.1-25.2 27.8-15.9 9.4 5.2 17.9 12.1 27.3 17.3 31.8 17.2 66.5 25 102.2 28 2.5.2 4.9.5 7 .7 29.7 92.3 93 160.7 157.7 228 9.4 9.8 19.7 19 31 29.8 25.8-27.6 51.7-54.1 76-81.9 36.4-41.5 69.4-85.5 92.2-136.2 3.4-7.5 7.1-15.2 8.7-23.2 2.2-11 7.3-15.4 19-16.4 44.2-3.8 84.8-17.7 121.2-43.9 5.5-4 16-6.1 21.6-3.5 4.6 2.1 7.6 12.6 7.5 19.2-.3 39-12.5 75.2-27.6 110.3z"/></svg>