<svg xmlns="http://www.w3.org/2000/svg" viewBox="0 0 1000 1000"><path d="M922 996v-3.4c-8.3 2.2-17 3.4-26 3.4h26zm-847.5 0H100c-8.8 0-17.4-1.1-25.5-3.3v3.3z"/><path d="M899.6 0H100.4C45 0 0 45 0 100.4v799.2c0 46.6 31.7 85.7 74.8 97.1 8.1 2.1 16.8 3.3 25.6 3.3h799.2c9 0 17.8-1.2 26.1-3.4 42.8-11.4 74.3-50.5 74.3-97V100.4C1000 45 955 0 899.6 0zM527.9 867.2c-12.4 32-35.9 51.8-68.8 60.3-30.2 7.8-60.6 7.4-90.4-2.7-32.3-11-54.8-33.1-69.9-63.5-.2-.5-.3-1-.6-2 21.4-13 43-26 64.8-39.2 2.4 4 4.4 7.9 7 11.4 4.2 5.9 8.2 12 13.3 17.2 11.5 11.8 26.3 13.9 42 11.5 18-2.7 28.2-13.5 30.4-31.5.9-7.4 1.5-15.1 1.5-22.6.1-86.5.1-173.1.1-259.6v-6.8h79.6c.1 1.5.2 2.8.2 4.1v264.9c-.1 20.1-2 39.7-9.2 58.5zM857 836.4c-2.7 24-12.3 44.7-29.9 61.5-16.5 15.8-36.3 25-58.2 29.9-35.1 7.8-70.2 6.7-104.4-4.7-36.7-12.2-64.6-35.3-82.9-69.7-.4-.7-.7-1.4-1.3-2.5 21.8-12.7 43.2-25 65-37.6 1.7 2.6 3.3 4.9 4.8 7.2 10.6 15.5 23.4 28.7 41.5 35.3 21.4 7.8 43 8.7 64.2-.7 28.6-12.8 28.7-47.8 6.8-63.7-12-8.7-25.6-14.3-38.9-20.4-18.8-8.6-37.9-16.9-56.2-26.4-17.9-9.2-33.2-22-44.8-38.9-14-20.3-18.8-43.2-18.3-67.5 1.1-48.9 32.5-87.6 80-98.8 30.9-7.3 61.4-6.5 91.4 4.9 23.3 8.8 40.4 25.4 53.7 46 1.7 2.7 3.3 5.5 5.2 8.6-20.8 13.4-41.4 26.6-61.8 39.7-3.9-5.5-7.3-10.8-11.3-15.7-14.1-16.8-32.2-21.3-52.8-16.6-12.8 2.9-21.7 11.1-24.6 24.2-3.2 14.5.2 27.3 12 37 11.5 9.4 25.2 15 38.7 20.8 24.4 10.5 48.9 20.6 71.1 35.4 20.6 13.9 37.2 31 45.5 55 6.4 19 7.7 38.2 5.5 57.7z"/></svg>