<svg xmlns="http://www.w3.org/2000/svg" viewBox="0 0 1000 1000"><style>.st0{display:none}.st1{display:inline}.st2{fill:none}.st3{fill:#fff}</style><g id="black_x5F_bg" class="st0"><path class="st1" d="M-2-2H998V998H-2z"/></g><path class="st2" d="M74 31h848v934H74z" id="guide_x5F_path"/><g id="Layer_4"><path d="M922 996v-3.4c-8.3 2.2-17 3.4-26 3.4h26zm-847.5 0H100c-8.8 0-17.4-1.1-25.5-3.3v3.3z"/><path class="st3" d="M896 0H100C44.8 0 0 44.8 0 100v796c0 46.4 31.6 85.4 74.5 96.7 8.1 2.1 16.7 3.3 25.5 3.3h796c9 0 17.7-1.2 26-3.4 42.6-11.4 74-50.3 74-96.6V100C996 44.8 951.2 0 896 0zM525.8 863.7c-12.4 31.9-35.8 51.6-68.5 60.1-30.1 7.8-60.4 7.4-90-2.7-32.2-11-54.6-33-69.6-63.2-.2-.5-.3-1-.6-2 21.3-12.9 42.8-25.9 64.5-39 2.4 4 4.4 7.9 7 11.4 4.2 5.9 8.2 12 13.2 17.1 11.5 11.8 26.2 13.8 41.8 11.5 17.9-2.7 28.1-13.4 30.3-31.4.9-7.4 1.5-15 1.5-22.5.1-86.2.1-172.4.1-258.6v-6.8h79.3c.1 1.5.2 2.8.2 4.1v263.8c-.1 20-2 39.5-9.2 58.2zm327.8-30.6c-2.7 23.9-12.3 44.5-29.8 61.3-16.4 15.7-36.2 24.9-58 29.8-35 7.8-69.9 6.7-104-4.7-36.6-12.2-64.3-35.2-82.6-69.4-.4-.7-.7-1.4-1.3-2.5 21.7-12.6 43-24.9 64.7-37.4 1.7 2.6 3.3 4.9 4.8 7.2 10.6 15.4 23.3 28.6 41.3 35.2 21.3 7.8 42.8 8.7 63.9-.7 28.5-12.7 28.6-47.6 6.8-63.4-12-8.7-25.5-14.2-38.7-20.3-18.7-8.6-37.7-16.8-56-26.3-17.8-9.2-33.1-21.9-44.6-38.7-13.9-20.2-18.7-43-18.2-67.2 1.1-48.7 32.4-87.2 79.7-98.4 30.8-7.3 61.2-6.5 91 4.9 23.2 8.8 40.2 25.3 53.5 45.8 1.7 2.7 3.3 5.5 5.2 8.6-20.7 13.3-41.2 26.5-61.6 39.5-3.9-5.5-7.3-10.8-11.3-15.6-14-16.7-32.1-21.2-52.6-16.5-12.7 2.9-21.6 11.1-24.5 24.1-3.2 14.4.2 27.2 12 36.9 11.5 9.4 25.1 14.9 38.5 20.7 24.3 10.5 48.7 20.5 70.8 35.3 20.5 13.8 37.1 30.9 45.3 54.8 6.6 18.4 7.9 37.5 5.7 57z"/></g></svg>