<svg xmlns="http://www.w3.org/2000/svg" viewBox="0 0 1000 1000"><path d="M768.6 456.9c-23.8 0-34.3 21.8-36.2 38h68.8c.4-14.9-6.1-38-32.6-38zM392.9 458.7c-16.1 0-31.1 11.4-35.6 29-.8 2.9-1.6 6.4-1.6 9.6v22.1c0 3.5.5 6.6 1.1 9.6 4.3 16.2 18.5 27.4 35.4 27.4 24.9 0 39.4-20.2 39.4-49.7-.1-25.9-13.8-48-38.7-48z"/><path d="M900 0H100C44.8 0 0 44.8 0 100v800c0 55.2 44.8 100 100 100h800c55.2 0 100-44.8 100-100V100c0-55.2-44.8-100-100-100zM728.9 79.6c28.7-1.2 52.9 21 54.1 49.7 1.2 28.7-21 52.9-49.7 54.1-28.7 1.2-52.9-21-54.2-49.7-1.1-28.6 21.2-52.9 49.8-54.1zM501.3 165c147.5 0 273 93.8 320.3 225-62.5-73.2-182.5-122.7-320.3-122.7S243.5 316.8 181 390c47.3-131.1 172.8-225 320.3-225zm171.4 390.3c6.2 0 10.7-.8 13.7-1.6l1.1 17.5c-4.6 1.9-11.8 3.2-20.9 3.2-11 0-19.8-3.5-25.5-9.8-6.7-6.9-9.1-18.3-9.1-33.5v-70.2h-20.1v-17.8H632v-30.8l23-6.1v37h33.8V461H655v69.4c0 15.8 4.6 24.9 17.7 24.9zm-153.6 6.3l-48-118.6h25.7l28.4 76c2.9 8.5 6.2 18.6 8.3 26.3h.5c2.4-7.7 5.1-17.5 8.3-26.9l25.7-75.5h25l-35.4 91.7c-16.9 44.1-28.4 66.7-44.5 80.6-11.5 10.1-23 14.1-28.9 15.2l-5.9-19.7c5.9-1.9 13.7-5.6 20.6-11.4 6.4-5.1 14.5-14.1 19.8-26.1 1.1-2.4 1.9-4.3 1.9-5.6.1-1.2-.4-3-1.5-6zM331.3 443.1h21.2l1.1 22.1h.5c9.6-15.7 24.9-25 46.1-25 31.3 0 54.9 26.3 54.9 65.4 0 46.3-28.4 69.1-58.9 69.1-17.1 0-32.1-7.4-39.9-20.2h-.5v69.9h-23.3V485.1c-.1-16.5-.7-29.8-1.2-42zM135.5 559.8c0 25-4 41.2-15.5 52.9-10.4 10.4-27.6 14.6-40.2 14.6L77.3 609c10.7-.8 20.1-3.7 25.7-9.8 6.4-7.4 8.8-17.5 8.8-48.4V443.1h23.6l.1 116.7zm31.6-368.7c-.8-18.5 13.5-34.1 32-34.9 18.5-.8 34.1 13.5 34.9 32 .8 18.5-13.5 34.1-32 34.9s-34.1-13.5-34.9-32zm11.5 252h23.6v71.3c0 24.5 7.5 40.9 28.9 40.9 15.8 0 26.8-10.9 31.1-21.3 1.3-3.5 2.1-7.7 2.1-12v-79h23.6v93.6c0 13.3.3 25 1.1 35.1h-20.9l-1.3-21h-.5c-6.2 10.4-19.8 23.9-42.9 23.9-20.4 0-44.7-11.2-44.7-56.4v-75.1h-.1zm64.5 477.3c-29.5 1.3-54.5-21.7-55.8-51.2s21.7-54.5 51.2-55.8 54.5 21.7 55.8 51.2c1.3 29.6-21.7 54.5-51.2 55.8zm258.2-74.3c-147.5 0-273-93.8-320.3-225 62.5 73.2 182.5 122.7 320.3 122.7s257.8-49.5 320.3-122.7c-47.3 131.1-172.8 225-320.3 225zm322-334.4h-91.1c.5 31.6 20.9 44.7 44.5 44.7 16.9 0 27.1-2.9 35.9-6.6l4 16.7c-8.3 3.7-22.5 8-43.1 8-39.9 0-63.8-26.1-63.8-64.9s23-69.4 60.8-69.4c42.3 0 53.6 37 53.6 60.6 0 4.7-.6 8.5-.8 10.9zm99.4-48.7c-2.4-.5-4.8-.8-8-.8-16.6 0-28.4 12.5-31.6 30-.5 3.2-1.1 6.9-1.1 10.9v68.6h-23.3v-88.5c0-15.2-.3-28.2-1.1-40.1h20.6l.8 25.3h1.1c5.9-17.3 20.1-28.2 35.9-28.2 2.7 0 4.6.3 6.7.8v22z"/></svg>