<svg xmlns="http://www.w3.org/2000/svg" viewBox="0 0 1000 1000"><style>.st0{display:none}.st1,.st2{display:inline}.st2{fill:none;stroke:#000;stroke-miterlimit:10}.st3{fill:#fff}</style><g id="black_x5F_bg" class="st0"><path class="st1" d="M-2-2H998V998H-2z"/></g><g id="guide_x5F_path" class="st0"><path class="st2" d="M74 31h848v934H74z"/></g><g id="Layer_4"><path class="st3" d="M896 0H100C44.8 0 0 44.8 0 100v796c0 55.2 44.8 100 100 100h796c55.2 0 100-44.8 100-100V100C996 44.8 951.2 0 896 0zM695.7 144.3c23.6-.5 43.5 20.1 43.3 43.5-.2 23.9-19.7 43.8-43.5 43.5-24.4-.3-43.4-18.9-43.4-43.7.1-25.5 20.9-43.7 43.6-43.3zM318.6 282c40.3-32.3 85.5-53.4 136.5-61.4 148.4-23.1 272.5 67.9 315.1 183.9-39.2-42.3-87.6-67.3-141.3-83.4-25.7-7.7-51.9-12.6-78.6-15.5-22.3-2.4-44.6-3.3-66.9-2.4-67.6 2.8-131.9 17.9-191 52-18.8 10.8-34 22.9-60.2 48.1 2.2-25.1 50.9-92.9 86.4-121.3zM631 527.5c0 4 .6 8 1.6 11.9 1.8 6.3 5.9 9.3 12.5 9.4 4 .1 8-.4 12.3-.6.3 4 .7 8.1.8 12.2 0 .8-.8 1.9-1.5 2.3-9.8 4.8-28.6 2.1-36.3-5.2-6-5.6-7.9-13-8.1-20.7-.5-20.4-.5-40.8-.7-61.2-.1-8.6 1.1-7.3-7.7-7.5h-9c-.2-1.2-.3-1.9-.4-2.6v-12h17c0-7.8.2-15.1-.1-22.3-.1-3.2.9-4.5 4-5.1 4.9-1 9.8-2.5 15.2-3.9v31.3h28.6v14.6h-28c-.2 1.9-.3 3.2-.3 4.5 0 18.2-.1 36.6.1 54.9zm-115.9 24.9c-7.7-19.3-15.5-38.7-23.3-58-4.8-12-9.7-24-14.5-36-.5-1.4-1-2.8-1.7-4.9 6.8 0 12.9-.2 19 .2 1.2.1 2.9 1.9 3.4 3.3 9.6 26.4 19 52.9 28.5 79.4.4 1.2.9 2.4 1.7 4.4.8-1.9 1.3-3 1.6-4.2 8.8-26.4 17.5-52.8 26.2-79.3.9-2.9 2.3-4 5.4-3.9 5.3.3 10.7.1 16.6.1-1 2.8-1.8 5.1-2.6 7.2-13.4 34.2-26.6 68.5-40.4 102.6-5.3 13.1-12.3 25.5-23 35.3-7.2 6.6-15.3 11.8-25.6 14.1-1.6-5.3-3.2-10.5-4.6-15.1 6.7-4.5 13.3-8.4 19.3-13.2 7-5.6 11.4-13.2 15.2-21.3 1.7-3.8.2-7.3-1.2-10.7zm-65.2-6.9c-13.3 19.8-41.6 25.8-61.1 13.5-4.2-2.6-7.6-6.5-12-10.3v58.7h-19.6V454H374c.4 5.7.8 11.6 1.2 17.4.4.2.7.5 1.1.7.4-.8.7-1.6 1.2-2.3 16-25.3 62.4-27.9 77.9 8.8 9.6 22.8 8.6 45.8-5.5 66.9zm-260.3 15.2c-.1 10.2-1.8 20.2-6.9 29.2-7.2 12.5-19 17.5-32.4 19.5-2 .3-4.1.3-6.7.5v-15.1c2.6-.6 5-1.2 7.4-1.9 10-2.6 16.2-9.1 17.3-19.3 1.2-10.3 1.8-20.8 1.9-31.2.2-27.7.1-55.4.1-83.2v-5.6h19.2c.1 1.3.4 2.5.4 3.6-.1 34.6-.1 69.1-.3 103.5zm28.2-324.5c.2-15 12.8-26.7 28.4-26.5 15.1.3 26.9 12.4 26.7 27.6.4 14.4-11 27.7-27.2 27.8-16.4.2-28.1-12.5-27.9-28.9zm9.1 279.8c-.2-19.4-.1-38.8-.1-58.1 0-1.3.2-2.6.3-4.2h19.5v5.5c.1 20.1.1 40.3.3 60.4 0 3.5.7 7.1 1.6 10.6 4.8 17.8 22.4 24.4 37.9 14.2 9.4-6.2 13.4-15.2 13.4-26.2v-64.4h19.8v108.6H303c-.4-5.6-.9-11.2-1.4-18-1.4 1.9-2.2 3-3 4-12.2 15.9-33.3 21.2-51.2 12.6-11.6-5.6-16.5-15.9-18.8-27.7-1.2-5.6-1.6-11.5-1.7-17.3zm61.3 343.2h-17.9c-6.4-3.4-13.3-6-19-10.3-14-10.3-19.8-29.8-14.9-46.9 5-17.3 20.2-29.9 37.3-32.2 25.6-3.5 50 16.6 50.6 43.7.4 16.8-8.7 32-23.1 40.1-2.3 1.4-11.2 4.9-13 5.6zM505 796c-130.1 1.8-234.7-81.6-273.4-186.4.5.2.9.3 1.2.5 31.9 34.5 71.3 57.2 114.8 73.5 30.1 11.3 61.2 18.4 93 22.6 25.3 3.3 50.7 4.7 76.2 3.6 61-2.6 119.7-14.8 174.6-42.6 29.4-14.9 55.9-33.6 78.8-59C731.3 714.1 628.7 794.3 505 796zm264-284.3c-22.4-.2-44.7-.1-67.1-.1h-5.2c-.2 22.9 13.4 37.2 35.4 38.1 11 .5 21.7-1 32.4-5.3 1.2 4.8 2.2 9 3.4 14-4.1 1.3-8.1 2.8-12.2 3.7-14.1 3.2-28.4 4.4-42.4.3-19.7-5.8-30.9-19.6-34.5-39.4-3.2-17.6-.9-34.5 8.8-49.9 13.8-22 45-29.2 66.1-15.4 11.5 7.5 16.9 19 19.2 32 1 5.5.7 11.3 1.2 16.9.4 3.9-1.1 5.1-5.1 5.1zm88.8-42.3c-.9.1-1.9.4-2.9.3-16.5-2-26.8 9.7-29.7 22.5-1.1 4.8-1.7 9.7-1.7 14.6-.2 16.9-.1 33.7-.1 50.6v5.1h-19.5v-109c4.6 0 9.4-.2 14.1.2.9.1 2.4 2.3 2.4 3.6.3 5.6.1 11.2.8 17.1 7.7-15.2 18.1-25.2 36.6-22.9v17.9z"/><path class="st3" d="M379 489c3.8-12.8 14.3-21.4 27.8-22.3 12.5-.8 22.5 4.5 28.4 15.7 9 17 8.8 34.5 0 51.4-7 13.3-20.8 18.6-34.9 15.1-13.7-3.4-21.3-15-23.5-29.6 0-.1-2.8-13.3 2.2-30.3zm349-24.1c-16.8 0-31.9 15.9-30.7 32.3H755c1.5-18.1-10.5-32.3-27-32.3zM304 852s-27 14-53-3c-16.9-11.1-14 39-14 39l65 15 30-23-28-28z"/></g></svg>