<svg xmlns="http://www.w3.org/2000/svg" viewBox="0 0 1000 1000"><path d="M900 0H100C44.8 0 0 44.8 0 100v800c0 55.2 44.8 100 100 100h800c55.2 0 100-44.8 100-100V100c0-55.2-44.8-100-100-100zM295 850.9H149.2V376.4H295v474.5zm-74.5-542.4c-42.9.3-84.5-40.1-83.2-87 1.2-44.3 40.2-84.2 84.5-82.2 49.6-1.5 86 38.8 85.9 83.6-.1 46.1-34.5 85.2-87.2 85.6zm631.1 531.9v10.5H704.5v-10.8c0-82.9.5-165.7-.4-248.6-.2-18.3-3.7-37.3-9.3-54.8-8-25.2-26.6-39.6-53.6-43.2-25.2-3.3-48.4.1-69.6 14.6-16 10.9-23.7 27.3-27.8 44.9-3.6 15.7-5.6 32.2-5.7 48.3-.6 79.5-.3 159-.3 238.5V851H391.2V376.7h138.9v62.7l2.4 1.5c2.3-2.4 4.9-4.6 6.7-7.3 22.3-35.2 54.4-56.4 94.8-64.7 15.6-3.2 31.7-5.9 47.4-5.3 39.7 1.5 78.4 8.4 110.4 34.9 19 15.7 32.1 36 40.7 58.9 8.5 22.8 14.5 46.5 15.3 70.9 1.8 53.9 3 107.8 3.7 161.7.5 50.1.1 100.2.1 150.4z"/></svg>