<svg xmlns="http://www.w3.org/2000/svg" viewBox="0 0 1000 1000"><path d="M899.6 0H100.4C45 0 0 45 0 100.4v799.2C0 955 45 1000 100.4 1000h799.2c55.4 0 100.4-45 100.4-100.4V100.4C1000 45 955 0 899.6 0zm25.5 918.7c-1.9-1.3-4-2.4-5.5-4-6.2-6.8-13.6-12.1-21-17.4-11.3-8.1-22.2-17.1-34.5-23.7-10.7-5.7-21.7-11.1-32.7-16.1-20-8.9-38.6-20.2-55.9-33.6-8.8-6.8-18-13.1-25.2-21.7-7-8.4-14-17-18.8-26.9-1.4-2.9-2.4-5.9-3.6-8.8-.5-1.2-1.1-2.6-2-3.5-1.6-1.6-1.4-3.2-.5-4.8.8-1.4 1.7-2.8 3-3.8 1.5-1.2 3.2-2.2 5-2.8 13.3-4.4 26.5-8.9 40-12.9 12.1-3.5 24.6-5.2 37.1-6.4 16.2-1.5 32.3-1.9 48.5-1.6.4 0 .8-.1 1.8-.1-.8-1.7-1.2-3.5-2.2-4.6-3.2-3.5-6.4-7.1-10.2-9.9-5.7-4.3-11.9-8-17.9-12-13.3-9-26.3-18.3-39.6-27.3-8.9-6.1-18.1-11.9-27.1-17.8-7.3-4.7-15.6-7.4-23.6-10.2-12.6-4.4-25.2-9-37.9-13.3-9.3-3.1-18.8-5.7-27.6-10-4.9-2.4-9.1-5.6-12.4-10.1-10.8-14.8-19.3-30.9-26.9-47.5-15.7-33.9-31.4-68-47-102-4.4-9.7-8.5-19.6-12.2-29.6-5.9-16.4-14.3-31.5-23.1-46.4-28.5-48.4-64-91.2-106.4-127.9-30.9-26.8-64.5-49.8-101.3-67.8-13.9-6.7-28.1-13-43-17.1-6.6-1.9-13.7-2.6-20.6-3.2-11.7-1-23.5-.8-35.1-3-2.7-.5-5.7-.3-8.5-.1-4 .3-7.5-.9-10.6-3.1-3.1-2.1-6.3-4.2-9-6.8-9-8.7-19.4-15.4-30.4-21.2-16.4-8.6-33.2-16-50.6-22.1-6.1-2.2-12.4-3.8-19.1-2.7-4.2.7-8.6 2-11.3 5.3-3.1 3.8-4.9 8.5-4.3 13.7.9 8.1 4.5 15.3 8.4 22.2 5.7 10.1 13.7 18.6 20.5 27.9 10 13.8 20.1 27.5 29.4 41.8 9.2 14.1 14.5 29.9 19.8 45.8 6 18.2 11.7 36.4 18 54.5 6 17.8 15 34.1 25.7 49.5 2.6 3.8 6.3 6.9 9.5 10.3 2 2.1 4.2 4.1 6.1 6.2 6.5 7.3 8.7 15.8 6.7 25.5-2.7 13.4-7.5 25.9-12.4 38.6-5.4 14.1-8.5 28.7-10.5 43.7-1.8 13.8-2.5 27.5-2 41.4.8 25 4.1 49.5 13.2 73 4.1 10.6 8.1 21.3 14.7 30.7 4.3 6.2 9.9 10.9 17.4 13.3 2.3.7 4.1-.3 4.3-2.7 1.2-10.4 2.3-21 3.6-31.4 2.2-18.9 4.9-37.6 12.9-55 1.3-3 2.7-6 4.6-8.6 7.3-9.9 15-19.7 22.8-30 1.2 1.6 2.3 2.8 3.1 4.1.6.9 1 2 1.4 3.1 8.6 27 20.7 52.5 33.7 77.6 18.5 35.4 39.5 69.4 63.5 101.3 8.2 10.9 17.5 21.1 27.2 30.6 1.9 1.8 4.2 3.1 6.2 4.8 2.8 2.4 5.5 4.9 8.2 7.3l-.6.9c-3-1.7-6.1-3.1-8.9-5.1-3.6-2.6-7.3-5.3-10.3-8.5-11.3-11.9-24-22.3-36.6-32.7-21.3-17.6-40.7-37-56.7-59.6-4-5.7-6.7-12-9.8-18.2-6.1-12.2-12.1-24.4-18.9-36.8-.7 2.1-1.6 4.1-1.9 6.2-2.7 16.5-5.2 32.8-7.8 49.3-1.1 6.7-2.7 13.3-6.1 19.3-8.3 14.9-27.7 20.3-43.6 12.4-9.7-4.8-17-12.3-23.6-20.7-13.5-17.2-21.9-36.7-27.8-57.5-4.8-17.2-7.5-34.7-8.7-52.5-.9-13.4-.8-26.8.2-40.2 1.5-19.8 5.3-39.2 11.1-58.1 2.4-8 3.9-16.5 5.8-24.7 1.4-5.7 3.3-11.3 6.4-16.4.4-.7.5-1.9.2-2.8-.8-3.5-2.5-6.6-5.2-8.9-10.4-8.7-16.7-20.5-23.3-31.9-12.4-21.4-21-44.5-29-67.8-5.2-15.2-10.9-30.2-14.8-45.9-2.3-9.7-7.6-18.1-13.6-26-11.6-15.8-23.7-31.2-35.4-46.9-8.1-10.7-15.6-22-20-34.9-5.8-17.1-4-33.1 6.3-48 7-10.1 17-15.8 29.1-17.8 14.2-2.3 27.8.2 41.3 4.1 22.5 6.5 43.2 17 62.9 29.4 6.5 4.1 12.2 9.5 18.3 14.4l1.5 1.2c5 4.4 10.4 6.9 17.5 7 11.6.1 23.2.9 34.7 1.8 3.9.3 7.8 1.6 11.6 2.5 15 3.4 29.9 7 44.4 12.3 9.5 3.6 18.5 8.4 27.2 13.7 33.7 20.3 66.1 42.4 96.1 67.9 36.3 30.9 67.8 66.2 94.9 105.3 10.8 15.7 21.9 31.4 30.4 48.5 6.1 12.3 11 25.3 16.5 38 16.8 39.8 34.5 79 54.3 117.4 4.9 9.6 9.1 19.6 14.1 29.2 2.5 4.9 5.6 9.5 8.6 14.3 2.5 3.9 5.9 6.7 10.3 8.2 14.6 4.7 27.9 12 41.9 18.1 10.3 4.4 20.6 9.2 30.2 15 23.2 13.8 45 29.5 66.1 46.4 10.4 8.3 20.8 17 31 25.5 6.3 5.3 11.1 11.9 16.2 18.5 4.1 5.2 8.3 10.3 12.6 15.4 2 2.4 1.2 6-1.7 6.8-11.2 3.1-22.4 6.5-33.7 9-7.9 1.8-16.1 2.4-24.1 3.3-10.8 1.1-21.6 3-32 6.1-10.7 3.2-21.5 6-32.6 7.3 2.9 7.8 8.1 13.9 14.4 19.1 10 8.4 21.2 15.3 32.5 21.5 31.5 17.3 57.3 41 79.4 69.2 3 3.8 6.6 7.2 10.3 10.4 6.3 5.5 11.3 11.7 13.9 19.9.6 2 1.9 3.8 2.9 5.7.3.6.5 1.2 1 2.4-1.8-1.1-2.6-1.3-3.2-1.7zm-633.4-658c-1.2 8.9-4.8 16.5-12.8 21.8-1.1-2.2-2.2-4.4-3.2-6.6-2.3-4.8-4.7-9.6-6.8-14.5-2.2-5.1-5.4-9.4-9-13.7-4.2-5-8.1-10.4-12.1-15.6-.4-.5-1-.9-1.4-1.4v-.7c4.4-.7 6.9-1.2 11.3-1.8 1.1-.2 5.8-.7 7-.8 0 0 6-.3 8.9 3.1l11.5 10.6c3.3 3.6 7.2 15.6 6.6 19.6z"/></svg>