<svg xmlns="http://www.w3.org/2000/svg" viewBox="0 0 1000 1000"><style>.st0{display:none}.st1,.st2{display:inline}.st2{fill:none;stroke:#000;stroke-miterlimit:10}.st3{fill:#fff}</style><g id="black_x5F_bg" class="st0"><path class="st1" d="M-2-2H998V998H-2z"/></g><g id="guide_x5F_path" class="st0"><path class="st2" d="M74 31h848v934H74z"/></g><path class="st3" d="M896 0H100C44.8 0 0 44.8 0 100v796c0 55.2 44.8 100 100 100h796c55.2 0 100-44.8 100-100V100C996 44.8 951.2 0 896 0zm25.4 915c-1.9-1.3-4-2.4-5.5-4-6.2-6.8-13.5-12.1-20.9-17.3-11.3-8.1-22.1-17-34.4-23.6-10.7-5.7-21.6-11.1-32.6-16-19.9-8.9-38.4-20.1-55.7-33.5-8.8-6.8-17.9-13-25.1-21.6-7-8.4-13.9-16.9-18.7-26.8-1.4-2.9-2.4-5.9-3.6-8.8-.5-1.2-1.1-2.6-2-3.5-1.6-1.6-1.4-3.2-.5-4.8.8-1.4 1.7-2.8 3-3.8 1.5-1.2 3.2-2.2 5-2.8 13.2-4.4 26.4-8.9 39.8-12.8 12.1-3.5 24.5-5.2 37-6.4 16.1-1.5 32.2-1.9 48.3-1.6.4 0 .8-.1 1.8-.1-.8-1.7-1.2-3.5-2.2-4.6-3.2-3.5-6.4-7.1-10.2-9.9-5.7-4.3-11.9-8-17.8-12-13.2-9-26.2-18.2-39.4-27.2-8.9-6.1-18-11.9-27-17.7-7.3-4.7-15.5-7.4-23.5-10.2-12.5-4.4-25.1-9-37.7-13.2-9.3-3.1-18.7-5.7-27.5-10-4.9-2.4-9.1-5.6-12.4-10.1-10.8-14.7-19.2-30.8-26.8-47.3-15.6-33.8-31.3-67.7-46.8-101.6-4.4-9.7-8.5-19.5-12.2-29.5-5.9-16.3-14.2-31.4-23-46.2-28.4-48.2-63.7-90.8-106-127.4-30.8-26.7-64.2-49.6-100.9-67.5-13.8-6.7-28-12.9-42.8-17-6.6-1.9-13.6-2.6-20.5-3.2-11.7-1-23.4-.8-35-3-2.7-.5-5.7-.3-8.5-.1-4 .3-7.5-.9-10.6-3.1-3.1-2.1-6.3-4.2-9-6.8-9-8.7-19.3-15.3-30.3-21.1-16.3-8.6-33.1-15.9-50.4-22-6.1-2.2-12.4-3.8-19-2.7-4.2.7-8.6 2-11.3 5.3-3.1 3.8-4.9 8.5-4.3 13.6.9 8.1 4.5 15.2 8.4 22.1 5.7 10.1 13.6 18.5 20.4 27.8 10 13.7 20 27.4 29.3 41.6 9.2 14 14.4 29.8 19.7 45.6 6 18.1 11.7 36.3 17.9 54.3 6 17.7 14.9 34 25.6 49.3 2.6 3.8 6.3 6.9 9.5 10.3 2 2.1 4.2 4.1 6.1 6.2 6.5 7.3 8.7 15.7 6.7 25.4-2.7 13.3-7.5 25.8-12.4 38.4-5.4 14-8.5 28.6-10.5 43.5-1.8 13.7-2.5 27.4-2 41.2.8 24.9 4.1 49.3 13.1 72.7 4.1 10.6 8.1 21.2 14.6 30.6 4.3 6.2 9.9 10.9 17.3 13.2 2.3.7 4.1-.3 4.3-2.7 1.2-10.4 2.3-20.9 3.6-31.3 2.2-18.8 4.9-37.4 12.8-54.8 1.3-3 2.7-6 4.6-8.6 7.3-9.9 14.9-19.6 22.7-29.9 1.2 1.6 2.3 2.8 3.1 4.1.6.9 1 2 1.4 3.1 8.6 26.9 20.6 52.3 33.6 77.3 18.4 35.3 39.3 69.1 63.2 100.9 8.2 10.9 17.4 21 27.1 30.5 1.9 1.8 4.2 3.1 6.2 4.8 2.8 2.4 5.5 4.9 8.2 7.3l-.6.9c-3-1.7-6.1-3.1-8.9-5.1-3.6-2.6-7.3-5.3-10.3-8.5-11.3-11.9-23.9-22.2-36.5-32.6-21.2-17.5-40.5-36.9-56.5-59.4-4-5.7-6.7-12-9.8-18.1-6.1-12.2-12.1-24.3-18.8-36.7-.7 2.1-1.6 4.1-1.9 6.2-2.7 16.4-5.2 32.7-7.8 49.1-1.1 6.7-2.7 13.2-6.1 19.2-8.3 14.8-27.6 20.2-43.4 12.4-9.7-4.8-16.9-12.3-23.5-20.6-13.4-17.1-21.8-36.6-27.7-57.3-4.8-17.1-7.5-34.6-8.7-52.3-.9-13.3-.8-26.7.2-40 1.5-19.7 5.3-39 11.1-57.9 2.4-8 3.9-16.4 5.8-24.6 1.4-5.7 3.3-11.3 6.4-16.3.4-.7.5-1.9.2-2.8-.8-3.5-2.5-6.6-5.2-8.9-10.4-8.7-16.6-20.4-23.2-31.8-12.4-21.3-20.9-44.3-28.9-67.5-5.2-15.1-10.9-30.1-14.7-45.7-2.3-9.7-7.6-18-13.5-25.9-11.6-15.7-23.6-31.1-35.3-46.7-8.1-10.7-15.5-21.9-19.9-34.8-5.8-17-4-33 6.3-47.8 7-10.1 16.9-15.7 29-17.7 14.1-2.3 27.7.2 41.1 4.1 22.4 6.5 43 16.9 62.6 29.3 6.5 4.1 12.2 9.5 18.2 14.3l1.5 1.2c5 4.4 10.4 6.9 17.4 7 11.6.1 23.1.9 34.6 1.8 3.9.3 7.8 1.6 11.6 2.5 14.9 3.4 29.8 7 44.2 12.3 9.5 3.6 18.4 8.4 27.1 13.6 33.6 20.2 65.8 42.2 95.7 67.6 36.2 30.8 67.5 65.9 94.5 104.9 10.8 15.6 21.8 31.3 30.3 48.3 6.1 12.3 11 25.2 16.4 37.8 16.7 39.6 34.4 78.7 54.1 116.9 4.9 9.6 9.1 19.5 14 29.1 2.5 4.9 5.6 9.5 8.6 14.2 2.5 3.9 5.9 6.7 10.3 8.2 14.5 4.7 27.8 12 41.7 18 10.3 4.4 20.5 9.2 30.1 14.9 23.1 13.7 44.8 29.4 65.8 46.2 10.4 8.3 20.7 16.9 30.9 25.4 6.3 5.3 11.1 11.9 16.1 18.4 4.1 5.2 8.3 10.3 12.5 15.3 2 2.4 1.2 6-1.7 6.8-11.2 3.1-22.3 6.5-33.6 9-7.9 1.8-16 2.4-24 3.3-10.8 1.1-21.5 3-31.9 6.1-10.7 3.2-21.4 6-32.5 7.3 2.9 7.8 8.1 13.8 14.3 19 10 8.4 21.1 15.2 32.4 21.4 31.4 17.2 57.1 40.8 79.1 68.9 3 3.8 6.6 7.2 10.3 10.4 6.3 5.5 11.3 11.7 13.8 19.8.6 2 1.9 3.8 2.9 5.7.3.6.5 1.2 1 2.4-1.1-.6-1.9-.8-2.5-1.2zM290.5 259.7c-1.2 8.9-4.8 16.4-12.7 21.7-1.1-2.2-2.2-4.4-3.2-6.6-2.3-4.8-4.7-9.6-6.8-14.4-2.2-5.1-5.4-9.4-9-13.6-4.2-5-8.1-10.4-12.1-15.5-.4-.5-1-.9-1.4-1.4v-.7c4.4-.7 6.9-1.2 11.3-1.8 1.1-.2 5.8-.7 7-.8 0 0 6-.3 8.9 3.1l11.5 10.6c3.2 3.4 7.1 15.4 6.5 19.4z" id="Layer_4"/></svg>