<svg xmlns="http://www.w3.org/2000/svg" viewBox="0 0 1000 1000"><path d="M900 0H100C44.8 0 0 44.8 0 100v800c0 55.2 44.8 100 100 100h800c55.2 0 100-44.8 100-100V100c0-55.2-44.8-100-100-100zm23.7 698c.2 26.3-15.9 51.2-39 63.2-116 65.4-231.9 130.9-347.9 196.3-23.6 13.5-54.4 12.5-77.3-2.1l-104.4-60.3c-7.1-4.2-15.1-7.7-20.1-14.5 4.4-5.9 12.4-6.7 18.8-9.4 14.5-4.6 27.9-12 41.2-19.2 3.4-2.3 7.5-1.4 10.7.6 29.7 17 59.2 34.6 89.1 51.5 6.4 3.6 12.8-1.2 18.3-4.2C626.8 835.4 740.8 771.4 854.6 707c4.2-2 6.5-6.5 6.2-11.1.1-130.5 0-261 0-391.5.5-5.2-2.6-10.1-7.3-12.2C738 227 622.4 161.8 506.9 96.7c-4.1-2.8-9.5-2.8-13.6 0-115.6 65.2-231.1 130.4-346.7 195.5-4.7 2.1-7.9 6.8-7.3 12.2V696c-.4 4.6 2.1 9 6.3 11 30.8 17.5 61.7 34.8 92.6 52.3 17.4 9.4 38.7 14.9 57.9 7.8 16.9-6 28.8-23.4 28.4-41.3.2-129.8-.1-259.5.1-389.3-.4-5.7 5-10.5 10.6-10 14.8-.1 29.7-.2 44.5 0 6.2-.1 10.4 6 9.7 11.9-.1 130.6.2 261.1-.1 391.7 0 34.8-14.3 72.7-46.4 89.7-39.7 20.5-88.7 16.2-127.9-3.5-33.9-16.9-66.3-36.9-99.6-55.1-23.2-12-39.2-37.1-39-63.2V302.3c-.2-25.8 15-50.6 37.5-62.7 116-65.5 231.9-130.9 347.9-196.5 23.2-13.3 53.3-13.3 76.4 0C654.6 108.9 771 174.5 887.4 240.4c21.9 12.3 36.5 36.7 36.3 61.9V698zM712.1 570c-3.6-13.1-17.2-19.1-29-23.2-60.2-19-125.5-12.1-185.1-33.6-24.2-8.6-47.6-24.7-56.9-49.5-13-35.1-7-78.7 20.3-105.6C488 331.3 526.5 321 563 317.3c50.6-3.2 104.7-1.9 150.3 23 35.2 19.1 54.8 59.2 55.4 98.3-1 5.2-6.5 8.2-11.5 7.9-14.7 0-29.4.2-44-.1-6.2.2-9.8-5.5-10.6-11-4.2-18.7-14.4-37.3-32.1-46.3-27.1-13.6-58.5-12.9-88-12.6-21.5 1.1-44.7 3-63 15.7-14 9.6-18.3 29-13.3 44.6 4.7 11.2 17.7 14.8 28.2 18.1 61 15.9 125.6 14.4 185.4 35.3 24.8 8.6 49 25.2 57.5 51.1 11.1 34.7 6.2 76.2-18.5 104.1-20 23-49.2 35.4-78.4 42.2-38.7 8.7-78.9 8.9-118.3 5-37-4.2-75.5-13.9-104-39.2-24.4-21.2-36.3-54.3-35.2-86.1.3-5.3 5.6-9.2 10.8-8.7 14.8-.1 29.6-.2 44.3 0 5.9-.4 10.3 4.6 10.6 10.3 2.7 17.8 9.4 36.6 25 47.1 30 19.3 67.7 18 102.1 18.6 28.5-1.3 60.5-1.6 83.7-20.4 12.4-10.8 16-28.7 12.7-44.2z"/></svg>