<svg xmlns="http://www.w3.org/2000/svg" viewBox="0 0 1000 1000"><style>.st0{fill:#fff}.st1{fill:none}</style><g id="Layer_3"><path class="st0" d="M900 3H100C44.8 3 0 47.5 0 102.3v794.4C0 951.5 44.8 996 100 996h800c55.2 0 100-44.5 100-99.3V102.3C1000 47.5 955.2 3 900 3zm23.7 693.1c.2 26.1-15.9 50.8-39 62.8-116 64.9-231.9 130-347.9 194.9-23.6 13.4-54.4 12.4-77.3-2.1-34.8-20-69.6-39.9-104.4-59.9-7.1-4.2-15.1-7.6-20.1-14.4 4.4-5.9 12.4-6.7 18.8-9.3 14.5-4.6 27.9-11.9 41.2-19.1 3.4-2.3 7.5-1.4 10.7.6 29.7 16.9 59.2 34.4 89.1 51.1 6.4 3.6 12.8-1.2 18.3-4.2C626.8 832.6 740.8 769 854.6 705.1c4.2-2 6.5-6.5 6.2-11 .1-129.6 0-259.2 0-388.8.5-5.2-2.6-10-7.3-12.1C738 228.4 622.4 163.7 506.9 99c-4.1-2.8-9.5-2.8-13.6 0-115.6 64.7-231.1 129.5-346.7 194.1-4.7 2.1-7.9 6.8-7.3 12.1v388.9c-.4 4.6 2.1 8.9 6.3 10.9 30.8 17.4 61.7 34.6 92.6 51.9 17.4 9.3 38.7 14.8 57.9 7.7 16.9-6 28.8-23.2 28.4-41 .2-128.9-.1-257.7.1-386.6-.4-5.7 5-10.4 10.6-9.9 14.8-.1 29.7-.2 44.5 0 6.2-.1 10.4 6 9.7 11.8-.1 129.7.2 259.3-.1 389 0 34.6-14.3 72.2-46.4 89.1-39.7 20.4-88.7 16.1-127.9-3.5-33.9-16.8-66.3-36.6-99.6-54.7-23.2-11.9-39.2-36.8-39-62.8V303.2c-.2-25.6 15-50.2 37.5-62.3 116-65 231.9-130 347.9-195.1 23.2-13.2 53.3-13.2 76.4 0C654.6 111.1 771 176.3 887.4 241.7c21.9 12.2 36.5 36.4 36.3 61.5v392.9zM712.1 569c-3.6-13-17.2-19-29-23-60.2-18.9-125.5-12-185.1-33.4-24.2-8.5-47.6-24.5-56.9-49.2-13-34.9-7-78.1 20.3-104.9C488 331.9 526.5 321.7 563 318c50.6-3.2 104.7-1.9 150.3 22.8 35.2 19 54.8 58.8 55.4 97.6-1 5.2-6.5 8.1-11.5 7.8-14.7 0-29.4.2-44-.1-6.2.2-9.8-5.5-10.6-10.9-4.2-18.6-14.4-37-32.1-46-27.1-13.5-58.5-12.8-88-12.5-21.5 1.1-44.7 3-63 15.6-14 9.5-18.3 28.8-13.3 44.3 4.7 11.1 17.7 14.7 28.2 18 61 15.8 125.6 14.3 185.4 35.1 24.8 8.5 49 25 57.5 50.7 11.1 34.5 6.2 75.7-18.5 103.4-20 22.8-49.2 35.2-78.4 41.9-38.7 8.6-78.9 8.8-118.3 5-37-4.2-75.5-13.8-104-38.9-24.4-21.1-36.3-53.9-35.2-85.5.3-5.3 5.6-9.1 10.8-8.6 14.8-.1 29.6-.2 44.3 0 5.9-.4 10.3 4.6 10.6 10.2 2.7 17.7 9.4 36.3 25 46.8 30 19.2 67.7 17.9 102.1 18.5 28.5-1.3 60.5-1.6 83.7-20.3 12.4-10.7 16-28.5 12.7-43.9z"/><path class="st1" d="M76 33h848v934H76z"/></g></svg>