<svg xmlns="http://www.w3.org/2000/svg" viewBox="0 0 1000 1000"><path d="M221.6 262.4h-11.5v-57.7h14.2c10.5 0 15 5.9 15 19.3v18.5c0 15.1-6.7 19.9-17.7 19.9zm54.9 205.5h-30.9v140.8h30.9c20.8 0 32.1-9.5 32.1-39.2v-62.4c-.1-29.7-11.4-39.2-32.1-39.2zm229.8 0h-36.8v297h36.8c20.8 0 33.3-10.7 33.3-40.4V508.3c0-29.7-12.5-40.4-33.3-40.4zM1000 100v800c0 55.2-44.8 100-100 100H100C44.8 1000 0 955.2 0 900V100C0 44.8 44.8 0 100 0h800c55.2 0 100 44.8 100 100zM486.1 320.9c0 30 15 47.2 44 47.2s44-17.2 44-47.2v-143h-27.9v144.8c0 13.4-5.9 18.2-15.3 18.2s-15.3-4.8-15.3-18.2V177.9h-29.5v143zm-197.7 44.8h80.5v-26.8h-51v-55h40.5v-26.8h-40.5v-52.3h51V178h-80.5v187.7zm-107.8 0h29.5v-76.4h10.2c13.4 0 19.3 6.4 19.3 23.9v29.5c0 15.3 1.1 18.2 2.7 23.1h30c-3-7-3.2-13.7-3.2-22.8v-29c0-19.6-4.8-33.5-19.6-39.7v-.5c13.1-6.2 19.3-18.5 19.3-37.8v-14.8c0-29-13.1-43.2-43.7-43.2h-44.5v187.7zm193.3 145.5c0-66.5-32.1-102.7-97.4-102.7h-96.2v415.7h65.3V668h30.9c65.3 0 97.4-36.2 97.4-102.7v-54.1zm52.6-143.4c29 0 44-17.2 44-47.2 0-21.5-7.8-37-32.5-58.7-19.3-16.9-25.2-27.1-25.2-40.8 0-13.4 5.4-18.5 14.8-18.5s14.8 5.1 14.8 18.5v7.8h27.9V223c0-30-14.8-47.2-43.5-47.2S383.3 193 383.3 223c0 21.5 7.8 37 32.5 58.7 19.3 16.9 25.2 27.1 25.2 40.8 0 13.4-5.9 18.2-15.3 18.2s-15.3-4.8-15.3-18.2v-13.4h-27.9v11.5c0 30.1 15.1 47.2 44 47.2zm178.4 143.4c0-66.5-32.1-102.7-97.4-102.7H404.2v415.7h103.3c65.3 0 97.4-36.2 97.4-102.7V511.2zm36.7-145.5h27.9L689.4 231h.5v134.7h27.9V177.9h-41L657 311.2h-.5L635 177.9h-41v187.8h25.8V232.9h.5l21.3 132.8zm177.7 42.8H646.5v415.7h65.3V652.6h84.3v-59.4h-84.3V467.9h107.5v-59.4zm.5-230.6h-80.5v187.8h80.5v-26.8h-51v-55h40.5v-26.8h-40.5v-52.3h51v-26.9z"/></svg>