<svg xmlns="http://www.w3.org/2000/svg" viewBox="0 0 1000 1000"><path d="M899.6 0H100.4C45 0 0 45 0 100.4v799.2C0 955 45 1000 100.4 1000h799.2c55.4 0 100.4-45 100.4-100.4V100.4C1000 45 955 0 899.6 0zm25.8 600.3c-3.3 24.4-17.2 43-34.5 59.3-20.9 19.6-47.2 26.5-74.3 30.8-21.4 3.4-43 4.5-64.4 1.1-6.1-1-4.8 2.8-5.1 5.8-4.6 43.9-9.8 87.8-17 131.3-7 43.1-26.4 77.5-68.2 95.7-26.7 11.7-54.6 18.7-83.8 18.7-21.7 0-42.4-4.5-60.7-16.6-22.1-14.5-36.4-34.4-41.8-60.4-9.5-45.8-10.6-92.3-11.6-138.8-.1-3.4-.1-6.7-.1-10.1 0-3.1-.9-4.5-4.1-2.7-28.6 16.3-58.9 13.7-89.4 7.4-12.1-2.5-24.5-4.5-36.2-8.8-10.1-3.7-19.7-8-25.9-17.6-10.5 10.3-21.8 19.1-36.4 22-24.9 4.8-43.9-6.3-60.5-23.1-20.6-20.8-34.7-46-47-72.1C134.3 558 113.9 490.5 97 421.8c-9.6-39.4-19.6-78.8-22.4-119.3-3.6-47.5-.1-94.2 21.2-137.9 21.8-44.8 58-71.5 105.6-83.7 44.5-11.3 89.1-8.4 133.7-.9 21.5 3.7 42.7 8.8 63.5 15.4 4.5 1.4 8.1 1.4 12.4-.9 39.3-21.6 81.6-25.8 125.4-21.7 13 1.2 25.8 3.2 38.4 6.3 3.2.8 6-.1 9-1 65.1-19.8 130.6-23.7 196.5-4.8 50.3 14.4 91.3 43.1 123.4 84.1 12.8 16.3 15.6 35.9 16.9 55.8 2.5 40.4-4.3 79.7-13.8 118.7-20.1 82.3-52.5 159.5-95.1 232.6-5.1 8.8-5.1 8.7 5.3 9.4 21.2 1.3 42-1.3 62.8-5.3 4.3-.8 8.7-1.6 13.1-2 20.6-1.7 35.2 13 32.5 33.7z"/><path d="M715.4 328.8c-8.5 0-15.7 1.3-21.9 5.4-5.2 3.4-5.7 7.5-1.6 12.2 7.6 8.8 19.9 10.1 29.2 2.8 4.7-3.7 10.4-7.9 8.4-14.5-2.2-6.7-9.6-5.4-14.1-5.9zm169.7 256.5c-5.9-1.1-11.9-.6-17.9.5-21 3.8-41.9 7.7-63.4 6.7-7.3-.3-14.5-1.5-21.4-3.9-4.5-1.6-6.7-3.6-3-8.2 2.1-2.6 3.7-5.6 5.5-8.5 44.3-71.3 77.6-147.4 98.1-228.8 10.7-42.7 18.6-85.9 11.8-130.2-2.5-16.4-6.1-32.2-17.7-45.8-45-52.9-103.8-75.7-171.5-79.1-40.3-2.1-79.8 3.1-118.5 15-3.3 1-6.5 1-9.9.5-10.2-1.6-20.5-3.5-30.8-4.4-45.4-3.9-89.8-2.9-129 25-3 2.1-5.6 1.7-8.7.6-16.4-5.9-33.1-10.7-50.1-14.6-49.3-11.4-98.9-16-148.9-3.6-47.6 11.7-80.8 39.9-97.1 86.6-13.9 39.7-16.5 80.7-13.1 122.2 2.2 27.4 8.1 54.3 14.1 81.1 17.1 77.1 37.3 153.1 72.8 224.3 11.3 22.7 24.7 44 44.6 60.3 21.4 17.5 45.9 18 68 1.6 7.3-5.5 13.5-12.2 19.4-19.2 19.7-23.2 39.6-46.2 60.3-68.4 1.7-1.9 3-5.6 6.7-3.6 14 7.2 28.8 11 44.7 12.1-11.9 20.9-22.7 28.3-48.3 34-11.6 2.6-23.5 4.6-34.4 9.7-20.7 9.7-22.3 29.2-3.7 42.7 9.2 6.6 19.7 10.3 30.7 12.7 36.2 7.6 70.8 4.7 102-17.2 2.8-2 5.6-4.1 8.5-6.2 2 2.4 1.2 4.5 1.2 6.5.4 26 0 52 1.2 77.9 1.7 34.9 2 70 15.5 103.4 10.3 25.9 29 41.4 54.4 49.5s50.4 2.7 75.1-4.4c41.4-12 67-38.8 76-81.3 3.7-17.6 6.4-35.2 8.8-53 4.5-33.4 8.5-67 12.6-100.5.8-7.1 4-9.4 10.7-7.9 12 2.5 24.3 2.5 36.4 1.8 40.4-2.4 77.9-12.3 108.6-40.5 5.6-5.1 10.8-10.5 14.1-17.5 5.7-12.4-.9-25.3-14.4-27.9zM667.9 113.1c44.6-2.7 87.7 3 127.9 23.6 25.9 13.3 47.5 31.6 65.3 54.5 8.8 11.3 10 25.4 10.7 39.3 1.8 37.2-4.8 73.5-14.2 109.3-19.6 75.7-50.5 146.7-91.4 213.4-1.6 2.6-2.8 8.5-6.8 6.3-5.1-2.8 0-6.8 1.5-9.9 13.4-26.3 16.8-54.3 14.7-83.3-2-26.6-7.7-53-5.3-79.9 1.2-13.7 2.5-27.5 5.1-41 6.2-32.6 0-62.6-15.5-91.7-30.6-57.5-72.6-103.5-132-132.1-.8-.4-1.5-1.2-3.1-2.4 14.9-3.8 29-5.2 43.1-6.1zm81.5 337.2c2.7 22.5 4.3 45-2.2 67.2-1.4 4.9-3.3 9.7-5.7 16.5-14.4-27.2-27.8-52.3-40.9-77.6-10.1-19.6-18.6-40-24.5-61.3-2.9-10.2-5-20.7-5.3-31.4-.7-27.3 12.4-42.1 39.6-45.5 12.4-1.5 24.8-.9 37.2-.2 5.1.3 6.1 2.5 5.5 6.9-2 15.2-3.9 30.3-6 45.5-3.6 26.8-1 53.3 2.3 79.9zM358.5 578.8c-23.2 24.2-44.1 50.5-66.7 75.2-18.2 19.9-34.1 19.7-53.1.2-13-13.4-22.5-29.2-30.7-45.7-31.3-62.8-49.8-129.7-65.9-197.5-7.7-32.5-15.1-65.4-18-98.8-3.5-40.5-1.1-80.5 16.5-118.2 16.1-34.3 43.6-54.7 79.6-64.3 16.9-4.5 34.1-6.2 56.9-6.2 33.4.5 71.1 7.9 108 19 3.7 1.1 6.4 1.9 2.3 6.3-34.6 36.7-50.8 82-59.9 130.4-5.9 31-7.1 62.2-5.1 93.9 1.8 28.5.6 57.1-2.9 85.5-5.5 43.8 6.5 81.6 38.3 112.8 2.6 2.5 3.8 4.2.7 7.4zm69.2-1.5c-37.4-4.2-62-25.2-76.9-58.8-9.5-21.5-8.7-43.9-5.9-66.6 3.7-29.2 4.3-58.5 1.5-87.8-1.1-11.8 2.3-18.6 12.9-23.8 19.3-9.5 38.9-17.6 60.4-18.9 27.7-1.7 41.8 9 47.3 36.2 4.8 23.4 8.4 47 8.8 80.5.5 19.3-5.5 46.7-17.3 72.9-8.9 19.9-17 40.2-23.2 61-1.3 4.3-3.1 5.8-7.6 5.3zm53.6 67.7c-22.9 29.7-53.8 38.9-89.9 34.4-11-1.3-22.1-3.1-32.9-10.1 10.5-4 20.1-6.2 29.6-8 23.1-4.3 42.5-14.6 56-34.5 3.9-5.7 8.9-10.7 13.8-15.9 3.8-4.1 8.3-4.4 13.5-2.2 14.2 6 19.3 24.2 9.9 36.3zm227.3-13.6c-3.3 53.7-10.8 106.9-18.4 160.1-1.6 11.3-3.5 22.6-5.8 33.7-6.2 29.2-21.8 50.5-51.2 60.4-17.9 6-35.7 11-54.8 9.9-18.5-1.1-32.9-9.3-44-24.4-14.4-19.6-17.9-42.2-19.8-65.5-4.7-57-3.7-114.3-3.1-171.4.2-23-13.7-42.9-34.3-49.7-4.5-1.5-9.1-2.6-13.8-1.9-5.6.8-5.3-1.5-4-5.6 4.9-15.1 9.4-30.3 16.6-44.5 27.3-54.1 29.2-110.6 17.4-168.7-1-5.1-1.9-10.2-3.1-15.3-8.7-35.7-32.8-53.9-69.8-52.1-22.9 1.1-44.4 7.9-64.9 18.1-2.3 1.1-4.6 2.2-7.6 3.6-1-10 1.3-19.1 2.6-28.1 4.4-28.7 12.3-56.3 25.4-82.3 29.9-59.4 78.6-87.9 144.9-86.1 78.8 2 141.1 36.3 188.7 98.2 16 20.7 28.9 43.1 38.2 67.6.6 1.7 1.1 3.4 1.8 5.7-14-.9-27.4-1.8-40.9.1-25.8 3.7-47.6 13.6-57.9 39.7-6 15.2-5.8 30.9-3.2 46.9 6.2 38.6 23 73.1 41 107.2 9.5 18.2 19.7 35.9 28.6 54.5 6.2 13 15.4 24 24 35.4 1.7 2.2 5.1 4.8-.6 6.8-22.6 7.8-30.7 25.6-32 47.7zM804 642c-19 3.2-38.1 5.3-57.2 2.4-13.9-2.1-14.8-3.3-12.8-16.9 2.1-14 6.9-19.1 20.9-22.5 2.6-.6 4.9-.8 7.4.7 19.8 12.6 41.8 12.4 64 11 13.5-.9 26.7-3 40.1-4.9-18.1 16.4-38.9 26.2-62.4 30.2zM452.9 354.4c3.6-4.9 2.7-9.5-2-12.7-10.6-7.1-22.5-8.6-34.7-4.9-6.1 1.8-8 6.6-5.1 12.2 4.6 9 12 14.7 23.4 15.4 7-.6 13.7-3.5 18.4-10z"/></svg>