<svg xmlns="http://www.w3.org/2000/svg" viewBox="0 0 1000 1000"><style>.st0{fill:#fff}</style><g id="Layer_4"><path class="st0" d="M712.5 327.5c-8.5 0-15.6 1.3-21.8 5.4-5.2 3.4-5.7 7.5-1.6 12.2 7.6 8.8 19.8 10.1 29.1 2.8 4.7-3.7 10.4-7.9 8.4-14.4-2.2-6.8-9.6-5.5-14.1-6z"/><path class="st0" d="M881.6 583c-5.9-1.1-11.9-.6-17.8.5-20.9 3.8-41.7 7.7-63.1 6.7-7.3-.3-14.4-1.5-21.3-3.9-4.5-1.6-6.7-3.6-3-8.2 2.1-2.6 3.7-5.6 5.5-8.5 44.1-71 77.3-146.8 97.7-227.9 10.7-42.5 18.5-85.6 11.8-129.7-2.5-16.3-6.1-32.1-17.6-45.6C829 113.7 770.4 91 703 87.6c-40.1-2.1-79.5 3.1-118 14.9-3.3 1-6.5 1-9.9.5-10.2-1.6-20.4-3.5-30.7-4.4-45.2-3.9-89.4-2.9-128.5 24.9-3 2.1-5.6 1.7-8.7.6-16.3-5.9-33-10.7-49.9-14.5-49.1-11.4-98.5-15.9-148.3-3.6-47.4 11.7-80.5 39.7-96.7 86.3-13.8 39.5-16.4 80.4-13 121.7 2.2 27.3 8.1 54.1 14 80.8 17 76.8 37.2 152.5 72.5 223.4 11.3 22.6 24.6 43.8 44.4 60.1 21.3 17.4 45.7 17.9 67.7 1.6 7.3-5.5 13.4-12.2 19.3-19.1 19.6-23.1 39.4-46 60.1-68.1 1.7-1.9 3-5.6 6.7-3.6 13.9 7.2 28.7 11 44.5 12.1-11.9 20.8-22.6 28.2-48.1 33.9-11.6 2.6-23.4 4.6-34.3 9.7-20.6 9.7-22.2 29.1-3.7 42.5 9.2 6.6 19.6 10.3 30.6 12.6 36.1 7.6 70.5 4.7 101.6-17.1 2.8-2 5.6-4.1 8.5-6.2 2 2.4 1.2 4.5 1.2 6.5.4 25.9 0 51.8 1.2 77.6 1.7 34.8 2 69.7 15.4 103 10.3 25.8 28.9 41.2 54.2 49.3 25.3 8.1 50.2 2.7 74.8-4.4 41.2-12 66.7-38.6 75.7-81 3.7-17.5 6.4-35.1 8.8-52.8 4.5-33.3 8.5-66.7 12.5-100.1.8-7.1 4-9.4 10.7-7.9 12 2.5 24.2 2.5 36.3 1.8 40.2-2.4 77.6-12.3 108.2-40.3 5.6-5.1 10.8-10.5 14-17.4 5.5-12.5-1.1-25.4-14.5-27.9zM665.2 112.6c44.4-2.7 87.3 3 127.4 23.5 25.8 13.2 47.3 31.5 65 54.3 8.8 11.3 10 25.3 10.7 39.1 1.8 37.1-4.8 73.2-14.1 108.9-19.5 75.4-50.3 146.1-91 212.5-1.6 2.6-2.8 8.5-6.8 6.3-5.1-2.8 0-6.8 1.5-9.9 13.3-26.2 16.7-54.1 14.6-83-2-26.5-7.7-52.8-5.3-79.6 1.2-13.6 2.5-27.4 5.1-40.8 6.2-32.5 0-62.3-15.4-91.3-30.5-57.3-72.3-103.1-131.5-131.6-.8-.4-1.5-1.2-3.1-2.4 14.8-3.7 28.9-5.1 42.9-6zm81.2 335.9c2.7 22.4 4.3 44.8-2.2 66.9-1.4 4.9-3.3 9.7-5.7 16.4-14.3-27.1-27.7-52.1-40.7-77.3-10.1-19.5-18.5-39.8-24.4-61.1-2.9-10.2-5-20.6-5.3-31.3-.7-27.2 12.4-41.9 39.4-45.3 12.4-1.5 24.7-.9 37.1-.2 5.1.3 6.1 2.5 5.5 6.9-2 15.1-3.9 30.2-6 45.3-3.6 26.8-1 53.2 2.3 79.7zm-389.3 128c-23.1 24.1-43.9 50.3-66.4 74.9-18.1 19.8-34 19.6-52.9.2-12.9-13.3-22.4-29.1-30.6-45.5-31.2-62.5-49.6-129.2-65.6-196.7-7.7-32.4-15-65.1-17.9-98.4-3.5-40.3-1.1-80.2 16.4-117.7 16-34.2 43.4-54.5 79.3-64 16.8-4.5 34-6.2 56.7-6.2 33.3.5 70.8 7.9 107.6 18.9 3.7 1.1 6.4 1.9 2.3 6.3-34.5 36.6-50.6 81.7-59.7 129.9-5.9 30.9-7.1 62-5.1 93.5 1.8 28.4.6 56.9-2.9 85.2-5.5 43.6 6.5 81.3 38.1 112.3 2.6 2.4 3.8 4.1.7 7.3zM426 575c-37.3-4.2-61.8-25.1-76.6-58.6-9.5-21.4-8.7-43.7-5.9-66.3 3.7-29.1 4.3-58.3 1.5-87.4-1.1-11.8 2.3-18.5 12.8-23.7 19.2-9.5 38.7-17.5 60.2-18.8 27.6-1.7 41.6 9 47.1 36.1 4.8 23.3 8.4 46.8 8.8 80.2.5 19.2-5.5 46.5-17.2 72.6-8.9 19.8-16.9 40-23.1 60.8-1.3 4.1-3.1 5.6-7.6 5.1zm53.4 67.4c-22.8 29.6-53.6 38.7-89.5 34.3-11-1.3-22-3.1-32.8-10.1 10.5-4 20-6.2 29.5-8 23-4.3 42.3-14.5 55.8-34.4 3.9-5.7 8.9-10.7 13.7-15.8 3.8-4.1 8.3-4.4 13.4-2.2 14.2 6 19.2 24.2 9.9 36.2zm226.4-13.5c-3.3 53.5-10.8 106.5-18.3 159.5-1.6 11.3-3.5 22.5-5.8 33.6-6.2 29.1-21.7 50.3-51 60.2-17.8 6-35.6 11-54.6 9.9-18.4-1.1-32.8-9.3-43.8-24.3-14.3-19.5-17.8-42-19.7-65.2-4.7-56.8-3.7-113.8-3.1-170.7.2-22.9-13.6-42.7-34.2-49.5-4.5-1.5-9.1-2.6-13.7-1.9-5.6.8-5.3-1.5-4-5.6 4.9-15 9.4-30.2 16.5-44.3 27.2-53.9 29.1-110.2 17.3-168-1-5.1-1.9-10.2-3.1-15.2-8.7-35.6-32.7-53.7-69.5-51.9-22.8 1.1-44.2 7.9-64.6 18-2.3 1.1-4.6 2.2-7.6 3.6-1-10 1.3-19 2.6-28 4.4-28.6 12.3-56.1 25.3-82 29.8-59.2 78.3-87.5 144.3-85.8 78.5 2 140.5 36.2 187.9 97.8 15.9 20.6 28.8 42.9 38 67.3.6 1.7 1.1 3.4 1.8 5.7-13.9-.9-27.3-1.8-40.7.1-25.7 3.7-47.4 13.5-57.7 39.5-6 15.1-5.8 30.8-3.2 46.7 6.2 38.4 22.9 72.8 40.8 106.8 9.5 18.1 19.6 35.8 28.5 54.3 6.2 12.9 15.3 23.9 23.9 35.3 1.7 2.2 5.1 4.8-.6 6.8-22.4 7.5-30.4 25.3-31.7 47.3zm95 10.5c-18.9 3.2-37.9 5.3-57 2.4-13.8-2.1-14.7-3.3-12.7-16.8 2.1-13.9 6.9-19 20.8-22.4 2.6-.6 4.9-.8 7.4.7 19.7 12.5 41.6 12.4 63.7 11 13.4-.9 26.6-3 39.9-4.9-18 16.3-38.7 26-62.1 30z"/><path class="st0" d="M896 0H100C44.8 0 0 44.8 0 100v796c0 55.2 44.8 100 100 100h796c55.2 0 100-44.8 100-100V100C996 44.8 951.2 0 896 0zm25.7 597.9c-3.3 24.3-17.1 42.8-34.4 59.1-20.8 19.5-47 26.4-74 30.7-21.3 3.4-42.8 4.5-64.1 1.1-6.1-1-4.8 2.8-5.1 5.8-4.6 43.7-9.8 87.4-16.9 130.8-7 42.9-26.3 77.2-67.9 95.3-26.6 11.6-54.4 18.5-83.5 18.5-21.6 0-42.2-4.5-60.5-16.5-22-14.4-36.2-34.3-41.6-60.2-9.5-45.6-10.6-91.9-11.6-138.2-.1-3.4-.1-6.7-.1-10.1 0-3.1-.9-4.5-4.1-2.7-28.5 16.2-58.7 13.6-89 7.4-12.1-2.5-24.4-4.5-36.1-8.8-10.1-3.7-19.6-8-25.8-17.5-10.5 10.3-21.7 19-36.3 21.9-24.8 4.8-43.7-6.3-60.3-23-20.5-20.7-34.6-45.8-46.8-71.8-30-63.9-50.3-131.2-67.1-199.6-9.6-39.2-19.5-78.5-22.3-118.8-3.6-47.3-.1-93.8 21.1-137.3 21.7-44.6 57.8-71.2 105.2-83.4 44.3-11.3 88.7-8.4 133.2-.9 21.4 3.7 42.5 8.8 63.2 15.3 4.5 1.4 8.1 1.4 12.4-.9 39.1-21.5 81.3-25.7 124.9-21.6 12.9 1.2 25.7 3.2 38.2 6.3 3.2.8 6-.1 9-1 64.8-19.7 130.1-23.6 195.7-4.8 50.1 14.3 90.9 42.9 122.9 83.8 12.7 16.2 15.5 35.8 16.8 55.6 2.5 40.2-4.3 79.4-13.7 118.2-20 82-52.3 158.9-94.7 231.7-5.1 8.8-5.1 8.7 5.3 9.4 21.1 1.3 41.8-1.3 62.5-5.3 4.3-.8 8.7-1.6 13-2 20.6-1.8 35.2 12.9 32.5 33.5z"/><path class="st0" d="M451.1 353c3.6-4.9 2.7-9.5-2-12.6-10.6-7.1-22.4-8.6-34.6-4.9-6.1 1.8-8 6.6-5.1 12.2 4.6 9 12 14.6 23.3 15.3 7-.7 13.7-3.5 18.4-10z"/></g></svg>