<svg xmlns="http://www.w3.org/2000/svg" viewBox="0 0 1000 1000"><style>.st0{display:none}.st1,.st2{display:inline}.st2{fill:none;stroke:#000;stroke-miterlimit:10}.st3{fill:#fff}</style><g id="black_x5F_bg" class="st0"><path class="st1" d="M-2-2H998V998H-2z"/></g><g id="guide_x5F_path" class="st0"><path class="st2" d="M74 33h848v934H74z"/></g><g id="Layer_4"><path class="st3" d="M896 0H100C44.8 0 0 44.8 0 100v796c0 55.2 44.8 100 100 100h796c55.2 0 100-44.8 100-100V100C996 44.8 951.2 0 896 0zM245.5 600.1c-25.5 0-34.3-1.3-52.4-1.3v258c0 5.4-2 8.1-8.1 8.1H82.2c-5.4 0-8.1-2-8.1-8.1V135.2c0-4.7 9.4-8.1 14.8-8.1 43-2 106.8-3.4 173.3-3.4 186.1 0 258.6 102.1 258.6 232.4.1 170.8-123.5 244-275.3 244zm483.7 276.1c-58.4 0-108.8-12.1-137.7-28.9-4.7-2-5.4-5.4-5.4-10.8v-98.8c0-6.7 3.4-8.7 8.1-5.4 42.3 27.5 90.7 39.6 135 39.6 53.1 0 75.2-22.2 75.2-52.4 0-24.2-15.5-45.7-83.3-80.6-95.4-45.7-135-92-135-169.3 0-86.7 67.9-158.5 185.4-158.5 57.8 0 98.1 8.7 120.3 18.8 5.4 3.4 6.7 8.7 6.7 13.4v92c0 5.4-3.4 8.7-10.1 6.7-29.6-18.8-73.2-30.2-116.9-30.2-53.1 0-71.2 26.9-71.2 49 0 24.2 12.1 41 83.3 77.9C889.1 590 922 639.1 922 711c0 107.4-82 165.2-192.8 165.2z"/><path class="st3" d="M258.2 230.6c-26.9 0-52.4 1.3-64.5 2v259.3c15.5 1.3 27.5 1.3 54.4 1.3 78.6 0 152.5-27.5 152.5-134.4.1-85.2-53-128.2-142.4-128.2z"/></g></svg>