<svg xmlns="http://www.w3.org/2000/svg" viewBox="0 0 1000 1000"><path d="M899.6 0H100.4C45 0 0 45 0 100.4v799.2C0 955 45 1000 100.4 1000h799.2c55.4 0 100.4-45 100.4-100.4V100.4C1000 45 955 0 899.6 0zM246.5 602.5c-25.6 0-34.4-1.3-52.6-1.3v259c0 5.4-2 8.1-8.1 8.1H82.5c-5.4 0-8.1-2-8.1-8.1V135.7c0-4.7 9.4-8.1 14.9-8.1 43.2-2 107.2-3.4 174-3.4 186.8 0 259.6 102.5 259.6 233.3.1 171.5-124 245-276.4 245zm485.6 277.2c-58.6 0-109.2-12.1-138.3-29-4.7-2-5.4-5.4-5.4-10.8v-99.2c0-6.7 3.4-8.7 8.1-5.4 42.5 27.6 91.1 39.8 135.5 39.8 53.3 0 75.5-22.3 75.5-52.6 0-24.3-15.6-45.9-83.6-80.9-95.8-45.9-135.5-92.4-135.5-170 0-87 68.2-159.1 186.1-159.1 58 0 98.5 8.7 120.8 18.9 5.4 3.4 6.7 8.7 6.7 13.5V437c0 5.4-3.4 8.7-10.1 6.7-29.7-18.9-73.5-30.3-117.4-30.3-53.3 0-71.5 27-71.5 49.2 0 24.3 12.1 41.2 83.6 78.2 105.9 51.5 139 100.8 139 173 .1 107.9-82.2 165.9-193.5 165.9zM259.2 231.5c-27 0-52.6 1.3-64.8 2v260.3c15.6 1.3 27.6 1.3 54.6 1.3 78.9 0 153.1-27.6 153.1-134.9.2-85.5-53.1-128.7-142.9-128.7z"/></svg>