<svg xmlns="http://www.w3.org/2000/svg" viewBox="0 0 1000 1000"><path d="M619 858.9c20.7 0 37.3-16.7 37.3-37.2 0-20.5-16.8-37.1-37.2-37.1-20.6 0-37.1 16.6-37.1 37.1-.1 20.7 16.4 37.2 37 37.2zM384.8 140.4c-20.8 0-37.3 16.5-37.3 37.1s16.6 37.2 37.1 37.2c20.6 0 37.2-16.6 37.3-37 .1-20.6-16.5-37.3-37.1-37.3z"/><path d="M899.6 0H100.4C45 0 0 45 0 100.4v799.2C0 955 45 1000 100.4 1000h799.2c55.4 0 100.4-45 100.4-100.4V100.4C1000 45 955 0 899.6 0zM268.3 607.5c-.3 33.2-.1 66.5 0 99.8 0 1.9-.4 2.3-2.3 2.3-23.1-.1-46.1-.1-69.2 0-13.2.1-25.6-2.9-37.4-8.3-19.7-8.9-34.8-23.1-46.9-40.8-12.9-18.9-21-39.9-26.7-61.9-7.9-31-10.6-62.7-11-94.6v-10.2c0-3.6.1-7.2.3-10.8.5-17.2 2-34.2 4.8-51.2 3.1-18.7 7.9-36.9 15.4-54.4 8.8-20.8 20.8-39.4 38.1-54.1 18.1-15.5 38.9-24.5 62.4-27.4 7.5-.9 15-.5 22.5-.4 19.8.1 39.6 0 59.3 0H500c2 0 2.7-.5 2.6-2.6-.1-8 0-16.1-.1-24 0-3.1.3-2.7-2.7-2.7H298c-1.9 0-2.5-.4-2.5-2.4v-55.7c0-12.9.1-25.7-.1-38.5-.1-5.1.1-10.1 1.3-15.2 3.4-14.4 11.4-25.9 22.3-35.6 11.6-10.5 25.3-17.9 39.9-23.6 21.8-8.5 44.5-13.3 67.6-16.3 21-2.7 42.1-3.8 63.2-4.2h19.6c8.8.4 17.7.7 26.5 1.1 7.7.4 15.4 1.3 23 2.1 4 .4 8 .8 11.9 1.4 5.6.8 11.2 1.8 16.9 2.9 9.8 1.9 19.5 4 29 6.9 9.6 2.9 19.1 6.3 28.2 10.5 13 6.1 25 13.6 35.4 23.3 12.3 11.4 21.2 25.2 25.5 41.7 2.2 8.3 2.2 16.8 2.1 25.3-.2 61.1-.1 122.4-.1 183.5 0 9.8-.6 19.7-2.6 29.4-5.4 27-19.1 48.6-42.4 63.6-21.6 13.9-45.6 20.2-71 20.3-67.5.3-135 .1-202.5.1-12.8 0-25.3.9-37.8 3.9-25.7 6.2-46.7 19.5-61.4 41.7-15 22.8-21.5 48.1-21.7 75.1zm657.4-51.1c-.1.5-.3.9-.4 1.4-1.5 11.1-3.6 22.2-6.4 33.1-6.1 23.6-15.2 45.9-30 65.4-19.4 25.4-44.7 41.2-76.3 46.4-8.3 1.4-16.7 1.1-25 1.1-55.5-.2-111-.1-166.6-.1-39.1 0-78.1 0-117.2-.1-2.2 0-2.7.6-2.7 2.7.1 7.8.1 15.6.1 23.4 0 3.2 0 3.2 3.3 3.2 67 0 134 0 201-.1 2 0 2.6.5 2.6 2.5-.1 8.5.1 17.2.1 25.7.1 24.1.2 48.2.2 72.3 0 2.8-.2 5.6-.7 8.4-2.5 13.3-9 24.3-18.3 33.9-11.8 12.3-26.4 20.7-42.1 27.1-25.5 10.4-52.2 15.4-79.4 18.4-13.8 1.5-27.5 2.3-41.4 2.7-24.1.7-48.2.3-72.2-1.8-10.6-.9-21.3-2.2-31.8-4-14.1-2.4-27.9-5.6-41.5-10.1-19.4-6.4-37.7-15-53.3-28.3-14.8-12.6-25.4-27.7-30-46.8-2-8.1-1.8-16.4-1.7-24.7.2-60.9.1-122 .1-182.9 0-10.8.7-21.5 3.1-32.1 6.5-28.9 22.6-50.7 48.7-64.9 20.1-10.9 41.8-16.2 64.5-16.3 67.8-.2 135.5-.1 203.3-.1 13.5 0 26.7-1.3 39.8-4.8 21.3-5.7 39.4-16.6 53.2-33.9 18.2-22.9 26.3-49.6 26.9-78.4.7-34.3.2-68.7.1-102.9 0-2.1.5-2.6 2.6-2.6 23.1.1 46.2.1 69.4 0 11.7 0 22.9 2.5 33.7 6.9 19.8 8.1 35.2 21.7 47.8 38.8 11.3 15.5 18.8 32.8 24.9 50.9 4.5 13.6 7.5 27.6 9.8 41.8.7 4.4 1.4 8.7 2.1 13.2-.3 38.7-.3 77.2-.3 115.6z"/></svg>