<svg xmlns="http://www.w3.org/2000/svg" viewBox="0 0 1000 1000"><style>.st0{display:none}.st1,.st2{display:inline}.st2{fill:none;stroke:#000;stroke-miterlimit:10}.st3{fill:#fff}</style><g id="black_x5F_bg" class="st0"><path class="st1" d="M-2-2H998V998H-2z"/></g><g id="guide_x5F_path" class="st0"><path class="st2" d="M74 31h848v934H74z"/></g><g id="Layer_4"><path class="st3" d="M616.5 855.5c20.6 0 37.2-16.6 37.2-37.1 0-20.4-16.7-37-37.1-37-20.5 0-37 16.5-37 37 0 20.6 16.4 37.1 36.9 37.1zM383.3 139.8c-20.7 0-37.2 16.4-37.2 37 0 20.5 16.5 37.1 37 37.1s37.1-16.5 37.2-36.9c0-20.5-16.5-37.2-37-37.2z"/><path class="st3" d="M896 0H100C44.8 0 0 44.8 0 100v796c0 55.2 44.8 100 100 100h796c55.2 0 100-44.8 100-100V100C996 44.8 951.2 0 896 0zM267.2 605.1c-.3 33.1-.1 66.2 0 99.4 0 1.9-.4 2.3-2.3 2.3-23-.1-45.9-.1-68.9 0-13.1.1-25.5-2.9-37.3-8.3-19.6-8.9-34.7-23-46.7-40.6-12.8-18.8-20.9-39.7-26.6-61.7-7.9-30.9-10.6-62.4-11-94.2v-10.2c0-3.6.1-7.2.3-10.8.5-17.1 2-34.1 4.8-51 3.1-18.6 7.9-36.8 15.3-54.2 8.8-20.7 20.7-39.2 37.9-53.9 18-15.4 38.7-24.4 62.2-27.3 7.5-.9 14.9-.5 22.4-.4 19.7.1 39.4 0 59.1 0H498c2 0 2.7-.5 2.6-2.6-.1-8 0-16-.1-23.9 0-3.1.3-2.7-2.7-2.7h-201c-1.9 0-2.5-.4-2.5-2.4v-55.5c0-12.8.1-25.6-.1-38.3-.1-5.1.1-10.1 1.3-15.1 3.4-14.3 11.4-25.8 22.2-35.5 11.6-10.5 25.2-17.8 39.7-23.5 21.7-8.5 44.3-13.2 67.3-16.2 20.9-2.7 41.9-3.8 62.9-4.2h19.5c8.8.4 17.6.7 26.4 1.1 7.7.4 15.3 1.3 22.9 2.1 4 .4 8 .8 11.9 1.4 5.6.8 11.2 1.8 16.8 2.9 9.8 1.9 19.4 4 28.9 6.9 9.6 2.9 19 6.3 28.1 10.5 12.9 6.1 24.9 13.5 35.3 23.2 12.3 11.4 21.1 25.1 25.4 41.5 2.2 8.3 2.2 16.7 2.1 25.2-.2 60.9-.1 121.9-.1 182.8 0 9.8-.6 19.6-2.6 29.3-5.4 26.9-19 48.4-42.2 63.3-21.5 13.8-45.4 20.1-70.7 20.2-67.2.3-134.5.1-201.7.1-12.7 0-25.2.9-37.6 3.9-25.6 6.2-46.5 19.4-61.2 41.5-14.9 22.8-21.4 48-21.6 74.9zM922 554.2c-.1.5-.3.9-.4 1.4-1.5 11.1-3.6 22.1-6.4 33-6.1 23.5-15.1 45.7-29.9 65.1-19.3 25.3-44.5 41-76 46.2-8.3 1.4-16.6 1.1-24.9 1.1-55.3-.2-110.6-.1-165.9-.1-38.9 0-77.8 0-116.7-.1-2.2 0-2.7.6-2.7 2.7.1 7.8.1 15.5.1 23.3 0 3.2 0 3.2 3.3 3.2 66.7 0 133.5 0 200.2-.1 2 0 2.6.5 2.6 2.5-.1 8.5.1 17.1.1 25.6.1 24 .2 48 .2 72 0 2.8-.2 5.6-.7 8.4-2.5 13.2-9 24.2-18.2 33.8-11.8 12.3-26.3 20.6-41.9 27-25.4 10.4-52 15.3-79.1 18.3-13.7 1.5-27.4 2.3-41.2 2.7-24 .7-48 .3-71.9-1.8-10.6-.9-21.2-2.2-31.7-4-14-2.4-27.8-5.6-41.3-10.1-19.3-6.4-37.5-14.9-53.1-28.2-14.7-12.5-25.3-27.6-29.9-46.6-2-8.1-1.8-16.3-1.7-24.6.2-60.7.1-121.5.1-182.2 0-10.8.7-21.4 3.1-32 6.5-28.8 22.5-50.5 48.5-64.6 20-10.9 41.6-16.1 64.2-16.2 67.5-.2 135-.1 202.5-.1 13.4 0 26.6-1.3 39.6-4.8 21.2-5.7 39.2-16.5 53-33.8 18.1-22.8 26.2-49.4 26.8-78.1.7-34.2.2-68.4.1-102.5 0-2.1.5-2.6 2.6-2.6 23 .1 46 .1 69.1 0 11.7 0 22.8 2.5 33.6 6.9 19.7 8.1 35.1 21.6 47.6 38.6 11.3 15.4 18.7 32.7 24.8 50.7 4.5 13.5 7.5 27.5 9.8 41.6.7 4.4 1.4 8.7 2.1 13.1-.4 38.7-.4 77-.4 115.3z"/></g></svg>