<svg xmlns="http://www.w3.org/2000/svg" viewBox="0 0 1000 1000"><path d="M499 487.2h.3c-.1-.1-.2-.1-.2-.2-.1 0-.1.1-.1.2z"/><path d="M899.6 0H100.4C45 0 0 45 0 100.4v799.2C0 955 45 1000 100.4 1000h799.2c55.4 0 100.4-45 100.4-100.4V100.4C1000 45 955 0 899.6 0zm20.8 854c-.7 5.2-1.6 10.4-3.8 15.3-.9 1.9-1.7 4.3-4.1 4.4-2.4.1-3-2.3-3.9-4-9.4-18-21.2-34-37.3-46.6-15.5-12-33-19-52.4-21.6-19.3-2.5-38.2-.5-57 3.7-16.1 3.6-31.6 8.9-46.6 15.6-6.7 2.9-13 6.8-19.5 10.1-22.4 11.1-45.7 19.5-70 25.4-16.6 4-33.2 7-50.2 8.8-20.4 2.1-40.8 2.7-61.2 1.9-26.8-1.1-53.3-4.6-79.5-10.3-40.8-8.8-79.8-22.7-117.4-40.6-39.5-18.8-76.2-42-110.4-69.2-14-11-27.3-22.8-40.3-35-6.3-5.9-12.6-12-18.5-18.3-26.7-28-50.5-58-71.2-90.7-.3-.5-.5-1-.8-1.5l.2-.2c10 8 20.3 15.6 31 22.6 16.3 10.5 33.1 19.8 50.4 28.6 9.2 4.7 18.7 9 28.1 13.3 7.6 3.4 15.4 6.4 23.2 9.4 9.5 3.7 19.3 7.1 29 10.2 10.7 3.4 21.7 6.4 32.6 9.1 9 2.2 18.1 4.1 27.1 5.9 5.6 1.1 11.2 2 17 2.6 4.9.5 9.7 1.7 14.6 2.1 3.5.3 7.1.6 10.6 1 4.9.5 9.9 1 14.9 1.1 9.6.2 19.4.7 29 .4 12.4-.3 24.9-1 37.2-2.4 13.8-1.6 27.4-3.9 41-7 32.8-7.6 63.8-19.8 92.6-37.1.7-.4 1.3-.8 2-1.2.2-.1.3-.3.6-.5-4-3.1-8-6.2-12-9.4-7.8-6.2-15.7-12.6-23.5-18.9-1.6-1.3-3.1-2.6-4.7-3.9-11.4-9.2-22.5-19-33.5-28.7-39.8-35.1-77.6-72.4-114-111-7.8-8.3-15.6-16.6-23.3-25-7.6-8.3-15.3-16.9-22.8-25.3-6-6.7-11.9-13.6-17.8-20.4-28.3-33-56-66.5-82.9-100.7-6.3-8-12.3-16.2-18.9-24-5.5-6.6-11.6-12.8-16.9-19.6-10.8-14-20.3-28.9-30-43.6-.1-.2-.1-.4-.2-.5 2 .9 3.4 2.6 4.9 4.1 34.4 31 70.2 60.5 106.4 89.4 38.7 30.7 78.1 60.5 118 89.6 9 6.6 18.2 13.2 27.4 19.6 5.3 3.8 10.6 7.6 16.1 11.3 12.8 8.6 25.6 17.2 38.5 25.8 9.5 6.3 19.2 12.3 29 18.2.5.3.9.9 1.6.6-3.5-3.9-7-7.7-10.6-11.5-15.1-16.2-29.7-32.6-44.3-49.4-27-31.1-53.2-63-78.7-95.4-35.7-45.6-70.5-91.9-103.2-139.8-1-1.5-1.9-3-2.8-4.5l.3-.3c2.9 2.9 5.9 5.7 8.8 8.6 33.8 33.7 68.6 66.6 104.3 98.4 36.5 32.5 73.9 64.1 112.2 94.5 22.3 17.7 44.8 34.8 67.6 51.9 12.4 9.4 25.2 18.6 37.9 27.6 9.6 6.8 19.4 13.7 29.2 20.3 17 11.3 33.9 22.6 51.5 33 1.1.7 1.4.6 1.9-.6 7.3-19 12.8-38.5 16.5-58.4 1.8-9.7 3.2-19.5 4.1-29.3 1.7-18.2 2.1-36.3 1.1-54.5-3.7-68.7-24.2-132.5-56-193.1-12.1-23.2-26-45.3-41.4-66.5-.4-.5-.7-1-1.2-1.7.9-.2 1.4.4 1.9.7 36.6 22.5 70.5 48.5 101.5 78.2 50 48 90.8 102.7 120.8 165.4 5.5 11.4 10.6 23.1 15.1 35 2.9 7.9 5.7 15.9 8.4 23.8 6 17.8 10.6 35.9 14.2 54.4 3.1 16.3 5.2 32.7 6.3 49.3 1.1 16.8 1.1 33.4-.1 50.2-1.1 15.4-3.2 30.5-6.5 45.6-.6 2.5-.8 5.2-2.1 7.5 0 2.9-1 5.5-1.8 8.2-1.1 4.1-1.8 8.3-3.5 12.2-.3.8.1 1.1.5 1.6 24.4 30.2 43.3 63.6 55.8 100.3 6.6 19.5 11.2 39.6 13.6 60 1.8 15.3 2.3 30.4.3 45.4z"/></svg>