<svg xmlns="http://www.w3.org/2000/svg" viewBox="0 0 1000 1000"><style>.st0{display:none}.st1,.st2{display:inline}.st2{fill:none;stroke:#000;stroke-miterlimit:10}.st3{fill:#fff}</style><g id="black_x5F_bg" class="st0"><path class="st1" d="M-2-2H998V998H-2z"/></g><g id="guide_x5F_path" class="st0"><path class="st2" d="M74 31h848v934H74z"/></g><g id="Layer_4"><path class="st3" d="M497 485.3h.3c-.1-.1-.2-.1-.2-.2-.1 0-.1.1-.1.2z"/><path class="st3" d="M896 0H100C44.8 0 0 44.8 0 100v796c0 55.2 44.8 100 100 100h796c55.2 0 100-44.8 100-100V100C996 44.8 951.2 0 896 0zm20.7 850.6c-.7 5.2-1.6 10.4-3.8 15.2-.9 1.9-1.7 4.3-4.1 4.4-2.4.1-3-2.3-3.9-4-9.4-17.9-21.1-33.9-37.2-46.4-15.4-12-32.9-18.9-52.2-21.5-19.2-2.5-38-.5-56.8 3.7-16 3.6-31.5 8.9-46.4 15.5-6.7 2.9-12.9 6.8-19.4 10.1-22.3 11.1-45.5 19.4-69.7 25.3-16.5 4-33.1 7-50 8.8-20.3 2.1-40.6 2.7-61 1.9-26.7-1.1-53.1-4.6-79.2-10.3-40.6-8.8-79.5-22.6-116.9-40.4-39.3-18.7-75.9-41.8-110-68.9-13.9-11-27.2-22.7-40.1-34.9-6.3-5.9-12.5-12-18.4-18.2-26.6-27.9-50.3-57.8-70.9-90.3-.3-.5-.5-1-.8-1.5l.2-.2c10 8 20.2 15.5 30.9 22.5 16.2 10.5 33 19.7 50.2 28.5 9.2 4.7 18.6 9 28 13.2 7.6 3.4 15.3 6.4 23.1 9.4 9.5 3.7 19.2 7.1 28.9 10.2 10.7 3.4 21.6 6.4 32.5 9.1 9 2.2 18 4.1 27 5.9 5.6 1.1 11.2 2 16.9 2.6 4.9.5 9.7 1.7 14.5 2.1 3.5.3 7.1.6 10.6 1 4.9.5 9.9 1 14.8 1.1 9.6.2 19.3.7 28.9.4 12.4-.3 24.8-1 37.1-2.4 13.7-1.6 27.3-3.9 40.8-7 32.7-7.6 63.5-19.7 92.2-37 .7-.4 1.3-.8 2-1.2.2-.1.3-.3.6-.5-4-3.1-8-6.2-12-9.4-7.8-6.2-15.6-12.5-23.4-18.8-1.6-1.3-3.1-2.6-4.7-3.9-11.4-9.2-22.4-18.9-33.4-28.6-39.6-35-77.3-72.1-113.5-110.6-7.8-8.3-15.5-16.5-23.2-24.9-7.6-8.3-15.2-16.8-22.7-25.2-6-6.7-11.9-13.5-17.7-20.3-28.2-32.9-55.8-66.2-82.6-100.3-6.3-8-12.3-16.1-18.8-23.9-5.5-6.6-11.6-12.7-16.8-19.5-10.8-13.9-20.2-28.8-29.9-43.4-.1-.2-.1-.4-.2-.5 2 .9 3.4 2.6 4.9 4.1 34.3 30.9 69.9 60.3 106 89 38.5 30.6 77.8 60.3 117.5 89.2 9 6.6 18.1 13.1 27.3 19.5 5.3 3.8 10.6 7.6 16 11.3 12.7 8.6 25.5 17.1 38.3 25.7 9.5 6.3 19.1 12.3 28.9 18.1.5.3.9.9 1.6.6-3.5-3.9-7-7.7-10.6-11.5-15-16.1-29.6-32.5-44.1-49.2-26.9-31-53-62.7-78.4-95-35.6-45.4-70.2-91.5-102.8-139.2-1-1.5-1.9-3-2.8-4.5l.3-.3c2.9 2.9 5.9 5.7 8.8 8.6 33.7 33.6 68.3 66.3 103.9 98 36.4 32.4 73.6 63.8 111.8 94.1 22.2 17.6 44.6 34.7 67.3 51.7 12.4 9.4 25.1 18.5 37.7 27.5 9.6 6.8 19.3 13.6 29.1 20.2 16.9 11.3 33.8 22.5 51.3 32.9 1.1.7 1.4.6 1.9-.6 7.3-18.9 12.7-38.3 16.4-58.2 1.8-9.7 3.2-19.4 4.1-29.2 1.7-18.1 2.1-36.2 1.1-54.3-3.7-68.4-24.1-132-55.8-192.3-12.1-23.1-25.9-45.1-41.2-66.2-.4-.5-.7-1-1.2-1.7.9-.2 1.4.4 1.9.7 36.5 22.4 70.2 48.3 101.1 77.9 49.8 47.8 90.4 102.3 120.3 164.7 5.5 11.4 10.6 23 15 34.9 2.9 7.9 5.7 15.8 8.4 23.7 6 17.7 10.6 35.8 14.1 54.2 3.1 16.2 5.2 32.6 6.3 49.1 1.1 16.7 1.1 33.3-.1 50-1.1 15.3-3.2 30.4-6.5 45.4-.6 2.5-.8 5.2-2.1 7.5 0 2.9-1 5.5-1.8 8.2-1.1 4.1-1.8 8.3-3.5 12.2-.3.8.1 1.1.5 1.6 24.3 30.1 43.1 63.3 55.6 99.9 6.6 19.4 11.2 39.4 13.5 59.8 2 15 2.5 30 .5 45z"/></g></svg>