<svg xmlns="http://www.w3.org/2000/svg" viewBox="0 0 1000 1000"><style>.st0{display:none}.st1,.st2{display:inline}.st2{fill:none;stroke:#000;stroke-miterlimit:10}.st3{fill:#fff}</style><g id="black_x5F_bg" class="st0"><path class="st1" d="M-2-2H998V998H-2z"/></g><g id="guide_x5F_path" class="st0"><path class="st2" d="M74 31h848v934H74z"/></g><path class="st3" d="M896 0H100C44.8 0 0 44.8 0 100v796c0 55.2 44.8 100 100 100h796c55.2 0 100-44.8 100-100V100C996 44.8 951.2 0 896 0zM125.5 334l-50.1-50.1c33.3-33.3 67-67.1 100.8-100.8-33.9-33.9-67.6-67.5-101.3-101.2 17.2-17.2 34-33.9 50.4-50.3 50.4 50.4 101 101 151.4 151.3-50.3 50.2-100.9 100.8-151.2 151.1zm355 1H278v-49.9c.1-.1.2-.2.2-.3.1-.1.2-.2.3-.2.7-.1 1.4-.2 2.1-.2h199.7c.9 2.7 1 46.6.2 50.6z" id="Layer_4"/></svg>