<svg xmlns="http://www.w3.org/2000/svg" viewBox="0 0 1000 1000"><style>.st0{display:none}.st1,.st2{display:inline}.st2{fill:none;stroke:#000;stroke-miterlimit:10}.st3{fill:#fff}</style><g id="black_x5F_bg" class="st0"><path class="st1" d="M-2-2H998V998H-2z"/></g><g id="guide_x5F_path" class="st0"><path class="st2" d="M74 31h848v934H74z"/></g><path class="st3" d="M896 0H100C44.8 0 0 44.8 0 100v796c0 55.2 44.8 100 100 100h796c55.2 0 100-44.8 100-100V100C996 44.8 951.2 0 896 0zM298.8 517.2c0 15.6-1.3 31.1-5.3 46.3-7.2 27-25 43.7-51 52.3-16.4 5.4-33.4 5.8-50.4 4.9-10.8-.6-21.4-2.4-31.6-6-25.4-8.9-41.1-26.5-47.5-52.6-3.5-14.5-4.8-29.3-4.9-44.1-.1-46.9 0-93.8-.1-140.7 0-2 .5-2.7 2.6-2.7 8.9.1 17.8 0 26.7.1.7 0 1.5.1 2.5.2v140.7c0 11.7.6 23.3 2.8 34.8 4.1 21.4 17.1 34.5 38 39.7 16.5 4.1 33.1 3.2 49.4-1.2 17.3-4.7 27.8-16.1 32.2-33.5 3.4-13.3 4.4-26.8 4.4-40.4.1-45.6 0-91.2 0-136.7v-3.4h31.9v2.6c.4 46.6.5 93.2.3 139.7zM542.9 617h-3c-8.8 0-17.7-.1-26.5 0-2.2 0-3.6-.6-4.8-2.5-41.1-61.7-82.4-123.3-123.6-185-.5-.8-1.1-1.6-2.3-2.3v188c.1 1.3-.6 1.7-1.8 1.7-9.2 0-18.5 0-27.7-.1-.2 0-.5-.1-.8-.2v-242h2.9c9 0 18 .1 27-.1 2.1 0 3.3.7 4.4 2.4 41.3 61.8 82.6 123.6 123.9 185.3.5.7 1 1.5 1.5 2.2.2-.1.4-.1.6-.2V374.8H543c-.1 80.7-.1 161.2-.1 242.2zm91.4-.2h-31.5v-242h31.5v242zm251.9.2h-34.5c-1.6 0-2.6-.5-3.5-1.8-20-28.5-40.1-56.9-60.2-85.4-3.5-5-6.7-10.1-10.1-15.3-.4.3-.5.4-.6.5-16.5 26.7-36 51.2-54 76.9-5.5 7.8-11.2 15.6-16.8 23.3-.6.8-1.6 1.7-2.4 1.7-12.1.1-24.2.1-36.8.1.8-1.1 1.3-1.9 1.8-2.6 29.9-40.3 59.9-80.7 89.9-121 1.5-2.1 1.5-3.3 0-5.3-26.3-36.7-52.4-73.5-78.6-110.3-.6-.8-1.1-1.6-1.9-2.8 1-.1 1.7-.2 2.4-.2 11.1 0 22.2 0 33.2.1 1 0 2.4.7 3 1.5 16.9 23.8 33.8 47.7 50.6 71.6 3.7 5.3 7 10.9 10.5 16.4.4.7.9 1.3 1.4 2.2.4-.4.6-.6.8-.9 11.3-18.2 25-34.8 37.8-51.9 9.3-12.5 18.8-24.9 28.3-37.2.6-.8 1.8-1.7 2.7-1.7 10.6-.1 21.2-.1 31.7-.1.2 0 .5.1 1.1.2-.6.9-1.1 1.7-1.7 2.5-27.1 36.3-54.1 72.7-81.3 109-1.5 2-1.3 3.2 0 5.1 29.3 40.8 58.5 81.7 87.8 122.5.6.8 1.1 1.6 1.9 2.7-1.1 0-1.8.2-2.5.2z" id="Layer_4"/></svg>