<svg xmlns="http://www.w3.org/2000/svg" viewBox="0 0 1000 1000"><path d="M899.6 0H100.4C45 0 0 45 0 100.4v799.2C0 955 45 1000 100.4 1000h799.2c55.4 0 100.4-45 100.4-100.4V100.4C1000 45 955 0 899.6 0zM300 519.3c0 15.7-1.3 31.2-5.3 46.5-7.2 27.1-25.1 43.9-51.2 52.5-16.5 5.4-33.5 5.8-50.6 4.9-10.8-.6-21.5-2.4-31.7-6-25.5-8.9-41.3-26.6-47.7-52.8-3.5-14.6-4.8-29.4-4.9-44.3-.1-47.1 0-94.2-.1-141.3 0-2 .5-2.7 2.6-2.7 8.9.1 17.9 0 26.8.1.7 0 1.5.1 2.5.2v141.3c0 11.7.6 23.4 2.8 34.9 4.1 21.5 17.2 34.6 38.2 39.9 16.6 4.1 33.2 3.2 49.6-1.2 17.4-4.7 27.9-16.2 32.3-33.6 3.4-13.4 4.4-26.9 4.4-40.6.1-45.8 0-91.6 0-137.2v-3.4h32v2.6c.4 46.7.5 93.5.3 140.2zm245.1 100.2h-3c-8.8 0-17.8-.1-26.6 0-2.2 0-3.6-.6-4.8-2.5-41.3-61.9-82.7-123.8-124.1-185.7-.5-.8-1.1-1.6-2.3-2.3v188.8c.1 1.3-.6 1.7-1.8 1.7-9.2 0-18.6 0-27.8-.1-.2 0-.5-.1-.8-.2v-243h2.9c9 0 18.1.1 27.1-.1 2.1 0 3.3.7 4.4 2.4 41.5 62 82.9 124.1 124.4 186 .5.7 1 1.5 1.5 2.2.2-.1.4-.1.6-.2V376.3h30.4c-.1 81-.1 161.9-.1 243.2zm91.7-.2h-31.6v-243h31.6v243zm253 .2h-34.6c-1.6 0-2.6-.5-3.5-1.8-20.1-28.6-40.3-57.1-60.4-85.7-3.5-5-6.7-10.1-10.1-15.4-.4.3-.5.4-.6.5-16.6 26.8-36.1 51.4-54.2 77.2-5.5 7.8-11.2 15.7-16.9 23.4-.6.8-1.6 1.7-2.4 1.7-12.1.1-24.3.1-36.9.1.8-1.1 1.3-1.9 1.8-2.6 30-40.5 60.1-81 90.3-121.5 1.5-2.1 1.5-3.3 0-5.3-26.4-36.8-52.6-73.8-78.9-110.7-.6-.8-1.1-1.6-1.9-2.8 1-.1 1.7-.2 2.4-.2 11.1 0 22.3 0 33.3.1 1 0 2.4.7 3 1.5 17 23.9 33.9 47.9 50.8 71.9 3.7 5.3 7 10.9 10.5 16.5.4.7.9 1.3 1.4 2.2.4-.4.6-.6.8-.9 11.3-18.3 25.1-34.9 38-52.1 9.3-12.6 18.9-25 28.4-37.3.6-.8 1.8-1.7 2.7-1.7 10.6-.1 21.3-.1 31.8-.1.2 0 .5.1 1.1.2-.6.9-1.1 1.7-1.7 2.5-27.2 36.4-54.3 73-81.6 109.4-1.5 2-1.3 3.2 0 5.1 29.4 41 58.7 82 88.2 123 .6.8 1.1 1.6 1.9 2.7-1.3-.1-2 .1-2.7.1z"/></svg>