<svg xmlns="http://www.w3.org/2000/svg" viewBox="0 0 1000 1000"><style>.st0{display:none}.st1{display:inline}.st2{fill:#fff}</style><g id="black_x5F_bg" class="st0"><path class="st1" d="M-2-2H998V998H-2z"/></g><g id="Layer_4"><path class="st2" d="M896 0H100C44.8 0 0 44.8 0 100v796c0 55.2 44.8 100 100 100h796c55.2 0 100-44.8 100-100V100C996 44.8 951.2 0 896 0zm21 508.5c-.1.9-.3 1.8-.3 2.7-.5 9-.7 18-1.5 27-1.7 19.8-4.9 39.5-9.5 58.9-14.3 60.3-40.7 114.7-79 163.3-25.8 32.8-56 61-90.3 84.9-26.7 18.5-55.1 33.8-85.3 45.7-30.1 11.8-61.1 20.1-93 24.7-15.5 2.2-31.1 3.7-46.7 4.1-1.8.1-3.6.3-5.4.4h-16.8c-.8-.1-1.6-.3-2.5-.3-9.7-.6-19.4-1-29.1-1.8-21-1.8-41.6-5.4-62-10.5-37.7-9.4-73.3-23.8-107-43.2-39.1-22.5-73.7-50.7-103.8-84.3-24.6-27.5-45.2-57.7-61.8-90.6-17-33.6-29.2-68.9-36.6-105.9-3.8-19.2-6.4-38.6-7.4-58.1-.2-4.3-.6-8.6-.8-12.9v-23.5c.1-1.4.4-2.7.4-4.1.6-17.7 2.4-35.3 5.2-52.7 4.7-28.9 12.4-57 23.1-84.2 24.6-62.3 61.9-115.8 111.8-160.5 32.3-28.9 68.3-52.2 107.9-69.9 27.6-12.3 56.2-21.8 85.9-27.6 12.7-2.5 25.4-4.6 38.2-6.1 11.2-1.3 22.6-1.6 33.9-2.4.7 0 1.4-.2 2.1-.3h21.8c1 .1 1.9.3 2.9.4 19.2.5 38.2 2.5 57.1 5.7 28.1 4.8 55.4 12.4 81.9 22.8 41.3 16.2 79.1 38.4 113.3 66.6 35.3 29 65.1 62.8 89.3 101.6 40 64.2 61.3 134 63.7 209.6 0 1.5.3 3 .4 4.5-.1 5.1-.1 10.5-.1 16z"/><path class="st2" d="M500.4 105.8C280.7 104.3 103 281.7 102.8 500.4c-.2 217.8 176.8 394.7 394.7 394.7 217.7 0 394.4-176.4 394.5-394.4.2-217.7-175.3-393.3-391.6-394.9zm-203 94.6c41.1-27.5 86-45.9 134.7-54.6 128.6-23.2 240.7 24.9 308.6 88.8-3.5.2-7 .3-10.4.8-25.4 3.1-46.2 19.3-51.6 47-3.8 19.7-.7 38.6 7 56.9 5.6 13.4 13.3 25.6 20.8 38 8.8 14.5 17.3 29.2 23.3 45.2 7.8 20.7 11.1 42.2 10.6 64.3-.5 21.4-3.7 42.5-9.6 63-5.7 20-12.2 39.7-18.6 59.5-11.6 35.6-23.4 71.2-35.1 106.8-.2.6-.5 1.2-.9 2.4-1.5-4.3-2.8-8.1-4.1-11.9-41.5-122.2-82.9-244.3-124.4-366.5-2.4-6.9-.6-9.8 6.8-10 11-.2 22.1-.1 33.1-.1h3.4c2.3-.1 3.7-1.4 3.8-3.6.1-7.2.1-14.4 0-21.6 0-2.5-1.6-3.7-4.4-3.6-15 .5-29.9 1.1-44.9 1.4-23.4.4-46.8.9-70.3.7-26.3-.2-52.6-1.1-78.8-1.7-3.5-.1-7-.3-10.5-.4-2.7-.1-4.1 1.1-4.1 3.9-.1 7-.1 14 0 21 0 2.9 1.4 4.1 4.6 4.1h33.1c1.5 0 3.1.1 4.6.1 4.9.1 8.1 2.4 9.8 7.1l10.2 27.9 42.3 115.8c.4 1.1.4 2.6 0 3.7-26 78.7-52.1 157.4-78.1 236.1-.2.5-.4 1-.8 2.1-.4-1-.6-1.6-.8-2.2-28.2-83.2-56.5-166.4-84.7-249.5l-45-132.6c0-.1-.1-.3-.2-.4-1.9-5.7-.2-8.1 5.7-8.1h39c4.1 0 5.3-1.1 5.3-5.2v-18.9c0-3.9-1.2-5-5.1-4.8-41.5 2-83 2.7-124.5 3h-2.6c27.7-41.9 61.7-76.4 102.8-103.9zm44.7 625.8c-81.6-40.6-141.9-101.9-177-186.2-40.1-96.3-37.3-192.7 3.4-288.2h.8l173.4 474c-.2 0-.4.2-.6.4zm50.6 19.5c37-106 73.9-211.8 111-318.2C541.9 632 580 736.1 618.1 840.4c-74.7 25.7-149.6 27.4-225.4 5.3zm416-443.3c4-22.3 6.4-44.8 6.3-67.5 0-1.6-.1-3.2-.1-4.8l.1-.1c86.7 153.8 44.6 382.3-144 486.5.2-.7.4-1.3.5-1.8 37.2-105.3 74.3-210.5 111.5-315.8 11.1-31.5 19.8-63.6 25.7-96.5z"/></g></svg>