<svg xmlns="http://www.w3.org/2000/svg" viewBox="0 0 1000 1000"><path d="M899.6 0H100.4C45 0 0 45 0 100.4v799.2C0 955 45 1000 100.4 1000h799.2c55.4 0 100.4-45 100.4-100.4V100.4C1000 45 955 0 899.6 0zm21.1 510.5c-.1.9-.3 1.8-.3 2.7-.5 9-.7 18.1-1.5 27.1-1.7 19.9-4.9 39.7-9.5 59.1C895 660 868.5 714.7 830 763.5c-25.9 32.9-56.2 61.2-90.7 85.2-26.8 18.6-55.3 33.9-85.6 45.9-30.2 11.8-61.3 20.2-93.4 24.8-15.6 2.2-31.2 3.7-46.9 4.1-1.8.1-3.6.3-5.4.4h-16.9c-.8-.1-1.6-.3-2.5-.3-9.7-.6-19.5-1-29.2-1.8-21.1-1.8-41.8-5.4-62.2-10.5-37.9-9.4-73.6-23.9-107.4-43.4-39.3-22.6-74-50.9-104.2-84.6-24.7-27.6-45.4-57.9-62-91-17.1-33.7-29.3-69.2-36.7-106.3-3.8-19.3-6.4-38.8-7.4-58.3-.2-4.3-.6-8.6-.8-13v-23.6c.1-1.4.4-2.7.4-4.1.6-17.8 2.4-35.4 5.2-52.9 4.7-29 12.4-57.2 23.2-84.5 24.7-62.6 62.1-116.3 112.2-161.1 32.4-29 68.6-52.4 108.3-70.2 27.7-12.3 56.4-21.9 86.2-27.7 12.8-2.5 25.5-4.6 38.4-6.1 11.2-1.3 22.7-1.6 34-2.4.7 0 1.4-.2 2.1-.3h21.9c1 .1 1.9.3 2.9.4 19.3.5 38.4 2.5 57.3 5.7 28.2 4.8 55.6 12.4 82.2 22.9 41.5 16.3 79.4 38.6 113.8 66.9 35.4 29.1 65.4 63.1 89.7 102 40.2 64.5 61.5 134.5 64 210.4 0 1.5.3 3 .4 4.5-.2 5-.2 10.4-.2 15.9z"/><path d="M502.4 106.2c-220.6-1.5-399 176.6-399.2 396.2-.2 218.7 177.5 396.3 396.3 396.3 218.6 0 396-177.1 396.1-396 .2-218.6-176-394.9-393.2-396.5zm-203.8 95c41.3-27.6 86.3-46.1 135.2-54.8 129.1-23.3 241.7 25 309.8 89.2-3.5.2-7 .3-10.4.8-25.5 3.1-46.4 19.4-51.8 47.2-3.8 19.8-.7 38.8 7 57.1 5.6 13.5 13.4 25.7 20.9 38.2 8.8 14.6 17.4 29.3 23.4 45.4 7.8 20.8 11.1 42.4 10.6 64.6-.5 21.5-3.7 42.7-9.6 63.3-5.7 20.1-12.2 39.9-18.7 59.7-11.6 35.7-23.5 71.5-35.2 107.2-.2.6-.5 1.2-.9 2.4-1.5-4.3-2.8-8.1-4.1-11.9-41.7-122.7-83.2-245.3-124.9-368-2.4-6.9-.6-9.8 6.8-10 11-.2 22.2-.1 33.2-.1h3.4c2.3-.1 3.7-1.4 3.8-3.6.1-7.2.1-14.5 0-21.7 0-2.5-1.6-3.7-4.4-3.6-15.1.5-30 1.1-45.1 1.4-23.5.4-47 .9-70.6.7-26.4-.2-52.8-1.1-79.1-1.7-3.5-.1-7-.3-10.5-.4-2.7-.1-4.1 1.1-4.1 3.9-.1 7-.1 14.1 0 21.1 0 2.9 1.4 4.1 4.6 4.1h33.2c1.5 0 3.1.1 4.6.1 4.9.1 8.1 2.4 9.8 7.1l10.2 28L488.4 483c.4 1.1.4 2.6 0 3.7-26.1 79-52.3 158-78.4 237-.2.5-.4 1-.8 2.1-.4-1-.6-1.6-.8-2.2-28.3-83.5-56.7-167.1-85-250.5L278.2 340c0-.1-.1-.3-.2-.4-1.9-5.7-.2-8.1 5.7-8.1h39.2c4.1 0 5.3-1.1 5.3-5.2v-19c0-3.9-1.2-5-5.1-4.8-41.7 2-83.3 2.7-125 3h-2.6c27.7-42 61.8-76.7 103.1-104.3zm44.9 628.3c-82-40.7-142.5-102.3-177.7-186.9-40.3-96.7-37.4-193.5 3.4-289.4h.8l174.1 475.9c-.2 0-.4.2-.6.4zm50.8 19.6c37.1-106.4 74.2-212.7 111.4-319.5 38.4 104.9 76.6 209.4 114.9 314.2-75 25.8-150.2 27.5-226.3 5.3zM811.9 404c4-22.4 6.4-45 6.3-67.8 0-1.6-.1-3.2-.1-4.8l.1-.1c87 154.4 44.8 383.8-144.6 488.5.2-.7.4-1.3.5-1.8 37.3-105.7 74.6-211.3 111.9-317.1 11.3-31.6 20-63.9 25.9-96.9z"/></svg>