<svg xmlns="http://www.w3.org/2000/svg" viewBox="0 0 1000 1000"><path d="M589.5 633.4c-9.4 12.6-19.5 24.7-30.3 36.1-2.6 2.8-5.1 5.6-7.7 8.4-.4.5-1 1-.7 1.7s1.1.5 1.8.5c1.4 0 2.6-.5 3.8-1.1 10.7-5.7 19.8-13.2 26.7-23.2 4.7-6.8 7.3-14.4 7-23.2-.3.5-.5.6-.6.8zM276.1 628.5c-1.1-.6-2.3 1-3.5 1.7-22.9 13.3-44.8 27.8-64.8 45.2-9.3 8.1-17.5 17.2-23.4 28.1-5.6 10.3-9.6 21.2-8.9 33.1.6 11.2 5.8 18.1 18.6 18.5 9.3.3 17.9-2.2 26.2-6 13.9-6.2 25.6-15.5 35.4-27.1 15.8-18.8 24.5-40.2 24.6-64.9.1-8.4-1.1-16.7-3-24.9-.4-1.3-.4-3.2-1.2-3.7zM436.5 535.3c-2.7-.2-5.2.4-7.6 1.5-7.6 3.3-13.7 8.6-19 14.9-5.9 7.1-10.5 15.1-14.9 23.1-12 21.8-18.5 45.1-18.8 72.6 0 3.9.4 10.3 1.6 16.5.8 4.3 1.9 8.6 4.5 12.3 2.1 2.8 4.4 3.1 7.2.8 1.2-1 2.3-2.2 3.3-3.5 3.7-4.9 6.4-10.5 8.9-16 5.9-12.7 10.7-25.8 15.8-38.8 8-20.3 15.4-40.7 20.9-61.8 1.4-5.5 2.9-11.1 2.7-16.9-.1-3-1.6-4.5-4.6-4.7zM694.3 598.4c-13.8 12.5-23.1 27.7-28.6 45.4-.7 2.4-1.3 4.8-1.1 7.3.2 2.1.9 2.5 2.9 1.8.7-.3 1.4-.5 2-.8 18.6-7.8 28.6-22.1 28.7-41.8.3-3.5-.7-7.4-1.7-11.2-.4-2.1-.5-2.1-2.2-.7z"/><path d="M900 0H100C44.8 0 0 44.8 0 100v800c0 55.2 44.8 100 100 100h800c55.2 0 100-44.8 100-100V100c0-55.2-44.8-100-100-100zm-14.2 667.5c-6 6.4-13.1 11.3-21.3 14.5-2.1.8-4.4 1.2-6.7 1.1-1.4-.1-2.2-.7-2.7-2s-.3-2.3.6-3.3c1.2-1.3 2.8-2.2 4.3-3.2 6.3-4 11.9-8.8 16.2-15 8-11.6 8.8-24 4.1-37-5.6-15.5-16.3-26.7-30.2-34.9-12.1-7.1-25.3-11.1-39-13.5-10.1-1.8-20.2-2.6-30.4-2.6-18.5-.1-36.5 2.6-53.8 9.4-1.7.7-2 1.3-1.4 3 3.2 8.4 5.4 17.1 5.9 26.2.8 13.2-4 24.4-12.4 34.2-11.7 13.7-26.2 23.5-43.2 29.5-5.3 1.9-10.5 4-16.2 4.9-11 1.7-20.9-6.1-21.7-17.2-.9-12 2.6-22.9 8-33.4 7.9-15.4 18.8-28.4 31.6-39.9 1.9-1.7 3.8-3.4 5.7-5 1-.8 1.2-1.5.6-2.6-3.6-7.1-7.3-14.1-10.2-21.5-4.7-11.7-7.4-23.9-10.1-36.1-.3-1.6-.6-3.1-.9-4.7-.8.3-.9 1.1-1.2 1.8-13 25.9-27.3 51.1-43.9 75-2.3 3.3-2.7 5.8-1.1 9.5 4.4 10.1 7.2 20.8 7.4 31.9.2 21-8.7 37.3-25.8 49.1-14.9 10.3-31.3 16.7-49.4 18.6-6 .7-12.1.9-18.1-.5-5.7-1.3-9.9-5.4-10.5-10.7-.4-3.9.7-7.6 2.8-10.8 4.7-7.5 10.5-14.1 16.1-20.9 10.5-12.8 21.7-25.1 31.7-38.4 2.6-3.5 5.1-7.1 7.8-10.6.7-.9.6-1.6.1-2.5-3.2-6.5-6.3-13.1-9.5-19.6-6.1-12.3-9.3-25.5-12.3-38.7-.7-3-1.2-6.1-2-9.7-1.7 4.3-3.3 8-4.8 11.7-12.3 30-25.4 59.7-40.4 88.5-8 15.3-16.1 30.5-24.6 45.5-4.9 8.7-10.9 16.4-18.6 22.8-3.3 2.7-6.9 4.9-11.1 5.5-8.1 1.2-15.3-2.6-19.3-10.2-2.8-5.3-4.1-11.1-4.9-17-1.3-11-.7-21.9.7-32.9.1-.5.1-1.1.1-1.6 0-.2 0-.4-.1-.8-.9.9-1.1 2-1.5 2.9-6.8 16.4-13.9 32.6-22.4 48.2-2.9 5.3-6.1 10.4-10.5 14.8-6.5 6.6-14.5 8.4-23.5 7.6-9.4-.8-15.6-6.2-20.6-13.5-7.1-10.5-11.4-22.2-14.4-34.5-2.5-10.1-4-20.3-3.5-30.7.9-18.7 3.5-37.2 9.7-55.1.2-.6.4-1.3.6-1.9-.8-.5-1.3.1-1.8.4-14 7.5-27.7 15.7-41.5 23.7-1.2.7-1.4 1.2-.8 2.6 4.7 9.3 7.1 19.3 8.4 29.6 1 7.4 1.4 14.9 1.2 22.3-1.2 33.5-11.9 63.4-35 88.2-17.5 18.8-38.5 31.9-63.4 38.3-18.7 4.8-37.4 4.8-56.1.2-7.1-1.8-12.4-6-16.9-11.4-8-9.7-12.3-21-13.3-33.4-1.8-22.8 5-43.1 19.1-61 11.6-14.7 26-26.4 41-37.2 20.1-14.5 41.5-26.8 63.6-38 2.3-1.1 4.4-2.4 6.8-3.7-2.2-2.3-4.6-4-6.9-5.9-13-10.2-26.8-19.4-40.4-28.8-18.1-12.6-36.2-25.3-52.9-39.8-16-13.8-30.7-28.9-41.8-47.1-6.9-11.3-12-23.3-14.4-36.4-.2-1 .1-2-.6-2.9v-11.2c.4-.3.3-.7.4-1.1.3-4.5 1.2-9 2.3-13.4 4.3-17.3 12.1-33.1 21.8-47.9 14.5-22.3 32.6-41.5 52.6-58.8 25.2-21.9 52.9-40.2 82.2-56.2 20.9-11.5 42.3-21.7 64.3-30.8 22.2-9.1 44.6-17.5 68-22.9 11.2-2.6 22.4-4.6 33.8-6.1 8.9-1.1 17.8-1.8 26.7-2.2v-.3h20.8v.3c8.1.4 16.2 1 24.3 2.1 25.9 3.7 50.5 10.8 72 26.4 15.4 11.2 26.5 25.5 31.4 44.2 3 11.4 3.8 23 2.8 34.7-2.5 29.3-14.4 54.9-31.7 78.2-22 29.6-49.9 52-83.8 66.8-20.3 8.8-41.4 14.9-63.2 18.9-12.5 2.3-25.1 3.8-37.9 4.3-17.3.7-34.5-.1-51.3-4.6-15.1-4.1-28.4-11.7-39.4-22.9-5.1-5.2-9.2-11-11.2-18.2-.5-1.8-1.1-3.6-.6-5.5.8-3.5 3.8-4.5 6.6-2.4 2.8 2.2 4.9 5.1 7.5 7.5 8.1 7.2 17.7 11.7 28 14.8 12.4 3.8 25.2 5.1 38.1 4.6 17.1-.7 33.9-3.7 50.4-8 26.1-6.8 50.6-17.4 73.1-32.3 21.3-14.1 40-31.1 54.3-52.4 7.6-11.4 13.6-23.5 16.7-36.9 2.8-12.3 2.9-24.4-2.1-36.3-3.4-8.2-9.5-14-16.8-18.7-9.9-6.3-20.9-9.9-32.3-12.4-14.3-3-28.9-4-43.5-3.5-18.5.6-36.8 3.2-54.9 7.3-27.5 6.2-53.9 15.6-79.5 27.5-26.7 12.4-52.4 26.6-76.9 42.8-20 13.2-38.9 27.8-55.5 45.2-11 11.6-20.7 24.2-27.7 38.7-5.5 11.3-8.8 23.2-9.7 35.8-1.4 18.7 4.3 35.2 14.9 50.3 7.5 10.6 16.6 19.8 26.3 28.4 15.9 14.1 33.1 26.5 49.7 39.6 11.2 8.9 22.2 18.1 32.1 28.5 2.6 2.7 2.6 2.7 5.9.9 25-13.6 49.9-27.3 74.9-40.9 1.1-.6 1.8-1.4 2.6-2.4 13-17.3 28.8-31.4 48.4-40.9 6.3-3.1 13-5.3 20.1-5.5 14.2-.4 23.2 6.9 26.1 20.8 2 9.7 1.5 19.5-.2 29.2-.1.4-.1.8-.2 1.4 1.4-1 2.6-1.9 3.8-2.8 2.1-1.5 4.4-2.2 6.9-2.2 4 0 7.6 1.2 11 3.2 4.9 3 6.4 7 4.8 13.1-3.5 13.6-7.2 27.1-10.7 40.7-3.3 12.7-6.4 25.4-8.8 38.3-1.3 7-1.7 14-.7 21.1.1.6 0 1.5.8 1.7s1.3-.6 1.7-1.2c3-3.8 4.9-8.2 7.2-12.5 9.1-17.4 17.1-35.4 25.1-53.3 11.4-25.5 22.6-51 34-76.5 5.7-12.8 11-25.7 13.7-39.5.9-4.5 3.4-7 7.6-8.2 11.3-3.1 22.7-4.3 34.4-2 2.4.5 4.7 1.6 6.5 3.3 1.8 1.8 2.5 3.7 1.6 6.3-2.9 8.4-5.8 16.7-7.8 25.4-2.3 9.9-1.9 19.8-1 29.8 1.2 12.3 5.9 23.1 11.5 33.8.2.5.3 1.2.9 1.2.7.1.8-.8 1.1-1.2 12.6-20.7 24.6-41.8 35.6-63.4 4.1-8.1 8.2-16.2 11.1-24.8 2-6.3 2.9-12.8 5-19.1.8-2.5 1.7-5.1 2.4-7.6.5-1.8 1.7-3 3.3-3.8 4.4-2.4 9.3-3.2 14.2-3.8 6.6-.8 13.3-1.4 19.9-.5 3.7.5 7.3 1.4 10.2 4.1 2 1.8 2.5 3.9 1.6 6.5-3 8.9-6.2 17.8-8.1 27.1-1.9 9.1-1.8 18.2-.5 27.4 1 6.8 1.8 13.6 4.6 20 3.7 8.5 8.1 16.7 12.2 24.9.6 1.3 1.4.9 2.2.4 10.9-5.1 22.1-9.1 33.9-11.8 9.6-2.2 19.4-3.5 29.2-4 16.7-.9 33.1.6 49.2 5.3 20.4 6 38 16.4 51.6 32.9 10.2 12.4 16.6 26.6 17.8 42.8 1.2 15.5-2.9 29.4-13.8 41z"/></svg>