<?xml version="1.0" encoding="utf-8"?>
<!-- Generator: Adobe Illustrator 16.0.4, SVG Export Plug-In . SVG Version: 6.00 Build 0)  -->
<!DOCTYPE svg PUBLIC "-//W3C//DTD SVG 1.1//EN" "http://www.w3.org/Graphics/SVG/1.1/DTD/svg11.dtd">
<svg version="1.1" id="Layer_1" xmlns="http://www.w3.org/2000/svg" xmlns:xlink="http://www.w3.org/1999/xlink" x="0px" y="0px"
	 width="16px" height="16px" viewBox="0 0 16 16" enable-background="new 0 0 16 16" xml:space="preserve">
<g id="icomoon-ignore">
</g>
<path fill="#FFFFFF" d="M14.501,0h-13C0.675,0,0,0.675,0,1.5v12.999C0,15.324,0.675,16,1.5,16h13C15.327,16,16,15.324,16,14.499V1.5
	C16,0.675,15.327,0,14.501,0z M6.001,13H4V6h2V13z M5,5C4.447,5,4,4.552,4,4c0-0.552,0.447-1,1-1c0.552,0,1,0.448,1,1
	C6.001,4.552,5.553,5,5,5z M13.002,13h-2.001V9c0-0.553-0.447-1-0.999-1C9.447,8,9.003,8.447,9.003,9v4H7V6h2.002v1.24
	C9.413,6.674,10.044,6,10.75,6c1.246,0,2.252,1.119,2.252,2.499V13z"/>
</svg>
