<?xml version="1.0" encoding="utf-8"?>
<!-- Generator: Adobe Illustrator 16.0.4, SVG Export Plug-In . SVG Version: 6.00 Build 0)  -->
<!DOCTYPE svg PUBLIC "-//W3C//DTD SVG 1.1//EN" "http://www.w3.org/Graphics/SVG/1.1/DTD/svg11.dtd">
<svg version="1.1" xmlns="http://www.w3.org/2000/svg" xmlns:xlink="http://www.w3.org/1999/xlink" x="0px" y="0px" width="30px"
	 height="30px" viewBox="0 0 30 30" enable-background="new 0 0 30 30" xml:space="preserve">
<g id="Layer_2">
</g>
<g id="Layer_1">
	<g>
		<path fill="#FFFFFF" d="M14.366,9.996c0.28-1.152,0.452-2.177,0.528-2.901l0.047-0.419c0.029-0.26,0.06-0.528,0.064-0.685
			c-0.092-0.055-0.229-0.138-0.284-0.157c-0.009,0.001-0.101,0.034-0.109,0.035c-0.058,0.007-0.08,0.01-0.124,0.026
			c-0.053,0.02-0.146,0.063-0.205,0.147c-0.043,0.064-0.133,0.258-0.2,0.752c-0.068,0.496-0.077,1.033-0.027,1.553
			C14.101,8.823,14.205,9.376,14.366,9.996z"/>
		<path fill="#FFFFFF" d="M15.956,17.352c0.337-0.062,0.644-0.113,0.929-0.158c-0.24-0.284-0.471-0.565-0.687-0.84
			c-0.63-0.799-1.186-1.592-1.637-2.332c-0.616,1.542-1.362,2.973-2.042,4.143c0.056-0.017,0.112-0.033,0.168-0.05
			C14.041,17.72,15.099,17.508,15.956,17.352z"/>
		<path fill="#FFFFFF" d="M21.9,20.133c0.574,0.405,1.08,0.682,1.461,0.796c0.303,0.091,0.574,0.093,0.854,0.003
			c0.146-0.049,0.347-0.141,0.417-0.291c0.062-0.132,0.076-0.39-0.038-0.642c-0.122-0.276-0.395-0.56-0.745-0.778
			c-0.334-0.212-0.748-0.369-1.346-0.514c-0.591-0.146-1.248-0.251-1.904-0.307c-0.242-0.018-0.49-0.029-0.738-0.035
			c0.022,0.023,0.048,0.048,0.07,0.072C20.661,19.162,21.268,19.686,21.9,20.133z"/>
		<path fill="#FFFFFF" d="M8.936,21.021c-1.285,0.641-2.015,1.258-2.34,1.574c-0.453,0.443-0.563,0.734-0.61,0.938
			c-0.01,0.047-0.018,0.088-0.022,0.124c0.353-0.092,0.746-0.325,1.199-0.708C7.569,22.604,8.166,22.011,8.936,21.021z"/>
		<path fill="#FFFFFF" d="M0,0v30v0.018h30.018V30V0H0z M4.62,23.225c0.129-0.572,0.446-1.09,0.997-1.63
			c0.688-0.67,1.699-1.345,2.846-1.899c0.574-0.279,1.257-0.565,1.995-0.84c0.853-1.33,2.069-3.417,2.944-5.715
			c0.099-0.261,0.193-0.523,0.282-0.786c-0.272-0.627-0.44-1.164-0.571-1.627c-0.237-0.844-0.388-1.599-0.45-2.245
			c-0.061-0.636-0.05-1.267,0.034-1.875c0.082-0.606,0.218-1.035,0.429-1.35c0.27-0.393,0.628-0.583,0.881-0.676
			c0.195-0.072,0.339-0.089,0.435-0.101c0.185-0.03,0.403-0.07,0.689,0.016c0.175,0.053,0.349,0.147,0.535,0.26l0.005-0.011
			c0.854,0.402,0.772,1.111,0.662,2.092l-0.045,0.409c-0.122,1.161-0.478,3.05-1.101,5.022c0.048,0.097,0.099,0.197,0.152,0.299
			c0.468,0.878,1.146,1.89,1.959,2.922c0.379,0.479,0.816,0.998,1.271,1.508c0.729-0.048,1.447-0.042,2.145,0.01
			c0.732,0.062,1.465,0.181,2.123,0.343c0.751,0.182,1.294,0.395,1.759,0.688c0.587,0.367,1.042,0.861,1.277,1.391
			c0.271,0.596,0.28,1.273,0.026,1.812c-0.225,0.477-0.658,0.832-1.256,1.026c-0.555,0.178-1.102,0.178-1.681,0.008
			c-0.544-0.166-1.153-0.489-1.869-0.994c-0.7-0.496-1.362-1.065-2.147-1.848c-0.312-0.311-0.629-0.64-0.942-0.978
			c-0.512,0.058-1.078,0.146-1.796,0.276c-0.822,0.148-1.836,0.353-3.127,0.729c-0.579,0.17-1.155,0.355-1.704,0.551
			c-0.073,0.11-0.143,0.215-0.208,0.312c-1.099,1.627-2.171,2.905-3.1,3.696c-0.709,0.601-1.364,0.942-2.004,1.051
			c-0.118,0.019-0.231,0.029-0.336,0.029c-0.462,0-0.796-0.189-0.997-0.568C4.547,24.184,4.507,23.721,4.62,23.225z"/>
	</g>
</g>
</svg>
